<svg width="43" height="43" viewBox="0 0 43 43" fill="none" xmlns="http://www.w3.org/2000/svg">
<path d="M21.5 31C20.917 31 20.4444 30.5274 20.4444 29.9444V22.5556H13.0556C12.4726 22.5556 12 22.083 12 21.5C12 20.917 12.4726 20.4444 13.0556 20.4444H20.4444V13.0556C20.4444 12.4726 20.917 12 21.5 12C22.083 12 22.5556 12.4726 22.5556 13.0556V20.4444H29.9444C30.5274 20.4444 31 20.917 31 21.5C31 22.083 30.5274 22.5556 29.9444 22.5556H22.5556V29.9444C22.5556 30.5274 22.083 31 21.5 31Z" fill="white"/>
</svg>
