<?xml version="1.0" encoding="UTF-8" standalone="no"?><!DOCTYPE svg PUBLIC "-//W3C//DTD SVG 1.1//EN" "http://www.w3.org/Graphics/SVG/1.1/DTD/svg11.dtd"><svg width="100%" height="100%" viewBox="0 0 227 230" version="1.1" xmlns="http://www.w3.org/2000/svg" xmlns:xlink="http://www.w3.org/1999/xlink" xml:space="preserve" xmlns:serif="http://www.serif.com/" style="fill-rule:evenodd;clip-rule:evenodd;stroke-linejoin:round;stroke-miterlimit:2;"><rect id="Artboard3" x="0.223" y="0.124" width="226.044" height="229.105" style="fill:none;"/><g><g><path d="M26.463,55.401c18.197,-24.586 44.34,-44.154 80.635,-46.041l0.267,208.819c-23.011,-1.302 -45.914,-11.362 -58.734,-22.505c-14.849,-12.905 -31.916,-29.725 -38.979,-68.152l26.229,0.42c5.374,21.462 13.718,43.222 45.731,56.362l-0.426,-136.744c-14.708,7.515 -24.592,15.798 -32.277,25.537l-22.446,-17.696Z" style="fill:#ee9f50;"/><path d="M121.087,9.36l1.017,74.584l25.968,0.47l-0.376,-38.226c14.809,4.528 27.583,14.72 37.307,34.988l-62.729,58.764l-0.463,78.239c43.846,-5.176 72.517,-29.448 87.593,-63.418l-21.659,-10.307c-9.571,19.748 -23.355,33.13 -40.475,41.47l-0.455,-35.368l68,-63.35c-17.039,-52.451 -51.317,-71.634 -93.728,-77.846Z" style="fill:#ee9f50;"/></g></g></svg>