<svg width="1479" height="988" viewBox="0 0 1479 988" fill="none" xmlns="http://www.w3.org/2000/svg">
<path d="M1155.25 8.35618C1145.85 9.88143 1134.65 11.9054 1124.56 15.2032C1117.33 17.5685 1111.08 21.7271 1106.21 26.3524C1102.64 29.8203 1104.25 27.8646 1101.83 30.393C1100.72 31.594 1099.63 32.8273 1098.55 34.0712C1095.45 37.6655 1092.94 41.9679 1090.44 46.4987C1089.36 48.4817 1090.32 45.8051 1089.2 47.9084C1084.31 57.2723 1080.57 66.8604 1076.88 76.8359C1076.02 79.1869 1075.21 81.5781 1074.43 84.0242C1071.19 94.2189 1068.8 104.809 1066.03 115.35C1060.78 135.179 1053.51 154.153 1045.76 172.894C1033.05 201.41 1015.53 226.666 999.245 253.05C996.672 257.168 994.027 261.267 991.377 265.345C984.314 276.212 976.147 288.288 968.312 300.387C962.577 309.215 956.488 317.65 950.907 325.544C949.35 327.74 950.556 326.631 950.279 327.063C945.923 333.822 946.94 331.262 943.8 335.458C941.931 337.956 940.036 340.503 938.138 343.081C928.963 355.487 916.036 364.466 905.545 374.245C903.04 376.503 900.628 378.625 898.205 380.695C891.645 386.201 898.71 381.286 891.74 386.417C891.254 386.768 892.744 385.147 890.876 386.568C886.692 389.827 878.361 395.742 874.741 397.797C867.77 401.805 866.569 402.428 859.506 405.341C854.419 407.397 848.548 408.783 843.301 411.079C838.324 413.285 833.274 415.364 828.434 417.343C826.265 418.227 829.284 417.418 825.823 418.854C822.356 420.309 813.062 423.777 809.886 424.822C806.704 425.886 807.956 425.128 807.376 425.269C802.615 426.427 792.034 430.856 790.628 431.328C778.73 435.466 767.494 438.921 756.382 442.025C743.738 445.671 730.963 447.839 717.914 450.425C717.358 450.539 716.823 450.65 716.265 450.768C697.985 454.667 678.348 457.615 661.33 461.642C659.752 462.027 658.205 462.426 656.691 462.85C641.074 466.605 627.362 469.965 612.642 473.993C609.245 474.915 605.784 475.866 602.223 476.856C600.1 477.446 602.716 477.163 600.099 477.892C572.308 485.643 544.753 493.386 517.083 501.035C514.295 501.806 517.771 500.419 514.986 501.166C505.673 503.671 493.327 506.936 482.581 510.151C473.649 512.821 465.837 515.443 461.504 517.527C450.09 520.873 436.312 525.33 425.783 527.736C420.356 528.877 423.348 527.859 420.634 528.426C419.963 528.559 418.934 528.796 417.322 529.322C415.546 529.92 417.981 529.506 415.318 530.415C404.143 534.528 391.761 539.228 380.649 543.46C378.342 544.348 379.124 544.4 378.492 544.693C377.919 544.957 377.289 545.226 376.612 545.498C371.3 547.647 363.715 549.755 361.952 550.344C346.812 555.409 335.932 559.526 321.957 564.566C318.715 565.734 322.693 564.753 319.577 565.892C303.417 571.793 286.632 577.794 270.702 583.279C267.177 584.491 270.298 582.991 268.587 583.559C261.083 586.054 259.656 587.294 252.487 589.671C252.366 589.711 252.26 589.744 252.167 589.771C251.081 590.083 251.695 589.585 251.43 589.645C246.972 590.649 243.466 592.706 242.388 593.108C228.528 598.31 219.345 600.78 206.065 606.087C204.483 606.726 208.212 605.678 203.748 607.46C191.494 612.362 179.131 617.762 166.859 623.525C149.332 631.707 132.23 640.644 117.038 651.395C112.98 654.195 115.686 651.925 115.411 652.074C110.952 654.528 108.713 657.043 107.401 657.987C107.048 658.242 106.692 658.496 106.332 658.751C96.4191 665.802 87.0241 672.187 80.9608 677.953C65.8049 689.732 49.9543 701.531 37.3178 715.262C30.9592 723.739 26.7025 733.667 20.9521 742.954C15.2137 752.823 11.8342 764.324 7.36591 775.212C3.32687 785.77 4.48071 797.887 6.90569 809.099C7.05539 809.752 6.40161 808.673 6.70649 809.979C8.727 818.173 10.2553 821.064 11.5323 823.316C12.8008 825.397 13.9041 827.023 16.8797 831.147C18.3492 833.345 22.5867 840.324 23.0812 840.885C24.6146 843.055 22.41 841.327 22.9503 842.032C27.6037 847.768 28.0386 845.722 35.3031 852.308C35.5335 852.514 34.3336 851.916 34.9343 852.488C36.796 854.261 38.8543 855.785 40.7547 857.476C42.1029 858.679 43.1421 859.7 44.1318 860.711C46.29 862.9 48.4073 864.938 53.6305 868.117C54.6072 868.676 53.7309 866.935 61.1058 871.798C63.143 873.141 70.1422 877.506 75.6475 880.495C78.0271 881.887 80.1376 882.652 81.3793 883.113C85.4506 884.533 82.5362 883.926 82.815 884.038C93.9672 887.742 89.6688 886.606 95.2562 888.677C100.92 890.64 99.6478 888.721 102.026 889.058C103.465 889.26 107.073 890.105 110.183 890.84C112.214 891.324 114.079 891.775 114.907 891.985C117.012 892.515 114.335 892.227 116.178 892.65C128.49 895.38 121.671 892.85 125.861 893.334C135.502 894.366 142.843 896.621 151.674 897.95C154.095 898.31 152.18 897.782 154.313 898.044C162.798 899.078 167.759 900.068 177.429 900.879C179.068 901.021 186.95 901.226 191.851 902.285C192.559 902.438 190.484 902.502 194.104 902.967C199.544 903.668 209.105 904.744 215.06 905.253C219.306 905.613 214.492 904.641 219.805 905.33C222.193 905.637 217.716 905.469 222.223 906.025C226.78 906.588 238.212 907.689 242.497 908.083C246.875 908.489 244.518 907.899 244.871 907.908C247.153 907.984 255.305 908.567 256.11 908.64C293.371 912.023 327.674 915.46 364.004 918.108C366.9 918.319 365.002 917.785 365.444 917.813C375.228 918.414 367.444 918.833 374.179 919.699C373.272 918.846 377.199 919.293 384.195 919.744C387.576 919.961 385.761 919.519 386.071 919.512C390.951 919.425 394.284 920.271 395.161 920.459C398.368 921.15 401.987 920.894 404.221 921.361C406.219 921.776 402.252 921.857 406.195 922.227C406.643 922.269 407.199 922.315 407.887 922.366C409.723 922.224 404.968 921.137 409.898 921.387C428.978 922.374 463.962 925.478 479.183 926.614C494.403 927.754 499.223 928.039 508.065 928.76C524.171 930.069 518.189 929.108 528.123 929.55C538.087 929.993 533.166 930.986 534.576 931.371C535.965 931.754 537.528 931.567 539.278 931.845C541.024 932.123 537.206 932.055 541.336 932.399C545.364 932.736 556.565 932.996 558.054 932.797C561.178 932.376 556.151 931.365 567.029 932.343C567.645 932.399 565.618 932.612 567.979 932.808C586.799 934.364 606.561 935.716 625.434 937.22C628.026 937.427 625.68 937.66 627.188 937.785C642.93 939.088 637.384 938.058 646.06 937.906C644.07 938.746 648.759 939.655 660.736 940.456C667.94 940.938 666.746 940.433 671.416 940.443C672.81 940.445 677.867 941.072 678.802 940.933C681.886 940.484 677.131 939.439 689.459 940.544C690 940.593 688.25 940.835 690.122 940.98C702.252 941.921 703.671 941.331 716.768 942.107C727.04 942.716 745.202 944.318 756.869 945.144C756.552 946.217 767.583 946.683 772.102 946.222C779.672 946.744 787.852 947.23 795.16 947.807C797.675 948.005 796.001 948.213 796.316 948.268C801.15 949.117 804.482 948.598 806.12 948.675C823.859 949.538 838.259 951.019 855.176 951.558C855.78 951.578 856.781 950.882 861.275 951.724C861.566 951.781 855.945 951.767 863.917 952.304C871.904 952.841 886.792 954.199 897.907 954.554C900.586 954.64 907.375 954.455 912.736 955.278C913.459 955.389 912.65 955.555 913.691 955.743C917.056 956.343 918.953 955.696 922.881 956.597C926.841 957.501 934.913 958.502 946.173 958.765C946.529 958.774 949.213 958.336 952.712 958.567C958.302 958.937 966.157 959.56 972.056 959.929C974.86 960.104 973.089 959.614 973.576 959.638C992.334 960.611 1005.67 961.788 1025.86 963.205C1029.58 963.467 1040.05 963.61 1047.29 964.472C1055.12 965.41 1046.98 966.754 1064.94 967.44C1072.4 967.731 1081.42 965.944 1094.63 967.992C1119.98 969.28 1143.26 971.362 1168.77 972.532C1169.83 972.58 1173.61 972.16 1176.32 972.339C1180.34 972.606 1182.5 973.049 1185.3 973.245C1186.7 973.344 1188.07 973.436 1189.43 973.524C1200.04 974.207 1209.51 974.603 1219.68 975.281C1223.97 975.567 1222.36 975.783 1227.7 976.138C1233.06 976.494 1236.17 976.272 1243.45 976.935C1248.87 977.432 1253.91 978.606 1261.13 979.164C1261.49 978.344 1266.14 978.656 1274.95 978.994C1276.59 979.056 1274.85 978.652 1275.63 978.666C1278.76 978.714 1281.72 979.145 1284.82 979.178C1285.56 979.186 1285.62 978.902 1286.22 978.892C1291.21 978.786 1299.87 979.988 1301.18 980.184C1306.73 980.967 1309.39 980.764 1313.57 981.201C1317.93 981.649 1311.41 981.441 1316.47 981.868C1326.73 982.739 1340.06 983.552 1350.46 984.241C1354.59 984.512 1351.8 983.947 1352.39 983.977C1361.07 984.443 1369.79 985.42 1374.61 984.968C1380.45 987.319 1379.84 985.142 1392.13 986.276C1393.07 986.357 1394.3 987.366 1390.55 987.29C1386.81 987.207 1381.2 986.55 1375.96 986.424C1374.78 986.398 1367.64 986.811 1366.68 986.801C1359.11 986.723 1358.2 985.265 1357.75 985.16C1353.47 984.052 1344.51 984.416 1342.44 984.348C1332.13 983.979 1323.17 983.206 1314.6 982.869C1308.86 982.639 1308.44 983.528 1303.86 983.206C1289.19 982.175 1283.9 980.559 1270.03 980.785C1266.96 980.826 1269.9 982.014 1259.32 980.555C1258.62 980.461 1250.7 979.238 1246.14 979.405C1245.56 979.425 1245.56 979.717 1244.79 979.693C1239.54 979.519 1236.32 979.083 1230.75 978.842C1225.05 978.593 1218.57 978.35 1212.16 977.847C1208.22 977.54 1203.46 976.696 1201.66 976.45C1197.38 975.856 1192.65 975.957 1189.3 975.597C1188.72 975.534 1188.18 975.454 1187.7 975.352C1184.56 974.688 1190.83 974.373 1182.49 973.548C1182.14 974.284 1181.37 975.014 1180.82 975.742C1162.14 974.541 1144.13 973.167 1125.41 972.026C1123.12 971.888 1125.43 972.441 1122.98 972.302C1112.54 971.712 1103.47 970.853 1092.62 970.288C1084.01 969.84 1075.17 969.716 1066.24 969.264C1060.87 968.06 1048.05 967.549 1038.47 966.868C1035.2 966.635 1035.43 966.418 1033.1 966.196C1024.28 965.362 1028.37 966.385 1025.94 966.353C1015.42 966.206 1014.65 964.422 1002.38 963.692C1001.74 963.653 993.681 964.07 992.565 964.057C985.534 963.989 991.413 963.663 987.074 963.321C979.169 962.697 973.642 962.127 964.215 961.802C961.508 961.711 954.968 961.874 949.695 961.094C949.002 960.992 949.406 960.712 948.846 960.659C938.691 959.717 938.349 960.656 932.565 960.614C926.773 960.573 917.838 959.342 916.017 959.035C911.258 958.239 919.7 959.058 919.958 959.026C923.038 958.644 916.473 958.327 911.477 957.96C910.821 956.977 903.862 956.591 906.328 957.586C906.61 957.696 910.484 957.854 911.477 957.96C907.062 958.604 899.409 958.235 890.967 956.834C887.026 956.178 890.765 955.945 878.755 955.351C873.292 955.081 875.361 955.861 870.526 955.729C859.437 955.424 845.222 953.909 833.817 953.272C829.686 953.042 833.681 953.653 830.864 953.508C823.393 953.125 816.815 952.435 809.29 952.087C808.608 952.056 810.248 952.533 807.91 952.387C790.208 951.289 774.796 950.054 756.318 948.846C747.393 948.263 731.395 947.425 722.161 946.779C706.109 945.66 686.404 943.822 672.735 943.048C663.803 942.541 665.716 943.039 661.869 943.037C654.416 943.034 641.499 941.294 639.693 941.037C639.646 941.029 647.348 941.455 643.262 940.992C640.889 940.436 639.78 941.041 639.693 941.037C638.523 940.871 623.165 939.759 620.144 939.627C618.494 939.555 619.392 939.967 618.533 939.923C597.88 938.852 577.413 937.554 556.543 935.959C556.176 935.927 556.756 935.572 555.893 935.501C543.884 934.502 536.094 934.446 526.133 934.041C516.299 933.644 508.243 932.985 502.453 931.902C495.061 931.468 484.152 930.398 478.028 929.78C471.889 929.162 471.006 929.865 470.464 929.842C453.276 929.097 443.471 927.949 426.021 926.597C421.003 926.207 413.202 925.659 405.975 925.162C400.627 924.793 395.57 924.45 391.854 924.202C384.902 923.741 380.269 923.205 373.754 922.816C372.867 922.763 373.736 923.172 373.464 923.164C366.158 923.006 369.727 922.447 368.241 922.182C362.71 921.208 359.185 920.645 349.933 920.165C347.693 920.046 341.168 920.727 337.258 920.481C332.158 920.158 334.178 919.891 328.667 919.546C328.202 919.516 328.263 919.788 324.92 919.502C309.492 918.185 292.68 916.608 276.54 915.204C274.38 915.015 277.105 915.68 273.996 915.414C259.038 914.135 242.741 912.607 228.264 910.981C224.766 910.586 226.992 910.51 226.242 910.348C221.407 909.339 214.818 909.44 213.588 909.328C186.967 906.919 166.88 904.047 139.757 900.432C138.36 900.262 126.816 899.301 121.96 897.699C121.621 897.593 116.765 896 112.307 895.633C112.014 895.606 115.053 896.583 109.659 895.486C109.533 895.46 109.405 895.434 109.276 895.408C103.84 894.301 95.4137 892.805 88.2434 890.541C85.9488 889.676 80.5466 888.14 73.3724 884.902C73.355 884.894 73.3202 884.88 73.2709 884.86C72.0287 884.41 62.484 880.188 59.7656 877.383C59.3111 876.893 60.3399 876.547 52.9465 872.191C51.5388 871.343 53.8745 873.211 50.2364 870.861C47.487 869.059 44.4015 866.841 41.2102 864.22C38.1937 861.748 34.7576 859.103 31.4884 856.512C30.3598 855.646 25.3005 851.963 22.2945 847.931C21.8269 847.304 23.0474 848.189 21.319 846.216C15.9455 840.021 11.0393 832.982 7.36643 825.33C5.3865 821.136 4.07512 816.998 2.99592 812.782C1.96035 808.417 2.97546 810.529 2.14909 805.956C1.2787 801.392 0.466136 792.044 0.647304 787.061C0.854572 782.063 -0.706637 787.485 0.400783 779.869C0.823288 777.635 1.42629 775.398 2.27535 773.207C6.6069 762.34 9.75111 751.119 16.2165 740.02C21.7183 731.271 26.148 721.133 33.0073 712.06C37.3719 706.752 41.8115 703.151 46.357 699.098C49.8339 696.1 46.7666 698.335 51.8996 693.966C65.1404 682.776 85.5407 666.603 103.338 654.422C110.909 649.23 117.852 644.304 123.488 640.892C138.477 632.048 120.124 643.932 131.509 637.142C137.02 633.927 142.672 629.827 144.014 629.085C151.682 624.824 158.12 621.784 164.623 618.78C169.305 616.625 173.965 614.526 179.123 612.177C181.662 611.024 179.005 611.777 181.17 610.803C188.568 607.476 196.516 604.375 203.712 601.513C206.937 600.232 206.234 600.192 209.225 599.062C216.376 596.369 222.767 594.142 229.835 591.872C230.479 591.665 226.308 593.565 231.619 591.656C237.271 589.628 243.843 587.418 250.506 585.068C253.935 583.858 257.386 582.6 260.747 581.303C263.631 580.187 263.534 579.51 269.981 577.702C271.345 577.317 269.915 578.686 277.016 575.406C278.218 574.854 290.213 569.555 296.451 567.952C298.095 567.53 302.389 566.686 305.871 565.321C306.342 565.134 304.308 565.483 307.212 564.399C317.445 560.585 328.224 556.729 338.732 552.801C341.541 551.749 337.223 552.918 341.399 551.368C351.498 547.617 363.915 543.17 374.398 539.441C375.902 538.905 377.251 538.426 378.664 537.922C382.809 536.445 380.061 537.785 380.363 537.71C385.439 536.425 388.01 534.679 389.623 534.034C399.631 530.112 406.936 527.356 416.879 524.127C419.77 523.342 417.631 523.539 418.203 523.358C418.708 523.209 419.146 523.094 419.521 523.003C423.012 522.099 420.088 523.302 423.161 522.652C432.567 520.509 443.184 516.96 452.809 514.013C456.339 512.915 452.234 513.743 455.424 512.757C463.855 510.149 472.438 507.559 481.064 505.027C491.596 501.937 502.158 498.946 512.357 496.137C515.836 495.181 513.742 496.111 514.486 495.972C519.611 495.02 526.731 492.27 528.402 491.725C535.972 489.253 539.017 488.677 545.763 486.708C565.908 480.833 589.023 474.336 611.1 468.349C625.17 464.539 638.905 460.979 651.162 458.194C652.515 457.873 653.813 457.55 655.091 457.194C676.945 451.607 696.151 449.446 715.141 445.405C728.431 442.738 741.357 440.632 754.853 436.653C757.719 435.836 760.61 434.99 763.542 434.11C765.978 433.377 763.4 433.713 765.499 433.073C791.194 425.153 816.484 416.623 840.907 405.768C842.309 405.13 843.719 404.572 845.111 404.063C847.412 403.243 843.976 404.01 847.637 402.731C855.116 400.362 863.441 397.078 869.994 393.252C873.152 391.442 869.108 394.264 872.318 392.389C879.708 388.007 887.245 382.282 894.082 376.446C897.033 373.911 892.332 377.372 896.112 374.146C897.889 372.616 899.57 371.136 901.34 369.548C912.452 359.325 924.749 350.589 932.886 339.312C942.839 325.474 953.181 311.872 962.716 297.703C962.857 297.491 963.003 297.288 963.154 297.09C964.434 295.396 966.135 293.929 968.487 290.042C968.502 289.597 968.265 289.468 968.151 289.195C976.703 275.921 985.456 262.825 993.729 249.625C1009.83 223.493 1027.48 197.986 1039.71 170.405C1041.06 167.152 1042.39 163.858 1043.69 160.583C1044.47 158.614 1042.73 161.851 1044.22 158.05C1049.95 143.316 1055.1 128.664 1059.1 113.576C1061.08 106.05 1062.94 98.3864 1065.19 90.5735C1065.89 88.2283 1066.22 89.6312 1068.18 82.6863C1068.38 81.9763 1069.52 78.1713 1070.77 74.6058C1071.64 72.0584 1072.51 69.6107 1072.86 68.4945C1072.97 68.1325 1071.93 69.8417 1073.17 66.5887C1078.23 53.9091 1083.27 40.6893 1092.79 29.0797C1097.16 24.0321 1102.04 18.8321 1107.8 14.868C1110.66 12.9434 1107.85 15.3188 1109.89 13.9854C1113.66 11.584 1117.81 9.58427 1122.16 8.1176C1134.4 4.10456 1147.09 1.86527 1158.69 0.479654C1169.18 -0.634572 1165.39 0.532003 1171 0.60382C1171.8 0.594257 1178.28 0.129045 1178.65 0.521844C1179.55 1.42461 1176.5 2.63768 1177.82 3.5777C1178.14 3.70293 1186.48 3.32891 1181.57 3.93002C1181.23 3.93172 1175.1 4.44381 1173.59 4.78298C1172.53 4.99693 1174.46 5.21629 1172.34 5.56012C1170.2 5.91226 1167.81 5.82414 1164.25 6.4402C1160.71 7.08259 1162.33 7.26419 1155.25 8.35618ZM450.258 926.977C444.585 926.197 443.61 927.476 449.838 927.604C450.134 927.609 450.548 927.016 450.258 926.977ZM1144.2 972.154C1136.79 971.095 1131.49 971.637 1136.81 972.43C1142.12 973.222 1146.45 972.476 1144.2 972.154ZM1221.93 976.607C1213.34 975.596 1211.82 977.413 1221.12 977.613C1221.66 977.625 1222.43 976.665 1221.93 976.607ZM1145.44 4.3528C1145.52 4.34653 1150.12 3.55741 1150.23 3.53071C1152.61 2.68123 1143.4 4.25396 1145.44 4.3528ZM1299.15 981.038C1296.49 980.609 1288.44 980.394 1291.82 980.932C1294.71 981.375 1302.49 981.573 1299.15 981.038ZM151.827 898.634C151.722 898.601 148.459 898.132 148.524 898.254C148.657 898.644 153.282 899.174 151.827 898.634ZM1430.27 987.568C1410.85 987.478 1399.12 985.738 1420.23 986.076C1424.06 986.126 1411.98 986.538 1416.86 986.705C1425.77 987.009 1431.69 986.014 1440.79 986.545C1442.43 986.643 1431.38 987.579 1430.24 987.571C1430.25 987.57 1430.26 987.569 1430.27 987.568ZM447.089 925.126C446.969 925.1 442.31 924.744 442.202 924.754C439.649 924.997 449.03 925.713 447.089 925.126ZM4.47713 797.118C4.29875 796.866 4.11153 786.277 4.33862 785.943C4.26922 783.158 3.55117 787.099 3.62002 791.224C3.65024 795.343 4.37952 799.504 4.47713 797.118ZM757.051 945.185C762.098 945.082 768.11 945.422 772.079 946.22C767.089 945.868 762.065 945.537 757.051 945.185Z" fill="#ED9F52"/>
<path d="M1167.74 132.309C1167.09 132.587 1166.44 132.886 1165.81 133.196C1155.85 138.06 1144.8 147.552 1134.13 154.858C1132.1 156.243 1130.26 157.82 1128.61 159.462C1125.65 162.559 1126.94 160.798 1124.98 163.079C1121.21 167.664 1118.42 172.657 1115.27 177.986C1114.23 179.759 1115.16 177.34 1114.07 179.208C1113.95 179.405 1113.84 179.602 1113.73 179.799C1108.25 189.508 1104.41 199.947 1100.36 210.889C1098.4 216.261 1096.55 221.673 1094.8 227.098C1091.3 237.722 1087.9 247.955 1086.85 258.662C1085.2 274.705 1081.64 290.48 1077.43 305.863C1074.66 316.116 1072.49 326.6 1069.75 337.095C1067.11 347.23 1064.65 357.518 1061.75 367.768C1060.31 372.922 1058.19 377.798 1055.86 382.474C1052.96 388.362 1049.36 394.307 1046.64 400.576C1041.56 412.259 1033.28 422.329 1025.61 431.431C1024.07 433.236 1022.56 435.025 1021.08 436.782C1019.54 438.607 1020.72 437.741 1020.44 438.104C1016.12 443.789 1017.16 441.553 1014.04 445.014C1006.09 453.819 997.476 463.207 988.657 471.835C983.728 476.662 978.76 481.245 973.909 485.432C968.109 490.355 974.412 486.01 968.225 490.567C967.794 490.879 969.08 489.402 967.429 490.67C963.696 493.588 956.455 498.918 953.358 500.902C951.585 502.069 950.244 502.919 949.084 503.646C946.376 505.33 944.699 506.398 940.589 508.687C932.544 513.133 922.597 517.41 913.679 521.359C911.772 522.202 914.454 521.441 911.431 522.807C908.403 524.182 900.288 527.548 897.505 528.597C894.769 529.634 895.808 528.898 895.303 529.035C891.106 530.177 882.019 534.676 880.765 535.196C879.318 535.802 877.85 536.411 876.359 537.025C856.036 545.355 837.121 550.012 816.462 553.362C809.808 554.501 802.679 555.224 796.26 556.658C786.06 559.281 775.674 561.134 766.017 562.37C746.864 564.74 730.719 566.106 712.287 569.013C710.359 569.313 712.693 569.382 710.321 569.754C709.888 569.822 709.453 569.891 709.016 569.96C695.927 572.3 682.549 574.575 669.263 576.242C657.732 577.744 646.137 579.116 634.572 580.408C632.026 580.692 635.253 579.92 632.715 580.18C617.164 581.79 592.538 583.934 583.493 586.574C579.101 587.043 574.294 587.55 569.55 588.014C562.873 588.668 556.208 589.238 550.697 589.562C544.598 589.915 550.465 588.973 543.011 589.817C541.328 590.005 543.555 590.165 541.028 590.419C533.391 591.176 525.294 591.895 517.429 592.832C514.367 593.193 511.329 593.578 508.386 593.983C506.247 594.279 506.883 594.524 506.283 594.654C501.267 595.726 492.725 596.034 490.878 596.216C476.813 597.605 466.596 599.141 453.567 600.966C450.539 601.394 454.169 601.309 451.273 601.735C449.283 602.028 447.296 602.322 445.313 602.618C432.12 604.58 418.751 606.87 406.034 609.29C402.776 609.907 405.686 608.943 404.133 609.22C397.247 610.46 395.875 611.47 389.27 612.697C387.88 612.955 388.595 612.488 388.336 612.507C384.268 612.805 380.97 614.236 379.947 614.451C377.955 614.876 376.067 615.243 374.248 615.566C364.44 617.344 356.87 618.641 346.534 621.469C345.076 621.873 348.48 621.369 344.364 622.491C327.329 627.176 309.768 632.459 292.257 637.204C281.81 640.094 271.678 644.158 262.025 648.483C258.059 650.289 260.748 648.7 260.485 648.782C256.185 650.178 253.941 652.182 252.685 652.851C242.79 658.105 233.433 662.95 227.575 667.897C227.367 668.032 227.159 668.166 226.952 668.301C209.922 679.371 197.302 695.882 184.562 711.793C174.269 728.322 176.357 750.491 177.642 770.145C178.249 776.098 182.404 781.342 186.701 785.906C187.113 786.336 186.092 785.842 186.919 786.699C195.612 795.229 196.048 794.565 200.394 798.076C201.143 798.682 202.041 799.38 203.198 800.201C204.971 801.628 210.573 806.188 211.157 806.522C213.074 807.888 210.686 807.17 211.345 807.598C216.902 811.092 216.838 808.87 224.683 812.948C224.928 813.079 223.738 812.844 224.381 813.217C226.382 814.38 228.467 815.335 230.393 816.539C231.529 817.25 232.438 817.897 233.294 818.532C235.734 820.32 237.734 821.956 243.154 824.109C244.101 824.432 243.117 823.018 250.268 826.025C253.079 827.4 266.234 831.329 270.056 832.02C273.82 832.884 271.158 832.669 271.422 832.741C281.583 835.191 277.68 834.575 282.734 836.162C287.791 837.724 286.631 835.922 288.779 836.139C290.528 836.308 295.826 837.611 298.678 838.552C299.321 838.758 299.854 838.926 300.186 839.033C301.982 839.604 299.658 839.263 301.261 839.723C312.079 842.455 306.176 839.915 309.809 840.31C318.352 840.962 324.956 842.581 332.862 843.206C334.981 843.365 333.254 842.995 335.161 843.082C342.69 843.407 347.27 843.968 355.824 843.943C357.26 843.942 364.171 843.465 368.686 844.101C369.317 844.193 367.502 844.436 370.707 844.588C374.044 844.744 379.015 844.915 383.635 845.008C385.698 845.05 387.704 845.075 389.383 845.076C393.157 845.075 388.812 844.515 393.613 844.751C395.769 844.856 391.768 845.067 395.814 845.239C399.766 845.412 409.999 845.549 413.889 845.585C417.772 845.624 415.646 845.233 415.963 845.212C417.836 845.096 425.301 845.003 425.952 845.01C459.149 845.302 489.71 846.013 522.016 845.809C524.555 845.793 522.864 845.409 523.251 845.403C531.923 845.237 525.074 846.263 531.15 846.6C530.283 845.821 533.826 845.96 539.966 845.863C542.906 845.816 541.303 845.517 541.572 845.486C545.93 845.019 548.991 845.602 549.763 845.722C552.649 846.16 555.821 845.623 557.769 845.914C559.733 846.203 555.19 846.658 561.085 846.631C562.729 846.345 558.371 845.633 562.823 845.497C575.264 845.12 595.746 845.231 610.982 845.235C616.363 845.237 620.908 845.23 624.459 845.199C637.909 845.073 642.263 844.933 650.104 844.887C664.285 844.788 659.076 844.348 667.869 843.916C676.688 843.482 672.423 844.904 673.699 845.163C674.962 845.423 676.304 845.1 677.855 845.224C679.409 845.349 676.05 845.614 679.709 845.597C683.334 845.578 693.227 844.873 694.555 844.549C697.235 843.865 692.76 843.281 702.373 843.338C702.929 843.342 701.132 843.724 703.261 843.722C720.139 843.688 737.53 843.462 754.368 843.506C756.656 843.513 754.612 843.926 755.949 843.934C769.937 844.027 765.047 843.426 772.616 842.618C770.855 843.608 775.308 844.153 785.783 844.063C792.309 844.008 791.016 843.596 795.191 843.261C795.938 843.201 797.891 843.268 799.539 843.286C800.573 843.299 801.475 843.29 801.796 843.208C804.491 842.535 800.134 841.838 811.229 842.043C811.699 842.053 810.203 842.421 811.831 842.43C822.514 842.492 823.768 841.801 835.477 841.64C844.476 841.515 860.803 841.833 871.108 841.846C870.942 842.938 880.645 842.636 884.651 841.864C891.434 841.86 898.631 841.783 905.159 841.858C907.382 841.883 905.923 842.206 906.203 842.239C910.508 842.755 913.448 842.01 914.908 841.975C930.596 841.629 943.523 842.135 958.477 841.543C959.011 841.521 959.874 840.76 963.908 841.301C964.167 841.338 959.215 841.699 966.263 841.703C973.311 841.707 986.634 842.075 996.463 841.699C998.828 841.609 1004.82 840.979 1009.66 841.449C1010.3 841.513 1009.6 841.732 1010.53 841.85C1013.52 842.229 1015.15 841.46 1018.67 842.103C1022.19 842.747 1029.52 843.22 1039.41 842.755C1039.73 842.741 1042.07 842.13 1045.18 842.135C1050.15 842.144 1057.2 842.261 1062.38 842.252C1064.87 842.247 1063.28 841.871 1063.71 841.864C1080.39 841.636 1092.3 841.965 1110.17 842.112C1113.48 842.139 1122.83 841.627 1129.22 842.038C1136.2 842.488 1129 844.333 1145.05 843.907C1151.49 843.738 1159.73 841.399 1171.28 842.638C1193.81 842.381 1214.66 843.067 1237.24 842.746C1238.27 842.731 1241.37 842.091 1243.83 842.113C1247.41 842.147 1249.35 842.464 1251.86 842.499C1257.3 842.579 1262.8 842.565 1267.91 842.549C1272.84 842.537 1277.44 842.522 1282.39 842.583C1286.3 842.63 1284.95 842.935 1289.54 842.994C1294.09 843.053 1297.34 842.666 1303.49 842.931C1308.35 843.136 1312.89 844.039 1319.27 844.218C1319.52 843.38 1323.83 843.448 1331.49 843.335C1332.94 843.312 1331.39 842.997 1332.08 842.972C1334.87 842.861 1337.61 843.144 1340.26 843.021C1340.9 842.992 1340.94 842.705 1341.47 842.665C1346.09 842.314 1353.49 843.091 1354.84 843.229C1359.74 843.746 1362.12 843.42 1365.87 843.665C1369.6 843.911 1364.01 844.005 1368.38 844.199C1377.51 844.602 1389.34 844.849 1398.64 845.145C1402.35 845.262 1399.83 844.801 1400.36 844.809C1408.04 844.946 1415.81 845.636 1420.04 845.039C1425.34 847.231 1424.68 845.015 1435.64 845.914C1436.52 845.988 1437.56 846.972 1434.24 846.953C1430.95 846.936 1425.87 846.422 1421.3 846.455C1420.18 846.458 1413.9 847.098 1413.08 847.124C1406.36 847.3 1405.53 845.885 1405.16 845.794C1401.15 844.833 1393.55 845.554 1391.51 845.565C1382.31 845.609 1374.54 845.234 1366.8 845.284C1361.86 845.32 1361.16 846.221 1357.33 846.12C1344.22 845.787 1339.61 844.442 1327.26 845.375C1324.61 845.576 1327.14 846.606 1317.74 845.702C1317.11 845.644 1310.11 844.842 1306 845.253C1305.48 845.305 1305.5 845.596 1304.81 845.613C1300.22 845.723 1297.36 845.462 1292.31 845.526C1287.51 845.593 1281.32 845.706 1275.86 845.565C1273.25 845.499 1270 845.138 1267.89 844.912C1267.31 844.848 1266.82 844.794 1266.46 844.762C1261.97 844.348 1256.93 844.945 1254.11 844.464C1251.28 843.982 1256.84 843.307 1249.38 842.963C1249.1 843.718 1248.45 844.491 1248 845.249C1231.53 845.132 1215.31 844.822 1198.76 844.806C1196.73 844.805 1198.81 845.218 1196.62 845.227C1187.36 845.265 1179.3 844.956 1169.63 845.053C1162.26 845.13 1154.02 845.548 1146.28 845.648C1141.5 844.777 1130 845.061 1121.59 844.979C1118.66 844.95 1118.86 844.719 1116.77 844.643C1108.88 844.363 1112.58 845.128 1110.41 845.248C1101.14 845.762 1100.36 844.03 1089.42 844.077C1088.84 844.079 1081.77 845.006 1080.79 845.064C1074.59 845.443 1079.77 844.743 1075.88 844.678C1068.82 844.559 1063.89 844.343 1055.59 844.624C1053.17 844.707 1047.36 845.29 1042.66 844.852C1042.04 844.795 1042.38 844.489 1041.88 844.472C1032.87 844.189 1032.63 845.148 1027.49 845.482C1022.33 845.816 1014.38 845.171 1012.76 844.984C1008.54 844.5 1016 844.766 1016.23 844.717C1018.92 844.135 1013.14 844.246 1008.69 844.208C1008.05 843.269 1001.84 843.34 1004.09 844.172C1004.35 844.263 1007.8 844.167 1008.69 844.208C1004.78 845.139 998.017 845.273 990.458 844.431C986.935 844.037 990.245 843.556 979.577 843.759C974.704 843.851 976.586 844.492 972.295 844.682C962.532 845.114 949.826 844.553 939.682 844.686C936.025 844.734 939.588 845.075 937.091 845.12C930.514 845.241 924.527 844.999 917.939 845.163C917.334 845.179 918.825 845.543 916.73 845.557C900.994 845.667 887.251 845.495 870.851 845.577C862.882 845.617 848.853 845.904 840.492 845.917C827.359 845.937 811.439 845.588 799.559 845.718C798.517 845.729 797.512 845.743 796.548 845.762C788.56 845.914 790.491 846.269 786.973 846.553C780.371 847.101 768.886 846.339 767.222 846.221C767.222 846.216 773.975 846.06 770.385 845.906C768.292 845.531 767.287 846.219 767.222 846.221C766.144 846.143 752.607 846.209 749.845 846.315C748.36 846.372 749.195 846.713 748.425 846.736C730.224 847.271 711.922 847.635 693.466 847.828C693.137 847.828 693.624 847.425 692.851 847.428C682.161 847.462 675.291 848.093 666.484 848.564C657.656 849.037 650.647 849.082 645.401 848.502C638.753 848.711 629.174 848.561 623.674 848.45C618.168 848.34 617.402 849.111 616.904 849.132C614.862 849.222 612.937 849.292 611.024 849.347C599.349 849.685 590.877 849.415 577.395 849.432C569.937 849.441 555.161 849.61 547.089 849.71C540.695 849.793 536.858 849.62 530.99 849.741C530.194 849.757 530.999 850.097 530.756 850.11C524.187 850.524 527.349 849.688 525.994 849.54C521.084 849.001 518.052 848.715 509.653 848.963C507.717 849.02 502.071 850.212 498.54 850.276C493.948 850.356 495.68 849.93 490.874 850.022C490.462 850.029 490.551 850.295 487.58 850.275C473.807 850.185 458.78 849.958 444.479 849.875C442.53 849.863 445.041 850.303 442.201 850.291C428.936 850.236 414.375 850.065 401.506 849.668C398.287 849.567 400.311 849.304 399.615 849.206C395.407 848.611 389.381 849.268 388.378 849.262C386.711 849.255 385.101 849.242 383.544 849.225C362.168 848.918 344.962 848.045 322.412 846.599C321.117 846.539 310.787 846.358 306.281 844.764C305.97 844.67 301.622 843.163 297.622 842.573C297.6 842.57 297.577 842.567 297.555 842.564C297.517 842.56 297.549 842.582 297.61 842.618C297.851 842.755 298.532 843.084 297.537 842.899C297.134 842.825 296.445 842.661 295.298 842.376C290.772 841.209 283.153 840.191 276.594 838.6C274.521 838.079 269.698 836.517 263.325 835.483C262.92 835.502 252.879 833.933 249.861 831.692C249.387 831.309 250.226 830.819 242.987 828.163C241.613 827.631 243.947 828.964 240.372 827.424C237.506 826.166 234.271 824.45 230.961 822.545C228.102 820.901 225.045 819.309 221.978 817.938C220.86 817.426 215.885 815.635 212.28 813.148C211.721 812.758 213.002 813.098 211.007 811.968C206.19 809.206 201.094 806.099 196.729 801.731C193.176 798.224 188.884 794.758 185.032 790.868C182.258 788.006 184.03 789.131 181.309 785.954C178.676 782.977 173.945 775.907 173.486 770.585C173.461 770.421 173.436 770.261 173.411 770.105C172.774 765.912 172.359 770.593 171.772 764.259C170.914 745.839 168.701 726.587 180.294 708.402C185.885 701.486 191.498 694.51 197.495 687.729C200.23 684.683 197.71 686.996 201.819 682.54C207.304 676.681 214.725 669.474 223.777 663.494C239.413 653.057 257.545 644.19 269.101 639.827C283.6 634.512 265.714 642.059 276.736 637.926C282.055 635.969 287.667 633.207 289.013 632.8C289.639 632.6 290.273 632.405 290.875 632.226C302.573 628.739 311.18 626.616 322.043 623.369C324.406 622.663 321.978 622.959 323.986 622.364C330.848 620.328 338.145 618.443 344.773 616.641C347.75 615.835 347.123 615.696 349.878 615.005C356.475 613.362 362.376 612.075 368.973 611.027C369.572 610.933 365.632 612.092 370.595 611.119C371.482 610.95 372.419 610.779 373.353 610.618C380.708 609.358 389.361 607.69 397.408 605.753C400.101 605.108 400.059 604.419 405.984 603.693C407.229 603.547 405.816 604.631 412.491 602.623C413.603 602.271 424.91 599.22 430.664 598.911C432.204 598.816 436.075 598.856 439.359 598.248C439.804 598.163 437.955 598.081 440.685 597.628C441.955 597.419 443.19 597.222 444.489 597.02C452.909 595.711 461.656 594.518 470.215 593.265C472.85 592.88 468.872 593.037 472.797 592.477C483.594 590.935 497.108 589.291 507.726 588.137C511.639 587.714 508.974 588.344 509.26 588.343C512.844 588.343 515.229 587.725 516.812 587.346C517.295 587.233 517.699 587.142 518.043 587.094C527.474 585.781 534.772 585.508 543.439 584.649C545.837 584.41 544.104 584.211 544.578 584.137C549.495 583.383 545.864 584.349 549.006 584.13C555.378 583.683 562.242 583.012 568.933 582.277C571.44 582.002 573.977 581.713 576.402 581.432C579.654 581.054 575.953 581.054 578.87 580.719C596.171 578.713 614.139 576.624 631.039 574.784C634.214 574.438 632.256 574.995 632.927 574.985C637.551 574.925 644.161 573.41 645.679 573.153C652.65 571.974 655.374 571.907 661.548 571.05C663.783 570.739 666.135 570.411 668.434 570.086C681.165 568.358 694.308 566.139 708.036 563.725C725.335 560.99 742.593 559.134 757.309 557.502C770.942 555.993 783.16 554.108 794.893 551.197C816.49 547.731 835.408 545.309 856.733 538.201C858.847 537.507 856.581 537.808 858.407 537.198C863.71 535.418 868.946 533.489 874.112 531.417C892.132 524.14 910.159 517.028 927.622 508.663C929.453 507.769 926.627 508.699 929.568 507.236C934.621 504.721 940.538 501.507 945.679 498.285C946.666 497.676 947.624 497.077 948.547 496.493C951.326 494.721 947.836 497.456 950.628 495.654C957.118 491.44 963.766 486.386 969.805 481.17C972.37 478.941 968.218 481.966 971.561 479.086C975.913 475.303 980.14 471.371 984.25 467.337C997.061 454.761 1008.75 441.106 1020.77 427.29C1024.93 422.516 1028.98 417.655 1032.66 412.565C1033.84 410.901 1035.6 409.877 1037.66 406.049C1037.63 405.65 1037.39 405.532 1037.25 405.288C1038.58 402.944 1039.78 400.555 1040.8 398.122C1045.84 386.533 1052.54 376.854 1055.49 366.029C1058.33 355.947 1060.77 345.744 1063.44 335.473C1066.12 325.229 1068.3 314.703 1071.12 304.202C1073.27 296.182 1075.3 288.216 1076.9 280.133C1077.25 278.315 1076.22 281.374 1076.89 277.854C1078.15 271.213 1079.11 264.592 1079.78 257.95C1080.84 246.469 1084.47 235.448 1088.02 224.959C1089 221.981 1090.04 218.989 1091.11 215.999C1091.85 213.97 1092.19 215.258 1094.19 209.232C1094.52 208.163 1097.75 199.148 1098.53 196.791C1098.64 196.469 1097.65 197.963 1098.79 195.084C1101.3 188.818 1103.96 182.501 1107.46 176.257C1113.02 166.464 1119.18 155.621 1129.27 148.604C1129.39 148.517 1129.51 148.441 1129.61 148.374C1131.41 147.186 1129.47 148.976 1131.05 147.899C1141.04 141.073 1150.97 132.058 1162.58 126.496C1164.68 125.518 1166.78 124.737 1168.85 124.075C1178.07 121.425 1174.87 123.182 1179.87 122.649C1180.57 122.542 1186.33 121.603 1186.68 122.004C1187.53 122.856 1184.95 124.233 1186.19 125.095C1186.53 125.133 1193.5 124.609 1189.42 125.289C1189.16 125.263 1183.9 126.097 1182.64 126.577C1181.76 126.87 1183.45 126.935 1181.65 127.448C1179.86 127.974 1177.77 128.101 1174.85 129.127C1171.98 130.221 1173.27 130.087 1167.74 132.309ZM598.856 847.9C593.801 847.573 593.049 848.925 598.53 848.559C598.793 848.54 599.115 847.916 598.856 847.9ZM1215.38 843.813C1208.76 843.195 1204.19 844.053 1208.89 844.527C1213.55 845.001 1217.42 844.001 1215.38 843.813ZM1284.51 843.782C1276.61 843.249 1275.42 845.148 1283.82 844.831C1284.31 844.813 1284.97 843.813 1284.51 843.782ZM1158.3 130.902C1158.36 130.857 1162.02 128.84 1162.12 128.804C1163.89 127.343 1156.5 131.374 1158.3 130.902ZM1353.02 844.178C1350.56 843.874 1343.63 844.057 1346.63 844.428C1349.04 844.725 1356.06 844.554 1353.02 844.178ZM333.041 843.875C332.934 843.851 330.011 843.646 330.063 843.761C330.212 844.141 334.364 844.295 333.041 843.875ZM1469.4 848.546C1452.24 847.373 1441.89 845.253 1460.6 846.517C1463.99 846.755 1453.25 846.579 1457.57 846.98C1465.45 847.713 1470.75 847.071 1478.76 848.135C1480.22 848.329 1470.36 848.614 1469.37 848.547C1469.38 848.547 1469.39 848.546 1469.4 848.546ZM595.932 846.307C595.84 846.29 591.7 846.304 591.63 846.322C589.412 846.766 597.676 846.738 595.932 846.307ZM179.707 777.768C179.583 777.656 177.146 772.939 177.065 770.206C176.967 769.295 176.9 768.633 176.883 768.556C176.478 766.865 176.415 768.108 176.556 770.26C176.559 774.376 180.763 780.347 179.707 777.768ZM871.273 841.874C875.827 841.419 881.015 841.342 884.63 841.863C880.138 841.857 875.83 841.876 871.273 841.874Z" fill="#ED9F52"/>
<path d="M1162.83 457.02C1161.44 459.481 1159.88 462.133 1158.23 464.849C1154.3 471.386 1148.84 477.45 1144.15 481.884C1142.03 483.89 1142.92 482.687 1141.44 484.038C1138.53 486.661 1135.92 489.145 1133.03 491.59C1132.08 492.397 1132.98 491.075 1131.99 491.929C1130.92 492.844 1129.87 493.755 1128.85 494.669C1124.56 498.48 1120.44 502.249 1115.93 506.081C1105.11 515.308 1093.82 524.131 1081.69 531.633C1070.13 538.648 1057.57 541.161 1045.64 545.313C1036.97 548.149 1028.36 551.121 1019.66 554.172C1008.32 558.136 994.397 562.78 982.296 566.055C980.89 566.44 981.814 566.542 981.552 566.638C981.235 566.753 980.948 566.853 980.689 566.94C977.62 567.97 978.47 567.158 975.928 567.719C964.975 570.137 952.895 573.12 942.456 575.831C938.016 576.985 942.642 576.522 938.066 577.27C937.75 577.322 938.789 576.703 937.566 576.966C934.774 577.567 929.532 578.92 927.378 579.419C923.24 580.377 922.536 580.552 918.634 581.502C913.275 582.803 906.87 584.182 901.151 585.653C899.929 585.968 901.643 585.924 899.693 586.46C898.668 586.742 896.849 587.191 895.001 587.626C893.298 588.027 891.659 588.395 890.795 588.562C889.04 588.901 889.706 588.448 889.382 588.459C886.724 588.537 880.913 590.757 880.161 590.969C866.246 594.783 854.201 597.609 841.211 601.437C838.132 602.346 834.995 603.304 831.853 604.288C824.922 606.457 817.921 608.614 811.445 610.507C800.227 613.78 790.652 616.324 779.737 619.433C778.584 619.76 780.051 619.789 778.643 620.189C768.328 623.122 758.037 625.942 747.703 628.603C743.063 629.797 738.416 630.985 733.761 632.159C732.25 632.539 734.088 631.653 732.576 632.011C723.362 634.201 708.676 637.475 703.659 640.501C697.432 642.118 689.862 644.048 684.2 645.149C680.547 645.859 683.949 644.581 679.565 645.863C678.58 646.148 679.961 646.17 678.476 646.573C672.2 648.271 665.282 649.802 659.054 651.416C657.795 651.743 658.21 651.975 657.862 652.113C657.506 652.253 657.114 652.381 656.697 652.5C653.684 653.368 649.465 653.554 648.488 653.679C639.91 654.804 633.714 655.833 625.763 656.88C623.918 657.118 626.156 657.258 624.379 657.502C615.176 658.754 605.623 659.796 596.582 660.605C594.567 660.784 596.375 660.217 595.411 660.284C591.743 660.542 590.601 661.163 587.737 661.52C587.294 661.576 586.806 661.626 586.257 661.67C585.404 661.74 585.845 661.374 585.686 661.358C583.198 661.112 581.189 662.162 580.573 662.264C572.751 663.614 567.605 663.725 560.067 665.301C559.167 665.493 561.278 665.478 558.745 665.996C542.307 669.391 525.007 673.538 508.891 677.748C508.482 677.855 508.075 677.97 507.671 678.092C505.225 678.875 506.859 678.002 506.696 678.017C503.972 678.374 502.709 679.879 501.98 680.27C496.144 683.431 490.858 687.112 488.327 690.992C485.083 694.258 481.979 697.987 480.218 701.965C478.966 705.044 479.243 708.903 480.223 712.331C484.918 724.519 498.811 731.012 509.32 739.836C514.209 743.893 519.221 747.758 524.446 751.346C524.745 751.551 523.994 751.515 524.593 751.922C531.888 756.747 530.813 755.325 536.167 757.546C537.512 758.1 541.016 760.951 541.335 761.181C542.5 762.055 540.918 761.86 541.324 762.124C541.432 762.193 541.537 762.258 541.639 762.319C544.758 764.086 545.048 762.394 549.778 764.136C549.933 764.194 549.167 764.288 549.573 764.466C550.835 765.019 552.179 765.3 553.441 765.784C556.334 766.866 557.223 768.052 562.007 768.456C562.614 768.487 561.897 767.346 566.559 768.147C568.412 768.509 576.741 769.464 579.096 769.718C581.435 770.003 579.794 770.191 579.958 770.222C586.256 771.236 583.844 771.2 586.965 772.14C590.082 773.078 589.349 771.432 590.657 771.376C591.207 771.356 592.321 771.483 593.509 771.671C595.182 771.937 597.049 772.258 597.706 772.389C598.843 772.612 597.398 772.709 598.406 772.865C605.12 773.845 601.417 772.302 603.656 772.207C608.926 771.95 612.941 773.322 617.742 773.695C619.042 773.796 618.003 773.473 619.154 773.51C623.753 773.662 626.48 774.175 631.722 774.154C632.569 774.149 636.839 773.708 639.534 774.408C639.916 774.509 638.797 774.725 640.75 774.923C642.445 775.095 644.93 775.315 647.344 775.504C649.083 775.64 650.729 775.739 652.057 775.783C654.375 775.855 651.759 775.215 654.649 775.537C655.946 775.678 653.52 775.822 655.956 776.061C658.364 776.307 664.547 776.559 666.917 776.612C669.257 776.671 667.991 776.268 668.178 776.25C669.342 776.148 673.854 776.063 674.24 776.064C692.155 776.293 708.843 775.949 726.051 774.346C728.147 774.166 730.267 773.958 732.397 773.725C733.917 773.558 732.865 773.277 733.097 773.248C738.31 772.547 734.291 773.995 737.988 773.942C737.374 773.223 739.548 773.136 743.221 772.615C744.997 772.361 743.992 772.176 744.151 772.127C746.718 771.356 748.622 771.709 749.113 771.769C750.907 771.99 752.737 771.218 753.959 771.355C755.184 771.488 752.518 772.291 756.043 771.808C756.994 771.397 754.277 771.032 756.94 770.549C766.979 768.764 785.84 766.311 793.917 764.908C801.981 763.538 804.565 762.988 809.267 762.197C811.001 761.903 812.246 761.668 813.176 761.472C816.813 760.722 815.626 760.544 819.806 759.625C825.082 758.51 822.707 760.254 823.515 760.411C824.303 760.577 825.076 760.16 826.031 760.175C826.985 760.191 825.006 760.685 827.192 760.417C829.382 760.146 835.287 758.801 836.02 758.397C837.579 757.539 834.786 757.258 840.603 756.681C840.939 756.648 839.902 757.147 841.188 757.002C849.835 756.027 858.722 754.777 867.443 753.573C868.938 753.368 870.452 753.171 871.98 752.984C873.355 752.818 872.184 753.381 872.988 753.289C881.463 752.354 878.336 752.136 882.888 750.81C881.98 751.909 884.584 752.151 891.012 751.42C894.848 750.993 894.167 750.645 896.616 750.082C897.375 749.909 900.108 749.92 900.597 749.672C902.189 748.861 899.503 748.38 906.179 748.032C906.47 748.019 905.58 748.46 906.584 748.388C913.094 747.933 913.837 747.183 920.861 746.539C926.361 746.034 936.237 745.775 942.523 745.484C942.441 746.58 948.365 745.993 950.741 745.12C954.816 744.94 959.23 744.691 963.185 744.628C964.539 744.606 963.664 744.959 963.836 744.986C966.485 745.411 968.238 744.612 969.11 744.55C978.515 743.92 986.237 744.235 995.188 743.54C995.318 743.53 995.449 743.52 995.581 743.509C995.903 743.483 996.401 742.713 998.855 743.221C999.014 743.256 995.997 743.656 1000.31 743.605C1004.58 743.553 1012.71 743.855 1018.65 743.467C1020.11 743.371 1023.73 742.735 1026.67 743.208C1027.06 743.272 1026.64 743.491 1027.2 743.61C1029.01 743.991 1030.01 743.223 1032.15 743.872C1034.29 744.522 1038.74 745.009 1044.75 744.588C1044.94 744.576 1046.36 743.975 1048.25 743.996C1051.27 744.03 1055.54 744.19 1058.7 744.217C1060.21 744.23 1059.25 743.844 1059.51 743.839C1069.65 743.734 1076.86 744.175 1087.72 744.524C1089.71 744.588 1095.45 744.189 1099.29 744.683C1103.52 745.226 1099.12 746.97 1108.86 746.766C1112.77 746.688 1117.82 744.468 1124.82 745.891C1138.53 745.993 1151.1 747.051 1164.85 747.179C1165.45 747.184 1167.44 746.609 1168.89 746.68C1171.04 746.785 1172.19 747.141 1173.75 747.229C1180.09 747.598 1185.9 747.617 1192 747.96C1192.09 747.965 1192.18 747.97 1192.26 747.975C1194.65 748.113 1193.81 748.386 1196.6 748.552C1199.4 748.721 1201.28 748.407 1205.1 748.834C1207.94 749.158 1210.78 750.187 1214.56 750.538C1214.79 749.711 1217.36 749.893 1222.04 750.011C1222.92 750.032 1222 749.671 1222.42 749.666C1224.15 749.642 1225.76 750.007 1227.36 749.967C1227.77 749.959 1227.81 749.675 1228.15 749.652C1230.96 749.446 1235.41 750.473 1236.21 750.659C1239.16 751.347 1240.62 751.108 1242.87 751.492C1245.17 751.883 1241.7 751.758 1244.37 752.121C1249.83 752.863 1257.02 753.613 1262.6 754.353C1264.81 754.644 1263.35 754.068 1263.67 754.101C1268.32 754.609 1272.92 755.708 1275.59 755.316C1277.76 757.087 1278.26 756.383 1281.02 756.272C1281.02 756.273 1281.04 756.275 1281.04 756.277C1282.01 756.406 1283.23 756.668 1284.88 757.214C1285.38 757.379 1285.79 758.456 1283.8 758.067C1282.93 757.896 1281.9 757.593 1280.78 757.263L1280.94 757.291C1279.42 757.14 1277.75 756.875 1276.17 756.777C1275.51 756.739 1271.62 757.057 1271.11 757.037C1267.05 756.873 1266.68 755.424 1266.47 755.317C1264.18 754.162 1259.43 754.513 1258.24 754.439C1252.63 754.063 1248 753.382 1243.31 753.141C1240.27 752.987 1239.85 753.869 1237.5 753.629C1229.59 752.842 1226.92 751.36 1219.34 751.922C1217.67 752.043 1219.29 753.149 1213.53 751.976C1213.21 751.904 1208.9 750.906 1206.47 751.216C1206.16 751.255 1206.15 751.546 1205.74 751.546C1202.94 751.537 1201.22 751.205 1198.16 751.148C1196.24 751.114 1194.12 751.095 1191.85 751.011C1190.64 750.967 1189.4 750.903 1188.17 750.807C1186.09 750.645 1183.52 749.98 1182.51 749.799C1179.79 749.288 1176.71 749.778 1175.05 749.24C1173.33 748.699 1176.78 748.141 1172.2 747.641C1171.99 748.389 1171.57 749.148 1171.27 749.897C1161.32 749.444 1151.44 748.824 1141.44 748.518C1140.2 748.481 1141.46 748.93 1140.13 748.901C1134.48 748.777 1129.61 748.334 1123.76 748.279C1119.25 748.239 1114.28 748.534 1109.56 748.524C1106.7 747.584 1099.68 747.711 1094.6 747.526C1092.82 747.462 1092.94 747.233 1091.67 747.132C1086.9 746.758 1089.13 747.568 1087.81 747.663C1082.18 748.072 1081.73 746.331 1075.09 746.269C1074.74 746.265 1070.43 747.126 1069.84 747.176C1066.08 747.501 1069.22 746.846 1066.87 746.748C1062.57 746.57 1059.6 746.317 1054.55 746.544C1053.08 746.612 1049.55 747.16 1046.7 746.7C1046.33 746.64 1046.54 746.336 1046.23 746.317C1040.76 745.992 1040.63 746.954 1037.49 747.271C1034.37 747.589 1029.54 746.933 1028.56 746.745C1025.99 746.257 1030.52 746.53 1030.67 746.482C1032.31 745.904 1028.77 746.006 1026.1 745.967C1025.7 745.027 1021.93 745.1 1023.3 745.931C1023.45 746.021 1025.55 745.925 1026.1 745.967C1023.72 746.897 1019.6 747.033 1015.03 746.212C1012.9 745.829 1014.89 745.331 1008.41 745.579C1005.48 745.695 1006.6 746.327 1004.01 746.542C1001.37 746.762 998.299 746.794 995.256 746.787C991.448 746.78 987.597 746.716 984.242 746.863C982.024 746.96 984.202 747.252 982.676 747.332C978.642 747.546 975.092 747.396 971.049 747.681C970.682 747.707 971.593 748.044 970.333 748.096C960.82 748.498 952.484 748.648 942.576 749.218C937.764 749.49 929.21 750.262 924.239 750.602C915.624 751.171 904.989 751.587 897.684 752.495C892.934 753.084 893.978 753.351 891.99 753.826C888.115 754.744 881 754.755 880.074 754.748C880.02 754.748 884.144 754.132 881.91 754.225C880.579 753.996 880.121 754.74 880.074 754.748C879.418 754.731 871.256 755.782 869.648 756.117C868.766 756.29 869.315 756.562 868.859 756.646C868.552 756.702 868.249 756.758 867.948 756.813C857.317 758.773 846.63 760.375 835.786 761.719C835.591 761.74 835.828 761.309 835.372 761.362C828.91 762.094 824.868 763.159 819.69 764.328C817.613 764.799 815.71 765.204 813.967 765.523C811.319 766.009 809.026 766.246 807.076 766.203C803.102 767.042 797.316 767.788 793.984 768.186C790.655 768.586 790.321 769.416 790.034 769.481C781.048 771.504 775.713 771.922 766.267 773.261C761.763 773.902 752.867 775.242 747.987 775.925C744.137 776.471 741.783 776.567 738.232 777.075C737.754 777.143 738.275 777.428 738.13 777.457C734.183 778.292 736.018 777.255 735.182 777.194C732.373 776.98 730.56 776.883 726.306 777.405C725.972 777.446 725.605 777.494 725.2 777.548C724.033 777.706 720.736 779.193 718.577 779.433C715.791 779.74 716.814 779.233 713.89 779.549C713.648 779.574 713.69 779.839 711.899 779.948C703.49 780.465 694.285 780.679 685.536 780.788C684.343 780.802 685.881 781.21 684.149 781.234C676.028 781.347 667.125 781.147 659.24 780.57C657.292 780.426 658.529 780.191 658.109 780.083C655.559 779.43 651.847 779.97 651.233 779.942C649.797 779.885 648.414 779.815 647.029 779.73C634.697 778.973 624.565 777.901 611.369 777.497C610.576 777.475 604.38 777.955 601.667 777.051C601.471 776.99 598.809 776.084 596.345 776.36C596.193 776.376 597.873 776.906 594.883 776.591C594.318 776.53 593.675 776.468 592.996 776.402C590.228 776.129 586.509 775.918 583.273 775.305C582.005 775.063 579.04 774.094 575.142 774.265C574.899 774.294 568.766 774.9 566.749 773.668C566.423 773.457 566.93 772.633 562.249 772.314C561.351 772.244 562.914 772.755 560.566 772.444C556.957 771.956 552.311 770.594 547.858 769.478C547.089 769.3 543.611 768.712 541.298 767.042C540.939 766.782 541.816 766.863 540.519 766.182C540.287 766.058 540.054 765.933 539.822 765.806C534.285 762.768 528.413 759.7 523.077 756.053C521.121 754.706 522.414 754.938 520.432 753.465C518.442 751.997 514.475 749.016 512.29 747.637C510.099 746.26 511.835 748.632 508.735 746.308C507.772 745.579 506.821 744.841 505.878 744.095C495.734 735.613 481.622 729.96 475.119 713.83C474.657 712.207 474.351 710.575 474.195 708.891C474.074 705.982 473.653 708.485 473.963 704.001C474.129 702.706 474.435 701.297 475.029 699.835C480.879 687.285 495.057 675.712 507.458 672.678C509.146 672.254 510.663 671.9 512.069 671.594C521.171 669.652 509.971 673.059 516.887 671.412C520.22 670.624 523.582 668.783 524.355 668.556C532.116 666.274 537.668 665.383 544.738 663.662C546.198 663.309 544.675 663.254 545.922 662.958C550.179 661.946 554.708 661.171 558.806 660.333C560.643 659.958 560.249 659.735 561.951 659.433C566.024 658.713 569.653 658.197 573.685 657.83C574.052 657.797 571.658 658.549 574.687 658.081C578.391 657.515 582.804 657.05 587.187 656.524C588.579 656.356 589.976 656.167 591.342 655.947C592.995 655.681 592.989 655.006 596.616 655.072C597.375 655.085 596.512 655.994 600.598 654.837C601.285 654.645 608.169 652.923 611.662 653.118C612.584 653.17 614.97 653.552 616.95 653.205C617.218 653.156 616.091 652.93 617.74 652.693C623.545 651.861 629.637 651.104 635.555 650.111C637.132 649.844 634.721 649.828 637.073 649.439C642.714 648.5 649.578 647.4 655.268 646.201C656.132 646.019 656.966 645.844 657.764 645.676C660.088 645.187 658.558 645.856 658.732 645.851C661.573 645.759 663.007 644.662 663.888 644.411C669.416 642.844 673.737 642.148 678.848 640.774C680.26 640.394 679.168 640.305 679.443 640.204C682.281 639.172 680.267 640.333 682.133 639.932C687.356 638.809 693.12 637.268 698.334 635.824C700.252 635.293 697.989 635.477 699.706 635.005C709.883 632.197 720.497 629.303 730.526 626.808C732.412 626.339 731.315 626.963 731.725 626.926C734.558 626.676 738.317 624.948 739.232 624.634C742.23 623.595 743.929 623.239 746.121 622.696C746.867 622.512 747.672 622.304 748.613 622.037C766.357 617.003 788.346 611.003 805.092 606.22C814.11 603.647 822.292 601.296 830.214 598.946C841.567 595.58 852.523 592.523 864.849 589.208C866.183 588.85 864.727 588.802 865.882 588.488C875.104 585.988 884.333 583.762 893.528 581.551C899.135 580.198 904.754 578.828 910.393 577.407C911.612 577.1 909.762 577.143 911.708 576.639C915.73 575.597 920.834 574.372 924.938 573.496C926.94 573.068 924.342 574.055 926.372 573.614C931.07 572.593 936.038 571.4 940.822 570.152C942.851 569.621 939.69 569.985 942.322 569.329C954.615 566.26 966.71 563.19 978.976 560.214C984.599 558.853 990.2 557.306 995.863 555.64C997.087 555.279 998.404 555.718 1000.93 554.698C1001.05 554.415 1000.95 554.164 1000.96 553.904C1015.1 548.987 1029.24 543.802 1043.58 539.137C1054.88 535.272 1066.75 532.551 1076.44 527.117C1077.36 526.583 1075.57 527.136 1077.32 526.092C1077.53 525.965 1077.74 525.835 1077.95 525.704C1088.36 519.149 1097.77 511.767 1107.72 503.837C1108.72 503.038 1108.73 504.054 1111.53 501.477C1112.03 501.025 1116.27 497.162 1117.26 496.042C1117.39 495.891 1116.38 496.314 1117.74 495.083C1119.82 493.209 1121.92 491.305 1124.03 489.385C1130.12 483.856 1136.41 478.621 1141.78 473.098C1142.95 471.89 1142.02 473.465 1142.85 472.602C1146.19 469.128 1149.25 465.131 1151.79 460.944C1153.82 457.602 1155.8 454.313 1157.72 451.25C1160.65 446.519 1160.22 448.635 1162.19 446.333C1162.48 446.008 1164.02 442.947 1164.41 442.938C1165.47 442.904 1165.7 444.891 1166.91 444.685C1167.05 444.661 1167.57 443.52 1167.94 442.667C1168.31 441.788 1168.57 441.273 1168.26 442.87C1168.24 443.138 1166.89 446.455 1166.64 447.279C1166.48 447.868 1167.32 447.08 1166.9 448.245C1166.48 449.401 1165.56 450.431 1164.76 452.263C1163.94 454.094 1164.77 453.557 1162.83 457.02ZM778.977 769.894C775.861 770.022 775.617 771.423 778.88 770.575C779.037 770.532 779.138 769.887 778.977 769.894ZM1151.57 747.826C1147.51 747.084 1144.76 747.862 1147.58 748.42C1150.39 748.979 1152.8 748.052 1151.57 747.826ZM1193.5 749.222C1192.93 749.135 1192.41 749.087 1191.95 749.068C1189.01 748.949 1188.64 750.115 1191.89 750.246C1192.23 750.26 1192.61 750.263 1193.03 750.254C1193.33 750.247 1193.78 749.263 1193.5 749.222ZM1155.54 458.414C1155.58 458.388 1156.87 456.247 1156.88 456.188C1157.19 454.828 1154.62 459.101 1155.54 458.414ZM1235.03 751.542C1233.63 751.159 1229.33 751.106 1231.13 751.576C1232.63 751.955 1236.82 752.019 1235.03 751.542ZM617.837 774.358C617.79 774.336 615.999 774.222 616.028 774.337C616.134 774.708 618.629 774.738 617.837 774.358ZM1305 761.753C1303.98 761.788 1303.03 761.687 1302.14 761.578C1302.14 761.577 1302.13 761.576 1302.13 761.576C1293.52 759.968 1289.77 757.686 1299.76 759.8C1301.77 760.178 1295.33 759.533 1297.87 760.129C1299.44 760.502 1300.86 760.668 1302.23 760.756L1302.22 760.754C1304.77 760.703 1308.04 761.076 1307.72 757.846C1307.63 757.427 1308.42 758.555 1307.97 759.994C1307.36 761.53 1305.21 761.729 1304.98 761.756C1304.99 761.755 1304.99 761.754 1305 761.753ZM776.961 768.58C776.895 768.573 774.441 768.944 774.386 768.97C773.124 769.602 778.071 768.855 776.961 768.58ZM518.762 747.945C518.658 747.855 514.053 744.429 513.896 744.324C511.05 743.098 520.393 750.07 518.762 747.945ZM942.623 745.508C945.286 744.921 948.536 744.693 950.729 745.121C948.031 745.232 945.31 745.377 942.623 745.508Z" fill="#ED9F52"/>
<path d="M1170.67 560.326C1167.37 564.329 1162.67 569.579 1158.69 573.293C1158.64 573.338 1158.59 573.382 1158.55 573.426C1157.23 574.639 1157.72 573.836 1156.79 574.643C1154.96 576.197 1153.31 577.688 1151.36 578.992C1150.72 579.417 1151.27 578.548 1150.6 578.996C1146.92 581.442 1143.42 583.639 1139.47 585.591C1120.02 595.121 1099.18 598.975 1079.04 604.426C1078.51 604.586 1077.99 604.745 1077.49 604.903C1071.14 606.933 1063.67 609.062 1057.34 611.194C1056.54 611.464 1057.12 611.629 1056.97 611.703C1054.68 612.86 1055.29 611.967 1053.69 612.374C1047.34 613.98 1040.36 616.054 1034.36 617.954C1031.82 618.762 1034.57 618.639 1031.88 619.042C1031.7 619.071 1032.25 618.542 1031.53 618.712C1029.9 619.104 1026.9 620.04 1025.65 620.373C1023.25 621.008 1022.85 621.125 1020.59 621.769C1017.49 622.644 1013.77 623.518 1010.47 624.525C1009.78 624.738 1010.77 624.822 1009.74 625.182C1009.72 625.189 1009.7 625.196 1009.68 625.203C1008.58 625.574 1005.59 626.397 1004.57 626.607C1003.53 626.817 1003.89 626.42 1003.69 626.409C1002.08 626.304 998.832 628.045 998.402 628.191C990.395 630.867 983.326 632.468 975.675 634.565C971.734 635.645 967.613 636.808 963.624 637.862C961.718 638.366 959.897 638.835 958.096 639.277C951.486 640.896 945.789 642.055 939.352 643.562C938.665 643.722 939.565 643.952 938.727 644.147C929.884 646.21 921.044 648.042 912.124 649.496C911.221 649.643 912.304 649.051 911.401 649.175C905.901 649.948 897.152 650.777 894.193 652.925C892.473 653.193 890.533 653.491 888.696 653.749C886.601 654.042 884.553 654.398 882.813 654.668C880.71 655.012 882.591 654.068 880.121 654.952C879.566 655.157 880.4 655.279 879.566 655.562C876.053 656.758 872.213 658.106 868.85 659.702C868.167 660.026 868.481 660.241 868.305 660.377C866.827 661.496 863.748 661.972 863.114 662.174C860.466 663.036 858.239 663.877 855.996 664.671C854.229 665.298 852.497 665.992 850.588 666.776C849.6 667.184 850.928 667.093 849.989 667.501C845.143 669.63 840.114 672.02 835.866 674.704C834.947 675.31 835.556 674.421 835.103 674.703C834.596 675.025 834.239 675.333 833.979 675.621C833.409 676.364 833.456 676.903 833.051 678.216C832.951 678.606 832.683 678.335 832.636 678.403C832.314 678.907 832.303 679.472 832.398 679.927C832.515 680.462 832.806 680.812 832.839 680.969C833.104 682.188 833.547 683.133 834.135 683.848C835.65 685.593 837.369 687.096 840.02 688.224C840.497 688.419 839.596 687.596 840.925 688.155C847.909 690.979 856.044 691.912 863.913 693.644C866.088 694.141 868.261 694.574 870.414 694.951C871.927 695.211 870.802 695.354 870.892 695.404C872.383 696.185 873.497 695.539 873.996 695.568C877.941 695.806 881.602 696.684 884.344 695.916C894.944 696.654 905.636 696.526 916.289 697.106C922.401 697.42 928.57 697.628 934.711 697.969C934.924 697.979 934.54 698.354 934.965 698.374C940.082 698.608 939.106 698.015 942.484 697.297C943.333 697.117 945.931 697.972 946.159 698.034C946.997 698.264 946.132 698.829 946.412 698.873C948.736 699.215 948.345 697.364 951.468 697.338C951.566 697.341 951.158 697.685 951.42 697.717C952.238 697.817 953.043 697.673 953.842 697.783C955.67 698.036 956.331 698.931 959.113 698.369C959.464 698.296 958.914 697.253 961.702 697.262C962.816 697.267 967.74 697.166 969.117 697.206C970.501 697.247 969.558 697.604 969.657 697.617C973.377 697.991 971.978 698.205 973.85 698.829C975.732 699.449 975.174 697.883 975.928 697.69C976.69 697.498 979.423 697.802 980.088 697.913C980.761 698.025 979.928 698.261 980.529 698.319C984.48 698.692 982.245 697.491 983.535 697.206C984.564 696.975 985.558 696.95 986.477 697.021C988.291 697.154 989.944 697.632 991.801 697.639C992.557 697.642 991.927 697.399 992.604 697.348C995.27 697.15 996.896 697.445 999.917 696.965C1000.41 696.887 1002.84 696.061 1004.44 696.491C1004.68 696.553 1004.05 696.879 1005.2 696.883C1006.9 696.89 1009.96 696.782 1011.8 696.58C1013.13 696.431 1011.56 696.04 1013.27 696.091C1014.04 696.114 1012.64 696.476 1014.08 696.495C1015.47 696.517 1019.11 696.294 1020.46 696.206C1021.85 696.116 1021.07 695.796 1021.18 695.765C1021.82 695.587 1024.49 695.258 1024.69 695.247C1036.47 694.527 1047.24 694.559 1058.68 693.768C1059.57 693.707 1058.95 693.354 1059.09 693.341C1062.16 693.023 1059.77 694.167 1061.97 694.398C1061.63 693.634 1062.86 693.713 1065.02 693.519C1066.07 693.424 1065.48 693.151 1065.58 693.116C1067.14 692.578 1068.21 693.118 1068.49 693.225C1069.52 693.62 1070.62 693.039 1071.34 693.301C1072.06 693.562 1070.45 694.08 1072.56 693.97C1073.14 693.662 1071.56 693.01 1073.12 692.815C1076.02 692.45 1080.22 692.275 1084.39 692.169C1088.44 692.069 1092.53 692.038 1094.91 691.956C1099.75 691.789 1101.18 691.672 1104.03 691.641C1109.01 691.594 1107.16 691.138 1110.29 690.746C1113.44 690.353 1111.94 691.755 1112.41 692.02C1112.86 692.286 1113.32 691.97 1113.87 692.102C1114.42 692.234 1113.26 692.482 1114.54 692.483C1115.81 692.484 1119.38 691.811 1119.79 691.493C1120.71 690.816 1119.1 690.223 1122.5 690.303C1122.7 690.307 1122.08 690.686 1122.83 690.687C1128.86 690.683 1134.99 690.421 1140.95 690.39C1141.77 690.386 1141.06 690.808 1141.54 690.81C1146.54 690.833 1144.69 690.259 1147.38 689.407C1146.82 690.405 1148.33 690.931 1152.13 690.764C1154.37 690.666 1153.97 690.26 1155.41 689.896C1155.84 689.786 1157.46 690.004 1157.74 689.792C1158.67 689.097 1157.12 688.437 1161.04 688.55C1161.21 688.556 1160.69 688.937 1161.27 688.932C1165.05 688.902 1165.47 688.2 1169.61 687.929C1172.77 687.721 1178.62 687.87 1182.23 687.773C1182.2 688.867 1185.65 688.459 1187.03 687.643C1189.45 687.563 1191.96 687.405 1194.28 687.403C1195.07 687.402 1194.57 687.741 1194.67 687.771C1196.23 688.235 1197.24 687.456 1197.76 687.403C1203.26 686.87 1207.89 687.212 1213.14 686.425C1213.33 686.397 1213.6 685.625 1215.05 686.112C1215.14 686.146 1213.4 686.572 1215.91 686.482C1218.46 686.391 1223.11 686.58 1226.6 686.065C1227.44 685.941 1229.54 685.227 1231.25 685.627C1231.48 685.682 1231.24 685.911 1231.58 686.016C1232.65 686.351 1233.19 685.559 1234.47 686.15C1235.74 686.742 1238.4 687.105 1241.85 686.492C1241.96 686.474 1242.75 685.828 1243.85 685.785C1245.61 685.718 1248.13 685.725 1249.96 685.633C1250.83 685.589 1250.26 685.239 1250.41 685.225C1256.27 684.733 1260.53 684.866 1266.85 684.706C1268.01 684.678 1271.34 684.001 1273.59 684.299C1276.07 684.623 1273.62 686.597 1279.28 685.879C1281.57 685.59 1284.33 683.103 1288.5 684.115C1296.46 683.42 1303.86 683.675 1311.81 682.841C1312.17 682.804 1313.28 682.092 1314.13 682.058C1315.38 682.009 1316.09 682.28 1316.98 682.255C1320.72 682.157 1324.15 681.719 1327.78 681.574C1329.15 681.518 1328.68 681.859 1330.32 681.793C1331.95 681.726 1333.02 681.253 1335.25 681.339C1336.94 681.406 1338.67 682.17 1340.89 682.153C1340.93 681.309 1342.45 681.247 1345.15 680.883C1345.67 680.813 1345.1 680.55 1345.34 680.501C1346.34 680.298 1347.28 680.491 1348.23 680.277C1348.46 680.225 1348.46 679.938 1348.64 679.88C1350.24 679.372 1352.92 679.878 1353.39 679.966C1355.15 680.3 1355.95 679.883 1357.3 679.98C1358.65 680.077 1356.66 680.394 1358.23 680.412C1361.49 680.45 1365.64 680.181 1368.94 680.017C1370.26 679.95 1369.34 679.615 1369.53 679.597C1372.24 679.353 1375.01 679.611 1376.47 678.766C1378.46 680.636 1378.1 678.486 1382.01 678.669C1382.31 678.684 1382.75 679.595 1381.59 679.796C1380.42 679.997 1378.62 679.803 1377.01 680.105C1376.62 680.176 1374.46 681.17 1374.16 681.239C1371.82 681.781 1371.41 680.406 1371.28 680.336C1369.82 679.587 1367.17 680.673 1366.46 680.777C1363.23 681.249 1360.45 681.201 1357.73 681.559C1355.96 681.791 1355.83 682.713 1354.44 682.759C1349.8 682.912 1348.09 681.724 1343.77 683.058C1342.85 683.342 1343.83 684.292 1340.43 683.682C1340.22 683.644 1337.68 683.056 1336.26 683.585C1336.08 683.652 1336.1 683.942 1335.86 683.979C1334.26 684.22 1333.18 684.044 1331.44 684.245C1329.7 684.446 1327.63 684.718 1325.62 684.723C1324.41 684.725 1322.84 684.263 1322.26 684.159C1320.62 683.86 1318.91 684.575 1317.89 684.163C1316.85 683.75 1318.79 682.943 1316.13 682.777C1316.07 683.538 1315.88 684.325 1315.76 685.093C1309.9 685.363 1304.19 685.405 1298.32 685.731C1297.6 685.772 1298.36 686.141 1297.59 686.196C1294.32 686.423 1291.43 686.276 1288.03 686.559C1285.4 686.78 1282.57 687.351 1279.8 687.595C1278.07 686.813 1274 687.306 1271.04 687.37C1270 687.394 1270.06 687.159 1269.31 687.12C1266.5 686.977 1267.85 687.677 1267.09 687.835C1263.83 688.507 1263.47 686.79 1259.61 687.019C1259.41 687.031 1256.94 688.073 1256.6 688.147C1254.42 688.627 1256.22 687.844 1254.84 687.842C1252.32 687.837 1250.62 687.698 1247.66 688.11C1246.8 688.231 1244.77 688.903 1243.09 688.538C1242.87 688.49 1242.97 688.179 1242.8 688.17C1239.6 688.023 1239.58 688.984 1237.76 689.395C1235.94 689.806 1233.09 689.277 1232.51 689.114C1230.99 688.691 1233.65 688.849 1233.73 688.797C1234.66 688.176 1232.6 688.372 1231.04 688.397C1230.77 687.469 1228.59 687.628 1229.42 688.427C1229.52 688.514 1230.73 688.369 1231.04 688.397C1229.72 689.382 1227.31 689.614 1224.59 688.878C1223.33 688.533 1224.48 688.008 1220.71 688.356C1219 688.514 1219.7 689.13 1218.2 689.376C1214.71 689.942 1210.23 689.545 1206.64 689.806C1205.34 689.901 1206.63 690.196 1205.74 690.273C1203.38 690.479 1201.3 690.309 1198.96 690.553C1198.75 690.575 1199.29 690.922 1198.56 690.96C1192.94 691.262 1188.13 691.244 1182.3 691.504C1179.54 691.627 1174.45 692.064 1171.58 692.154C1166.51 692.315 1160.33 692.056 1155.99 692.384C1153.19 692.595 1153.83 692.937 1152.65 693.244C1150.34 693.839 1146.17 693.149 1145.62 693.038C1145.6 693.034 1148.01 692.838 1146.71 692.706C1145.95 692.343 1145.65 693.035 1145.62 693.038C1145.28 692.966 1140.41 693.102 1139.46 693.216C1138.94 693.278 1139.24 693.616 1138.97 693.642C1132.59 694.247 1126.02 694.634 1119.54 694.765C1119.42 694.763 1119.58 694.363 1119.31 694.363C1115.43 694.365 1113.14 694.951 1109.97 695.383C1106.81 695.814 1104.43 695.828 1102.49 695.242C1100.1 695.438 1096.77 695.294 1094.77 695.207C1092.81 695.117 1092.59 695.894 1092.42 695.917C1089.41 696.336 1086.98 696.426 1084.59 696.454C1082.7 696.481 1080.78 696.477 1078.47 696.56C1075.77 696.657 1070.56 697.025 1067.76 697.249C1065.47 697.43 1064.11 697.319 1062.07 697.538C1061.78 697.568 1062.09 697.893 1062 697.911C1059.67 698.438 1060.76 697.548 1060.27 697.424C1058.51 696.973 1057.44 696.739 1054.47 697.148C1053.81 697.241 1051.86 698.543 1050.61 698.679C1048.99 698.854 1049.63 698.39 1047.9 698.586C1047.75 698.602 1047.79 698.865 1046.74 698.91C1041.88 699.118 1036.56 699.255 1031.51 699.566C1030.83 699.607 1031.72 699.978 1030.74 700.044C1026.09 700.356 1020.91 700.64 1016.36 700.706C1015.22 700.722 1015.91 700.387 1015.66 700.314C1014.15 699.871 1012.06 700.761 1011.71 700.795C1003.37 701.638 996.899 701.293 988.345 701.897C988.161 701.911 987.492 702.067 986.629 702.208C985.36 702.42 983.677 702.596 982.698 702.196C982.584 702.152 980.987 701.471 979.605 702C979.518 702.033 980.514 702.381 978.793 702.386C977.076 702.39 974.303 702.703 971.938 702.342C971.183 702.229 969.404 701.544 967.184 702.159C967.037 702.202 963.616 703.562 962.37 702.683C962.168 702.538 962.364 701.587 959.706 702.111C959.198 702.212 960.125 702.412 958.786 702.562C956.733 702.793 954.008 702.57 951.484 703.014C951.045 703.093 949.169 703.753 947.663 703.272C947.427 703.197 947.874 702.877 947.077 702.846C943.292 702.697 939.341 702.913 935.492 702.674C934.127 702.589 934.833 702.081 933.414 701.934C931.994 701.787 929.139 701.624 927.652 701.833C926.163 702.043 927.765 702.888 925.541 702.913C922.383 702.944 919.193 702.869 916.04 702.7C909.633 702.353 903.24 701.978 896.746 701.77C895.322 701.723 896.493 702.046 894.388 701.996C886.652 701.885 872.889 701.371 866.115 699.388C860.735 697.883 867.672 698.808 863.555 697.812C863.397 697.772 863.238 697.739 863.077 697.71C861.33 697.406 859.363 697.889 858.933 697.84C854.288 697.337 851.057 696.388 846.752 695.465C845.859 695.268 846.636 695.862 845.873 695.686C843.26 695.077 840.568 694.039 838.081 692.963C836.964 692.47 837.046 692.835 836.027 692.29C833.845 691.087 831.925 689.664 830.259 687.666C830.017 687.387 829.794 687.095 829.592 686.792C829.419 686.518 831.059 688.072 829.418 685.848C828.314 684.116 827.822 682 827.872 679.904C827.943 677.786 828.263 675.067 830.203 672.663C830.411 672.41 830.574 672.198 830.724 671.996C831.147 671.364 831.286 670.743 833.049 669.971C833.51 669.788 833.437 670.748 835.276 668.782C835.567 668.434 838.898 665.468 841.061 665.104C841.629 664.997 843.176 664.975 844.226 664.377C844.368 664.293 843.619 664.241 844.514 663.79C847.587 662.258 850.918 660.936 854.213 659.658C854.31 659.62 854.408 659.581 854.505 659.543C855.339 659.206 853.955 659.316 855.199 658.822C858.611 657.46 863.02 655.617 866.614 654.26C867.94 653.761 867.152 654.42 867.261 654.412C868.997 654.29 869.637 653.246 870.142 653.002C873.271 651.511 875.912 650.956 878.993 649.958C879.844 649.687 879.139 649.524 879.301 649.444C881.013 648.648 879.844 649.627 880.995 649.389C883.144 648.957 885.439 648.481 887.721 648.082C888.816 647.89 889.876 647.697 890.932 647.501C892.062 647.291 890.707 647.108 891.743 646.92C897.789 645.814 904.065 644.71 909.989 643.786C911.105 643.613 910.469 644.057 910.714 644.082C912.407 644.265 914.603 643.128 915.124 642.956C917.508 642.171 918.504 642.251 920.646 641.754C931.101 639.331 944.045 636.555 953.914 634.233C956.804 633.555 959.527 632.914 962.2 632.276C971.344 630.091 979.428 628.011 988.812 625.235C989.579 625.008 988.689 624.83 989.347 624.63C995.584 622.75 1001.77 620.97 1008.07 619.194C1010.4 618.539 1012.69 617.882 1015.02 617.186C1015.72 616.978 1014.6 616.884 1015.72 616.537C1018.03 615.817 1020.97 614.998 1023.35 614.443C1024.52 614.17 1023.07 614.943 1024.24 614.66C1026.95 614.009 1029.84 613.198 1032.57 612.326C1033.73 611.956 1031.85 612.086 1033.37 611.633C1043.72 608.534 1053.82 605.359 1064.36 602.507C1065.07 602.312 1065.96 602.893 1067.42 602.251C1067.46 601.996 1067.37 601.742 1067.35 601.494C1070.05 600.586 1072.75 599.684 1075.45 598.783C1088.3 594.848 1100.58 592.652 1112.79 588.769C1113.42 588.573 1112.21 588.499 1113.42 588.116C1120.41 585.89 1127 583.332 1133.83 580.518C1134.51 580.233 1134.51 581.104 1136.39 580.015C1136.73 579.833 1139.55 578.197 1140.18 577.624C1140.27 577.545 1139.58 577.53 1140.47 576.999C1144.96 574.319 1149.37 571.21 1153.09 567.703C1153.68 567.138 1154.27 566.572 1154.86 566.004C1155.57 565.313 1155.12 566.34 1155.63 565.849C1159.25 562.353 1162.58 557.961 1166.1 554.452C1168.5 552.103 1168.17 553.467 1169.86 552.607C1170.08 552.488 1171.63 551.006 1171.98 551.234C1172.79 551.788 1172.78 553.187 1173.74 553.691C1173.84 553.744 1174.3 553.337 1174.59 553.179C1174.74 553.096 1174.83 553.07 1174.87 553.112C1174.91 553.156 1174.92 553.241 1174.79 553.495C1174.78 553.497 1173.67 554.709 1173.48 555.187C1173.35 555.494 1174.01 555.371 1173.69 555.925C1173.37 556.484 1172.64 556.785 1172.05 557.731C1171.45 558.69 1172.11 558.593 1170.67 560.326ZM1085.98 694.812C1084.19 694.529 1083.99 695.886 1085.89 695.473C1085.98 695.451 1086.07 694.825 1085.98 694.812ZM1304.16 684.389C1301.77 683.915 1300.2 684.867 1301.89 685.242C1303.58 685.616 1304.89 684.533 1304.16 684.389ZM1328.58 682.715C1325.81 682.389 1325.47 684.318 1328.4 683.781C1328.57 683.75 1328.74 682.734 1328.58 682.715ZM1164.6 558.827C1164.63 558.819 1165.59 557.726 1165.6 557.687C1165.79 556.818 1163.85 559.01 1164.6 558.827ZM1352.81 680.98C1351.94 680.767 1349.48 681.195 1350.56 681.46C1351.43 681.672 1353.89 681.244 1352.81 680.98ZM991.9 698.293C991.872 698.274 990.826 698.294 990.85 698.406C990.936 698.769 992.385 698.613 991.9 698.293ZM1394.02 678.724C1387.93 678.991 1384.15 677.619 1390.79 677.431C1391.99 677.396 1388.23 678.076 1389.77 678.133C1392.58 678.237 1394.38 677.146 1397.27 677.516C1397.79 677.584 1394.37 678.713 1394.01 678.727C1394.01 678.726 1394.02 678.725 1394.02 678.724ZM1084.88 693.245C1084.87 693.24 1084.68 693.243 1084.44 693.249C1083.99 693.263 1083.37 693.289 1083.35 693.302C1082.87 693.587 1083.8 693.657 1084.45 693.572C1084.84 693.519 1085.12 693.406 1084.88 693.245ZM930.835 698.304C930.756 698.267 927.396 698.186 927.292 698.217C925.53 698.892 932.315 699.059 930.835 698.304ZM1182.29 687.8C1183.84 687.298 1185.73 687.161 1187.03 687.642C1185.44 687.686 1183.86 687.754 1182.29 687.8Z" fill="#ED9F52"/>
<path d="M1162.5 646.172C1160.7 646.153 1158.29 645.921 1156.44 645.701C1155.86 645.633 1156.16 645.402 1155.76 645.345C1154.96 645.233 1154.25 645.338 1153.46 645.217C1153.2 645.176 1153.53 644.803 1153.26 644.768C1151.77 644.585 1150.36 644.678 1148.85 644.605C1141.39 644.253 1134.01 644.391 1126.43 644.625C1123.93 644.702 1120.86 644.544 1118.29 644.866C1117.99 644.904 1118.19 645.223 1118.14 645.254C1117.27 645.732 1117.52 645.044 1116.93 644.995C1114.58 644.804 1111.98 644.968 1109.75 645.276C1108.8 645.408 1109.81 645.987 1108.82 645.696C1108.76 645.677 1108.97 645.306 1108.7 645.29C1108.08 645.256 1107 645.411 1106.52 645.425C1105.62 645.448 1105.5 645.462 1104.65 645.535C1103.5 645.63 1102.14 645.583 1100.91 645.788C1100.65 645.832 1101.03 646.156 1100.62 646.259C1100.24 646.359 1099.09 646.45 1098.75 646.404C1098.74 646.402 1098.72 646.401 1098.71 646.399C1098.37 646.342 1098.49 646.059 1098.42 646.003C1097.82 645.517 1096.62 646.414 1096.46 646.451C1093.48 647.101 1090.86 646.954 1088.03 647.255C1085.88 647.484 1083.6 647.862 1081.55 648.044C1079.12 648.258 1077.02 648.257 1074.66 648.498C1074.41 648.523 1074.74 648.92 1074.44 648.951C1071.19 649.284 1067.95 649.492 1064.7 649.433C1064.37 649.427 1064.76 649.026 1064.43 648.997C1062.43 648.832 1059.24 648.295 1058.16 649.982C1057.46 649.991 1056.7 650.001 1055.95 649.974C1055.24 649.947 1054.56 649.893 1053.97 649.774C1053.2 649.618 1053.91 649.159 1052.98 649.402C1052.77 649.456 1053.07 649.79 1052.76 649.845C1051.43 650.078 1049.96 650.098 1048.66 650.423C1048.4 650.49 1048.51 650.799 1048.44 650.864C1047.85 651.394 1046.71 650.758 1046.47 650.732C1044.66 650.539 1043.39 650.886 1041.76 651.134C1041.38 651.192 1041.89 651.543 1041.53 651.614C1039.66 651.978 1037.7 652.297 1035.83 652.483C1035.41 652.524 1035.71 652.09 1035.51 652.092C1034.61 652.103 1034.56 652.817 1033.71 652.849C1033.53 652.857 1033.56 652.531 1033.52 652.504C1032.91 652.087 1032.64 652.928 1032.52 652.973C1030.96 653.56 1029.74 653.031 1028.21 653.526C1028.03 653.586 1028.54 653.865 1028.02 654.011C1026.81 654.353 1025.57 654.686 1024.32 655.005C1022.02 655.592 1019.68 656.152 1017.46 656.693C1016.93 656.822 1017.2 656.417 1017.15 656.393C1016.43 656.038 1016.34 656.883 1016.18 656.971C1014.95 657.637 1013.47 657.545 1012.99 658.764C1010.79 659.612 1008.67 660.778 1007.3 662.291C1007.25 662.363 1007.22 662.391 1007.21 662.561C1007.2 662.724 1007.25 662.991 1007.35 663.276C1007.56 663.852 1007.97 664.493 1008.44 665.009C1009.48 666.159 1010.81 667.125 1012.27 668.013C1012.34 668.05 1012.07 668.345 1012.2 668.419C1013.78 669.277 1013.69 668.592 1014.98 668.248C1015.31 668.161 1015.94 669.221 1016.01 669.303C1016.24 669.599 1015.81 670.071 1015.89 670.139C1016.62 670.678 1016.9 668.845 1017.95 669.061C1017.99 669.071 1017.78 669.377 1017.86 669.429C1018.12 669.589 1018.42 669.508 1018.68 669.674C1019.26 670.053 1019.35 670.985 1020.41 670.613C1020.54 670.563 1020.51 669.5 1021.47 669.68C1021.85 669.757 1023.58 669.94 1024.06 670.052C1024.54 670.169 1024.17 670.473 1024.21 670.491C1025.48 671.064 1024.96 671.2 1025.57 671.921C1026.18 672.637 1026.13 671.049 1026.41 670.896C1026.7 670.744 1027.63 671.187 1027.87 671.332C1028.1 671.478 1027.78 671.671 1027.99 671.759C1029.36 672.332 1028.66 671.021 1029.14 670.803C1030.27 670.284 1031.05 671.502 1032.05 671.675C1032.32 671.721 1032.11 671.443 1032.36 671.432C1033.32 671.391 1033.88 671.787 1034.98 671.512C1035.16 671.467 1036.09 670.813 1036.63 671.359C1036.71 671.438 1036.46 671.717 1036.87 671.804C1037.47 671.935 1038.57 672.06 1039.23 672.001C1039.72 671.957 1039.19 671.445 1039.8 671.63C1040.06 671.712 1039.54 671.963 1040.05 672.095C1040.36 672.177 1040.98 672.233 1041.52 672.271C1041.85 672.293 1042.15 672.309 1042.34 672.318C1042.83 672.342 1042.59 671.96 1042.63 671.938C1042.88 671.814 1043.84 671.707 1043.93 671.714C1048.15 671.987 1051.96 672.98 1056.07 673.152C1056.39 673.167 1056.21 672.764 1056.26 672.762C1057.37 672.702 1056.41 673.64 1057.15 674.051C1057.11 673.264 1057.55 673.447 1058.33 673.431C1058.71 673.423 1058.53 673.104 1058.57 673.076C1059.17 672.669 1059.49 673.293 1059.58 673.422C1059.91 673.898 1060.36 673.409 1060.58 673.727C1060.8 674.043 1060.19 674.43 1060.93 674.489C1061.16 674.229 1060.67 673.455 1061.25 673.385C1063.41 673.126 1067.32 674.003 1069.03 674.176C1070.73 674.352 1071.28 674.334 1072.27 674.496C1074.05 674.785 1073.43 674.205 1074.56 674.02C1075.68 673.833 1075.07 675.133 1075.22 675.428C1075.36 675.722 1075.55 675.437 1075.74 675.604C1075.93 675.771 1075.49 675.944 1075.95 676.027C1076.41 676.109 1077.7 675.661 1077.88 675.369C1078.25 674.751 1077.71 674.062 1078.92 674.349C1078.99 674.366 1078.74 674.706 1079.01 674.753C1081.13 675.113 1083.35 675.205 1085.48 675.498C1085.77 675.538 1085.5 675.921 1085.67 675.949C1087.43 676.241 1086.83 675.569 1087.81 674.859C1087.58 675.825 1088.09 676.432 1089.46 676.459C1089.47 676.459 1089.47 676.459 1089.48 676.459C1089.5 676.459 1089.54 676.457 1089.55 676.456C1090.34 676.37 1090.16 675.967 1090.65 675.62C1090.79 675.515 1091.4 675.746 1091.48 675.537C1091.76 674.855 1091.15 674.182 1092.56 674.333C1092.63 674.341 1092.47 674.715 1092.68 674.716C1094.05 674.724 1094.15 674.03 1095.62 673.809C1096.77 673.637 1098.85 673.867 1100.17 673.822C1100.24 674.912 1101.46 674.557 1101.9 673.766C1102.76 673.726 1103.67 673.608 1104.51 673.646C1104.79 673.659 1104.63 673.989 1104.67 674.02C1105.26 674.511 1105.57 673.752 1105.75 673.709C1107.73 673.275 1109.4 673.707 1111.26 673.028C1111.33 673.003 1111.38 672.239 1111.93 672.755C1111.97 672.79 1111.36 673.18 1112.26 673.142C1113.16 673.104 1114.87 673.389 1116.09 672.952C1116.39 672.846 1117.11 672.179 1117.75 672.616C1117.84 672.675 1117.76 672.898 1117.89 673.011C1118.3 673.369 1118.45 672.59 1118.94 673.208C1119.43 673.826 1120.4 674.247 1121.62 673.711C1121.66 673.695 1121.91 673.068 1122.31 673.049C1122.94 673.02 1123.84 673.083 1124.5 673.031C1124.81 673.006 1124.58 672.644 1124.64 672.634C1126.21 672.36 1127.46 672.416 1128.94 672.447C1128.95 672.447 1128.95 672.447 1128.96 672.447C1129.44 672.481 1129.98 672.514 1130.54 672.536C1130.97 672.552 1132.15 672.009 1132.96 672.4C1133.86 672.827 1132.98 674.695 1135.01 674.217C1135.83 674.027 1136.82 671.662 1138.32 672.86C1141.17 672.522 1143.82 673.123 1146.7 672.674C1146.82 672.654 1147.22 671.996 1147.53 672.003C1147.98 672.015 1148.23 672.32 1148.55 672.338C1149.9 672.424 1151.14 672.156 1152.43 672.192C1152.92 672.205 1152.76 672.522 1153.34 672.538C1153.92 672.553 1154.32 672.135 1155.12 672.334C1155.72 672.486 1156.33 673.337 1157.12 673.434C1157.15 672.593 1157.7 672.609 1158.67 672.385C1158.86 672.342 1158.66 672.049 1158.75 672.014C1159.11 671.862 1159.44 672.104 1159.79 671.939C1159.87 671.9 1159.87 671.612 1159.94 671.564C1160.51 671.14 1161.48 671.785 1161.64 671.897C1162.26 672.323 1162.56 671.949 1163.04 672.117C1163.52 672.285 1162.81 672.496 1163.37 672.597C1164.53 672.807 1166.03 672.76 1167.21 672.772C1167.68 672.776 1167.36 672.392 1167.43 672.384C1168.41 672.286 1169.39 672.694 1169.93 671.93C1170.61 673.905 1170.52 671.738 1171.92 672.133C1172.03 672.165 1172.17 673.099 1171.74 673.236C1171.32 673.373 1170.68 673.081 1170.1 673.295C1169.96 673.346 1169.16 674.221 1169.06 674.274C1168.21 674.689 1168.09 673.293 1168.04 673.216C1167.53 672.389 1166.56 673.333 1166.31 673.398C1165.14 673.697 1164.14 673.502 1163.17 673.716C1162.53 673.855 1162.47 674.769 1161.96 674.741C1160.3 674.651 1159.71 673.377 1158.14 674.486C1157.81 674.722 1158.14 675.721 1156.93 674.938C1156.86 674.888 1155.96 674.172 1155.44 674.628C1155.37 674.686 1155.38 674.977 1155.29 675.001C1154.72 675.161 1154.33 674.93 1153.71 675.044C1153.09 675.157 1152.32 675.325 1151.61 675.229C1151.19 675.172 1150.62 674.632 1150.42 674.5C1149.84 674.12 1149.21 674.751 1148.85 674.289C1148.49 673.825 1149.19 673.114 1148.24 672.819C1148.21 673.575 1148.13 674.352 1148.08 675.113C1145.99 675.099 1143.93 674.868 1141.83 674.922C1141.57 674.929 1141.84 675.333 1141.56 675.352C1140.39 675.428 1139.35 675.149 1138.14 675.28C1137.19 675.384 1136.18 675.829 1135.19 675.954C1134.59 675.098 1133.12 675.419 1132.06 675.364C1131.69 675.345 1131.71 675.114 1131.44 675.044C1130.45 674.79 1130.93 675.543 1130.66 675.671C1129.9 676.033 1129.56 675.387 1129.03 674.941L1129.14 674.935C1128.86 674.725 1128.52 674.568 1128.06 674.617C1127.99 674.625 1127.16 675.613 1127.04 675.68C1126.28 676.112 1126.88 675.369 1126.39 675.338C1125.48 675.28 1124.84 675.106 1123.8 675.451C1123.5 675.553 1122.81 676.18 1122.18 675.778C1122.09 675.726 1122.12 675.419 1122.05 675.405C1120.89 675.189 1120.93 676.147 1120.29 676.517C1119.66 676.887 1118.61 676.297 1118.39 676.121C1117.82 675.667 1118.79 675.882 1118.81 675.832C1119.11 675.233 1118.39 675.384 1117.82 675.375C1117.67 674.443 1116.89 674.554 1117.24 675.369C1117.27 675.458 1117.7 675.34 1117.82 675.375C1117.39 676.329 1116.54 676.507 1115.52 675.715C1115.05 675.343 1115.44 674.844 1114.09 675.112C1113.48 675.233 1113.77 675.861 1113.24 676.076C1112.03 676.566 1110.38 676.081 1109.1 676.272C1108.64 676.341 1109.12 676.66 1108.81 676.719C1107.97 676.878 1107.21 676.67 1106.38 676.871C1106.31 676.89 1106.52 677.245 1106.26 677.27C1104.28 677.468 1102.53 677.371 1100.46 677.542C1099.46 677.624 1097.69 677.986 1096.65 678.042C1094.85 678.137 1092.59 677.815 1091.07 678.102C1090.08 678.287 1090.34 678.634 1089.93 678.93C1089.9 678.957 1089.86 678.981 1089.82 679.003C1089.74 679.009 1089.52 679.023 1089.44 679.02C1088.57 679.355 1087.24 678.526 1087.05 678.392C1087.04 678.388 1087.91 678.318 1087.46 678.118C1087.19 677.716 1087.06 678.391 1087.05 678.392C1086.91 678.302 1085.18 678.177 1084.82 678.237C1084.63 678.271 1084.73 678.625 1084.63 678.636C1082.29 678.886 1079.94 678.89 1077.58 678.617C1077.54 678.608 1077.62 678.218 1077.52 678.201C1076.16 677.963 1075.25 678.397 1074.11 678.621C1072.96 678.842 1072.07 678.693 1071.45 677.978C1070.59 678.01 1069.39 677.631 1068.7 677.402C1068.01 677.172 1067.86 677.928 1067.8 677.939C1065.83 678.283 1064.75 677.76 1062.76 677.529C1061.81 677.418 1059.92 677.367 1058.89 677.359C1058.07 677.353 1057.61 677.131 1056.85 677.177C1056.74 677.183 1056.81 677.532 1056.78 677.542C1055.91 677.872 1056.39 677.079 1056.23 676.915C1055.66 676.32 1055.3 675.997 1054.21 676.152C1053.96 676.187 1053.14 677.316 1052.69 677.344C1052.1 677.378 1052.36 676.971 1051.74 677.018C1051.69 677.022 1051.67 677.287 1051.3 677.241C1049.57 677.03 1047.69 676.705 1045.9 676.583C1045.65 676.565 1045.93 677.011 1045.58 676.992C1044.16 676.919 1042.65 676.8 1041.25 676.588C1041 676.551 1040.75 676.51 1040.51 676.466C1040.12 676.392 1040.39 676.113 1040.3 676.021C1039.81 675.46 1039 676.184 1038.88 676.191C1035.88 676.389 1033.62 675.584 1030.51 675.729C1030.35 675.739 1029 676.48 1028.46 675.734C1028.42 675.684 1027.91 674.924 1027.36 675.379C1027.32 675.408 1027.65 675.806 1027.03 675.721C1026.41 675.637 1025.37 675.803 1024.54 675.314C1024.28 675.16 1023.69 674.382 1022.82 674.865C1022.76 674.901 1021.33 676.046 1020.97 675.092C1020.92 674.935 1021.13 674.01 1020.07 674.352C1019.86 674.418 1020.18 674.678 1019.66 674.736C1018.86 674.823 1017.87 674.403 1016.83 674.625C1016.65 674.665 1015.8 675.148 1015.31 674.53C1015.23 674.434 1015.48 674.167 1015.18 674.059C1013.77 673.546 1012.17 673.29 1010.74 672.468C1010.24 672.173 1010.71 671.818 1010.23 671.454C1009.74 671.09 1008.76 670.427 1008.1 670.278C1007.42 670.124 1007.59 671.22 1006.7 670.692C1005.91 670.211 1005.15 669.614 1004.46 668.923C1003.46 667.884 1002.71 666.796 1002.15 665.248C1001.88 664.468 1001.65 663.544 1001.72 662.351C1001.76 661.181 1002.31 659.664 1003.26 658.682C1004.24 657.678 1005.25 656.952 1006.23 656.303C1006.75 655.968 1006.16 655.999 1006.93 655.507C1009.75 653.675 1014.5 651.653 1017.08 651.492C1019.15 651.357 1016.85 652.48 1018.37 652.214C1019.1 652.088 1019.59 650.954 1019.75 650.876C1020.93 650.294 1021.93 650.199 1022.98 649.972C1023.33 649.897 1023.68 649.805 1024.05 649.675C1024.35 649.569 1023.95 649.275 1024.21 649.189C1025.08 648.891 1026.07 648.817 1026.92 648.573C1027.3 648.463 1027.16 648.195 1027.52 648.13C1028.38 647.971 1029.16 647.911 1030.06 647.987C1030.14 647.994 1029.71 648.468 1030.34 648.336C1031.37 648.121 1032.69 648.106 1033.81 647.585C1034.15 647.43 1034.03 646.768 1034.87 647.07C1035.05 647.133 1035.01 647.963 1035.75 647.106C1035.88 646.963 1037.19 645.755 1038.03 646.221C1038.25 646.344 1038.86 646.907 1039.26 646.732C1039.32 646.706 1039.03 646.389 1039.37 646.295C1040.6 645.967 1041.91 645.799 1043.18 645.504C1043.52 645.425 1042.95 645.128 1043.46 645.022C1044.86 644.729 1046.64 644.604 1048.04 644.573C1048.55 644.562 1048.23 644.907 1048.27 644.937C1048.93 645.418 1049.2 644.649 1049.4 644.586C1050.61 644.209 1051.58 644.475 1052.71 644.297C1053.02 644.249 1052.77 643.915 1052.83 643.879C1053.46 643.525 1053.02 644.191 1053.44 644.232C1054.14 644.302 1054.89 644.292 1055.63 644.252C1056.1 644.226 1056.56 644.185 1057 644.142C1057.41 644.101 1056.92 643.72 1057.29 643.688C1059.48 643.491 1061.76 643.384 1063.92 643.46C1064.33 643.475 1064.09 643.806 1064.18 643.872C1064.79 644.334 1065.6 643.588 1065.79 643.509C1066.65 643.147 1067.02 643.398 1067.8 643.287C1071.61 642.739 1076.34 642.508 1079.96 642.269C1084.68 641.957 1088.37 641.862 1092.86 641.293C1093.15 641.257 1092.81 640.872 1093.06 640.836C1094.72 640.601 1096.38 640.437 1098.04 640.268C1099.56 640.113 1101.09 639.967 1102.64 639.763C1102.91 639.729 1102.49 639.37 1102.9 639.302C1103.75 639.162 1104.88 639.082 1105.77 639.132C1106.21 639.155 1105.65 639.545 1106.1 639.561C1107.11 639.602 1108.22 639.538 1109.23 639.393C1109.66 639.33 1108.97 638.979 1109.54 638.928C1113.46 638.575 1117.26 638.238 1121.24 638.519C1121.52 638.538 1121.81 639.346 1122.37 639.154C1122.4 638.923 1122.38 638.655 1122.38 638.409C1128.06 637.939 1133.7 637.957 1139.41 637.83C1139.65 637.824 1139.22 637.4 1139.69 637.387C1142.39 637.315 1145.02 637.14 1147.8 637.55C1148.08 637.591 1147.93 638.36 1148.75 638.239C1148.89 638.216 1150.11 638.11 1150.43 637.944C1150.47 637.919 1150.25 637.56 1150.64 637.55C1152.94 637.497 1155.35 637.611 1157.64 637.905C1158.01 637.954 1157.6 638.322 1157.87 638.36C1159.71 638.625 1161.8 638.441 1163.58 638.931C1164.77 639.265 1164.24 639.884 1164.83 640.591C1164.92 640.69 1165.66 640.781 1165.65 641.162C1165.64 642.117 1165.19 643.116 1165.22 644.139C1165.23 644.358 1166.16 644.228 1165.57 644.691C1165.53 644.722 1164.84 644.824 1164.66 644.986C1164.53 645.097 1164.7 645.501 1164.45 645.635C1164.19 645.769 1163.97 645.424 1163.56 645.577C1163.16 645.732 1163.3 646.181 1162.5 646.172ZM1065.6 676.364C1064.98 675.948 1064.78 677.282 1065.51 677.015C1065.54 677.001 1065.63 676.385 1065.6 676.364ZM1143.93 673.855C1143.08 673.268 1142.51 674.146 1143.11 674.599C1143.71 675.052 1144.19 674.033 1143.93 673.855ZM1152.7 673.372C1151.71 672.908 1151.56 674.817 1152.62 674.427C1152.68 674.405 1152.76 673.399 1152.7 673.372ZM1161.89 640.544C1161.9 640.563 1162.43 640.615 1162.44 640.598C1162.75 640.191 1161.7 640.086 1161.89 640.544ZM1161.41 672.879C1161.1 672.622 1160.21 672.921 1160.6 673.242C1160.91 673.499 1161.8 673.2 1161.41 672.879ZM1032.04 672.333C1032.03 672.312 1031.66 672.272 1031.66 672.386C1031.66 672.752 1032.19 672.679 1032.04 672.333ZM1176.22 672.85C1174.03 672.778 1172.71 671.202 1175.09 671.38C1175.52 671.412 1174.16 671.883 1174.71 672.025C1175.71 672.284 1176.38 671.294 1177.4 671.824C1177.59 671.921 1176.34 672.858 1176.22 672.853C1176.22 672.852 1176.22 672.851 1176.22 672.85ZM1065.35 674.724C1065.34 674.705 1064.83 674.648 1064.81 674.664C1064.5 675.069 1065.54 675.184 1065.35 674.724ZM1010.92 667.779C1010.9 667.739 1009.93 667.137 1009.88 667.136C1008.96 667.409 1011.04 668.702 1010.92 667.779ZM1100.2 673.85C1100.73 673.372 1101.4 673.265 1101.9 673.766C1101.33 673.784 1100.77 673.827 1100.2 673.85Z" fill="#ED9F52"/>
</svg>
