<svg width="128" height="131" viewBox="0 0 128 131" fill="none" xmlns="http://www.w3.org/2000/svg">
<path d="M2.68379 99.009C2.67375 96.0521 2.70606 92.642 2.75867 89.2142C2.83213 85.8853 2.54718 82.425 2.54412 79.0719C2.54396 78.8887 2.54672 78.7323 2.55148 78.5938C2.60502 77.2504 2.81634 77.9571 2.84862 76.7319C2.92649 74.1048 2.8467 71.6786 3.02805 69.1077C3.09056 68.2552 3.43699 69.3269 3.49463 68.436C3.71881 65.1481 3.81938 62.0665 4.17823 58.6694C4.36876 56.9976 4.67385 55.314 5.02516 53.6996C5.30791 52.3964 5.59897 51.1276 5.88578 49.8573C7.37517 43.4505 8.9355 37.4391 11.5322 30.9629C12.9894 27.9387 13.491 24.748 14.8311 20.6616C15.8055 17.9807 16.8447 14.9311 18.0936 12.138C19.3148 9.66969 20.0883 7.0912 23.6183 4.77696C24.3649 4.35908 25.2738 4.32655 25.8435 4.45428C26.4346 4.57816 26.8207 4.78584 27.1381 4.98194C27.7604 5.38539 28.1355 5.78511 28.4972 6.27474C32.2798 12.7892 31.0941 18.3436 31.6012 23.853C31.6491 24.9992 31.6693 26.1311 31.6805 27.2599C31.7246 32.3885 31.4776 38.1539 31.3301 43.7787C31.2433 47.1223 31.1342 50.3977 31.1297 53.4647C31.1284 54.4328 31.4715 53.8615 31.4952 54.0459C31.8621 56.9298 31.2097 55.9617 31.0966 57.8399C30.9621 60.1451 30.8781 62.5267 30.8452 64.9372C30.7866 68.2673 31.3591 71.2274 32.8202 74.2882C32.6934 73.9616 32.4077 73.6901 32.2381 73.5937C32.0617 73.4877 31.9803 73.4757 31.9532 73.4665C31.9037 73.4567 32.0233 73.4737 32.1793 73.4703C32.0903 73.4839 32.3441 73.4284 32.6644 73.1164C32.9833 72.82 33.3276 72.3823 33.6413 71.9081C35.0252 69.574 33.0667 71.6374 34.7266 69.3413C34.8389 69.1722 34.8271 69.9849 35.2138 69.2923C35.5338 68.7127 35.9161 67.9058 36.2865 67.0401C36.6802 65.9301 37.137 63.9313 37.3654 63.0946C38.0859 60.3611 38.1832 59.9021 38.7833 57.2821C39.4246 54.4716 40.2345 51.2544 40.9029 48.1162C41.0888 47.2433 41.2755 46.3788 41.4559 45.5353C41.6371 44.6947 41.0194 45.7184 41.2825 44.3701C41.5349 43.0113 42.5436 39.5167 42.9473 38.4112C43.3467 37.2929 43.4841 37.854 43.6027 37.6695C43.9301 37.164 44.1797 36.3723 44.3403 35.5285C44.6728 33.7954 44.7484 31.8202 44.811 31.4739C45.7359 26.5184 46.5831 22.0486 47.9785 17.3856C49.085 13.8287 51.0061 10.3254 52.9459 7.3296C53.3117 6.72909 53.6902 6.1386 54.0953 5.54541C55.2407 3.87616 56.5649 2.20651 58.2552 0.776316C58.579 0.508139 58.9609 0.257926 59.5138 0.100931C60.0374 -0.04949 60.9331 -0.104763 61.7282 0.468965C62.5622 1.10077 62.7809 1.79264 62.9486 2.25446C63.1048 2.73743 63.1758 3.12581 63.2429 3.48832C63.3699 4.20685 63.4565 4.81698 63.5813 5.37894C64.2116 9.11818 64.2254 12.2795 64.3254 15.462C64.3898 18.6743 64.3608 21.6733 64.2997 24.626C64.2197 28.9658 63.8158 33.2343 63.3806 37.6796C63.3259 38.3202 63.6573 37.8446 63.7333 38.1779C63.7495 38.2529 63.7536 38.3712 63.7393 38.545C63.4329 42.1043 63.1031 45.5385 62.932 48.998C62.7089 52.9062 62.5084 56.7279 62.4013 60.5853C62.2949 63.6487 62.0253 66.5269 61.8582 69.4459C61.7971 70.4731 61.465 69.1359 61.3829 70.162C61.3233 70.9344 61.261 71.7569 61.2041 72.6223C60.826 78.6352 59.8494 86.3145 60.8744 89.9019C60.922 90.0672 60.9735 90.2263 61.0289 90.3778C60.7407 94.6539 60.4624 99.8593 60.0115 103.686C59.7231 106.154 59.3896 103.738 59.4742 106.784C59.494 107.471 59.8735 106.589 59.8769 107.618C59.8812 108.75 59.8714 109.909 59.8588 111.078C59.8489 111.977 59.8384 112.724 59.8341 113.574C59.8339 113.646 59.8334 113.796 59.8337 113.889C59.8341 113.996 59.8343 114.045 59.8363 114.171C59.8372 114.218 59.8386 114.249 59.839 114.252C59.8374 114.249 59.8447 114.257 59.8214 114.105C59.8135 114.062 59.805 114.008 59.7706 113.895C59.7152 113.779 59.7393 113.614 59.3168 113.173C59.1092 112.963 58.5995 112.666 58.0236 112.723C57.452 112.775 57.1118 113.067 56.9485 113.235C56.769 113.431 56.7408 113.503 56.6963 113.576C56.6569 113.646 56.6325 113.7 56.6135 113.745C56.4923 114.066 56.5209 114.065 56.5066 114.114C56.5015 114.147 56.5014 114.151 56.5016 114.148C56.5046 114.117 56.513 113.998 56.5185 113.902C56.5406 113.517 56.5595 113.073 56.5745 112.687C56.6388 111.02 56.6768 109.383 56.6726 107.789C56.6688 106.921 56.341 107.144 56.2935 106.894C55.9113 104.795 56.8104 101.364 56.8951 100.612C57.2727 97.2264 57.4184 94.3386 57.5459 91.4653C57.6453 89.3757 57.9512 87.3479 58.2228 85.2325C58.3677 84.0359 57.78 85.3929 57.8947 84.254C57.9113 84.0783 57.9267 83.903 57.9405 83.7292C58.1626 81.1567 58.6304 78.7398 59.0918 76.3306C59.4426 74.3545 59.3603 71.5623 59.5852 69.0814C59.6677 67.9885 59.7415 66.9028 59.8073 65.8277C59.8868 64.4938 60.2187 65.7291 60.2742 65.0943C60.498 62.275 59.8099 61.6547 59.9084 58.9635C59.9248 58.3966 60.2446 58.7066 60.2763 58.6022C60.7719 56.9571 59.9291 55.59 59.8854 55.1801C59.7754 54.1794 59.6882 53.1204 59.598 52.4348C59.2257 48.7182 59.7315 46.3176 59.6317 42.9531C59.623 42.3987 59.6077 41.8041 59.5826 41.2085C59.5565 40.5826 59.187 41.995 59.1401 40.2475C58.9629 32.9149 59.0695 25.3373 59.1082 17.9042C59.0484 13.7827 59.2959 9.13037 58.1634 6.0485C58.1702 6.04343 58.1658 6.08641 58.3485 6.2309C58.5228 6.40081 59.0639 6.46777 59.237 6.37514C59.4371 6.30225 59.4588 6.25282 59.4759 6.23599C59.4952 6.20089 59.4436 6.22888 59.4142 6.23926C59.3448 6.27025 59.3031 6.25691 59.2842 6.21058C59.2514 6.10877 59.2692 5.96913 59.24 5.97402C58.999 6.00621 58.706 6.38176 58.5495 6.67501C58.3809 6.98617 58.2848 7.3021 58.2244 7.59124C58.1038 8.17262 58.1249 8.65005 58.0286 8.92182C57.7646 9.657 57.4919 10.3864 57.1451 11.1328C56.2405 13.0411 55.4453 14.996 54.4846 16.7648C53.9125 17.843 53.5332 18.9439 53.3829 20.0047C52.997 20.8083 52.622 21.6317 52.2393 22.4644C50.7222 25.7533 49.2309 29.021 47.6628 32.31C46.5184 34.8596 45.9787 38.146 45.1943 41.2757C44.595 43.7534 44.1507 46.4258 43.4781 49.0443C42.7749 51.8104 42.2649 54.6185 41.7367 57.4862C41.3201 59.7296 40.9106 61.9333 40.6528 64.1401C40.3476 66.641 39.7032 69.0017 38.8455 71.2989C38.3244 72.6022 37.9376 73.9018 36.9786 75.3038C36.7933 75.5446 36.8039 74.9012 36.438 75.352C36.406 75.3887 36.3717 75.4264 36.338 75.4618C35.7784 76.0314 35.1287 76.0535 34.6816 76.0598C34.0327 76.0556 33.4931 75.8075 33.1122 75.5145C30.8805 73.1306 30.988 73.0727 29.2987 70.458C29.1496 70.2159 29.0291 69.791 28.9123 69.3202C28.5143 67.9745 28.5472 66.3039 28.5501 66.1118C28.5519 65.0858 29.3304 65.9662 29.3003 65.6335C29.1404 62.9804 27.3651 63.6114 27.0634 59.9624C27.0582 59.8498 27.4335 60.2965 27.4451 59.9928C27.4557 59.7243 27.4472 59.4587 27.43 59.1976C27.3858 58.5279 27.2972 57.8642 27.3422 57.1962C27.4956 55.0699 28.3599 54.2928 27.7145 51.108C27.633 50.7053 26.5982 51.3616 26.5426 48.1501C26.5181 46.8672 26.345 41.21 26.3291 39.6572C26.3102 38.1373 26.7083 39.1525 26.7174 39.0401C26.7243 38.918 26.7281 38.7703 26.7336 38.6684C26.6791 35.0396 27 36.3375 27.2939 34.2098C27.58 32.0011 26.1314 32.8423 25.8202 31.9938C25.7496 31.797 25.6906 31.4705 25.6469 31.0771C25.5096 29.801 25.4721 27.824 25.4706 27.231C25.4741 26.4579 25.842 27.3624 25.802 26.6791C25.4526 22.5136 24.7473 24.5086 24.2271 23.8296C24.1805 23.7849 24.1328 23.7211 24.0819 23.636C22.5449 21.3749 21.5424 18.5503 20.7289 15.765C20.6508 15.5144 20.5614 15.2651 20.4587 15.018C20.1226 14.2367 20.1851 14.9738 19.8267 14.3172C19.1951 13.2056 18.5727 12.1546 17.9743 11.6326C17.8959 11.5719 17.8514 11.5622 17.8581 11.5586C17.8667 11.5548 17.8581 11.5392 17.7907 11.5895C17.6582 11.6875 17.4783 11.9695 17.3465 12.2827C17.0742 12.9232 16.8936 13.7297 16.7643 14.6745C16.7089 15.0198 16.7539 16.2035 16.5171 17.5494C16.3682 18.3635 16.1348 19.1939 15.7641 19.8307C15.6284 20.0622 15.5258 19.28 15.1419 20.5276C14.7744 21.7342 14.2696 23.5742 14.0653 25.2953C13.9473 26.2632 13.8225 27.1818 13.7368 27.9254C13.5502 29.4783 14.3264 27.7926 13.841 29.708C13.6203 30.5558 13.6324 28.9149 13.2389 30.5081C13.045 31.2903 12.7534 32.682 12.4864 34.0749C12.2125 35.4985 12.0065 36.9303 11.8997 37.7214C11.6904 39.2815 12.1714 38.479 12.1779 38.608C12.2242 39.3831 11.9275 42.447 11.8582 42.7157C11.8513 42.7536 11.8444 42.7917 11.8374 42.83C11.1953 46.4378 10.8581 50.0966 10.4085 53.7118C10.0684 56.463 9.57621 59.1525 9.0397 61.8125C8.46736 64.7231 7.96575 67.7105 7.25489 70.6559C6.6736 73.0307 6.35173 75.4507 5.95598 77.9587C5.78507 79.0031 5.6809 80.087 5.5732 81.1838C5.47149 82.2128 5.9311 81.5725 5.91953 81.73C5.62897 85.2901 5.00708 82.4091 4.28316 84.7429C4.28028 84.7515 4.2774 84.7601 4.27452 84.7687C4.29921 84.7625 4.32282 84.7578 4.34536 84.7545C4.45346 84.7385 4.53734 84.7545 4.60049 84.8019C4.96948 85.0745 4.6348 86.3555 4.51954 88.3898C4.45664 89.5731 4.81538 88.9555 4.83618 89.0657C5.15255 90.8405 4.50861 92.032 4.36862 92.3446C3.86261 93.492 4.33189 94.7952 3.9974 95.5826C3.72343 96.2293 3.43458 95.0767 3.28387 95.9947C3.25212 96.1871 3.2247 96.4701 3.20356 96.8889C3.44749 97.5678 4.26789 95.8421 4.29204 97.654C4.32869 100.279 4.23451 103.76 4.23968 107.37C4.23975 107.528 4.24149 107.683 4.24716 107.817C4.24984 107.883 4.2549 107.949 4.257 107.97C4.25384 107.971 4.26991 107.996 4.22128 107.855C4.19604 107.799 4.20138 107.779 4.09136 107.618C4.02727 107.539 3.99915 107.478 3.78501 107.334C3.59487 107.208 3.26492 107.129 2.99494 107.187C2.71326 107.247 2.60123 107.344 2.51533 107.407C2.42843 107.477 2.3868 107.527 2.35983 107.559C2.3016 107.631 2.28212 107.668 2.26742 107.693C2.19372 107.843 2.24922 107.735 2.25878 107.693C2.27731 107.636 2.29785 107.566 2.3183 107.493C2.3595 107.346 2.40134 107.187 2.44518 107.022C3.5501 102.869 4.46148 98.6269 5.13108 95.6568C5.24938 95.1228 5.34395 94.6166 5.42349 94.1627C6.31705 88.7757 6.56982 86.9899 7.23254 83.8687C7.41247 83.0255 7.54503 82.3701 7.64683 81.8158C8.11485 78.7445 7.52418 79.7428 7.59274 76.7209C7.62982 73.1315 8.81861 74.9687 9.14485 74.4783C9.46995 73.9961 9.22043 73.4208 9.43029 72.8061C9.64053 72.1951 9.71762 73.5628 9.90393 72.1004C10.0176 71.2084 10.0217 69.3561 9.99864 67.9161C9.9816 66.9963 9.95073 66.2432 9.8669 66.0227C9.42128 64.831 8.45162 66.506 9.35238 62.6858C9.40404 62.4676 9.62583 63.2431 9.80586 62.4046C9.92982 61.8183 10.0476 61.2322 10.1492 60.6465C10.6313 58.0767 11.4261 55.7342 11.8337 53.2568C12.4337 50.0272 12.8062 46.7986 13.0451 43.5634C13.0869 43.037 13.129 42.5007 13.1712 41.9727C13.2461 41.0339 13.5982 41.8901 13.6458 41.3461C14.1302 35.6612 13.3865 37.6705 12.7758 34.5241C13.7206 35.2617 14.3759 33.5546 14.5417 29.2346C14.6453 26.6358 14.2033 27.077 13.9789 25.377C13.925 24.9617 14.1609 23.696 14.181 23.0435C14.1856 22.8888 14.1766 22.7706 14.1451 22.7028C13.6609 21.5436 12.5371 23.1517 13.7036 18.6878C13.7594 18.4973 13.9732 19.1885 14.1407 18.5261C14.3733 17.6201 14.5355 16.8915 14.6347 16.2533C15.042 13.8306 14.7688 12.6466 15.7763 8.93996C15.7773 8.9366 15.7783 8.93322 15.7792 8.92983C15.9232 8.55344 16.0068 7.75982 17.0284 7.06895C17.9314 6.50493 19.0044 6.65195 19.6605 6.89787C20.355 7.14989 20.8947 7.50208 21.4005 7.86974C24.8746 10.8466 24.9348 15.0211 25.9944 17.6145C25.5928 17.7157 25.5591 18.3069 25.7519 19.0679C26.092 20.3276 26.7989 22.1343 27.4349 23.0678C27.7421 24.8429 27.9683 26.6854 28.2104 28.4535C28.3488 29.4704 28.4279 30.4685 28.4686 31.4223C28.5054 32.3405 28.1429 31.7629 28.118 31.8811C27.7143 33.6797 28.5071 34.8163 28.5743 35.4044C28.7181 36.7682 28.8257 38.0744 28.9303 39.3476C29.3148 44.0439 29.379 48.2953 30.0628 53.0685C30.0832 53.2086 30.4181 53.3882 30.5232 53.9522C30.5795 54.2478 30.5712 54.6511 30.4212 55.2267C30.3932 55.3366 29.8894 53.37 30.0918 56.2083C30.2526 58.2545 30.4097 61.6643 30.5594 64.8999C30.6182 66.1185 30.8445 67.2966 31.195 68.3259C31.4113 69.0182 32.2229 70.3279 32.6914 71.8945C32.8254 72.3693 32.9242 72.8493 32.9635 73.3223C32.9847 73.5838 32.6872 73.3913 32.6954 73.7801C32.7255 74.6423 33.1944 75.0903 33.5142 75.6667C33.5442 75.7082 33.576 75.906 34.014 75.8986C34.0558 75.8964 34.0996 75.8902 34.1453 75.8789C35.8384 75.5893 37.522 72.3281 37.5725 68.4792C37.5848 68.3526 37.1295 67.3104 37.4159 66.0665C37.4744 65.8168 37.5412 65.5549 37.6172 65.285C38.1237 63.4092 39.105 61.1881 39.8314 59.4981C40.224 58.5682 39.6244 59.0154 39.6865 58.8513C40.4886 56.805 41.1955 54.9659 41.8058 53.141C42.6451 50.6995 43.3954 48.3063 44.6476 45.8199C45.3579 44.4718 45.8502 42.924 46.2294 41.1975C46.4023 40.462 46.5052 38.8964 46.8349 37.2318C47.0859 35.9707 47.4291 34.6593 47.8903 33.6255C49.0817 31.0111 50.0344 34.2989 51.4463 27.9722C51.7705 26.5464 51.5401 24.72 51.6765 22.6404C51.7716 21.0028 52.1207 19.2057 53.248 17.37C53.418 16.7452 53.5952 16.1262 53.7803 15.513C54.464 13.1662 54.9435 10.8448 55.8257 8.68345C56.3193 7.42853 57.4528 6.52574 58.7255 6.12508C58.8347 6.05191 59.2367 6.35734 59.4448 6.70439C60.748 8.70184 60.8095 11.2904 61.1556 13.7959C61.3371 15.2405 61.4419 16.7097 61.5498 18.2086C61.5806 18.6194 62.2627 19.9121 62.2876 20.8755C62.3083 21.7164 62.2304 22.3375 62.1718 22.9189C62.1309 23.3339 62.0947 23.7164 62.1087 24.145C62.2448 28.4525 62.5319 32.4022 62.5303 36.5556C62.5593 38.0121 62.2166 37.6446 62.3312 39.0894C62.3511 39.2068 62.3743 39.3359 62.401 39.4789C62.7271 41.3121 63.2919 42.5284 63.2234 45.093C63.1638 47.0295 62.3159 48.9529 62.3173 51.5408C62.5706 51.5606 62.7525 51.7317 62.8948 52.0478C63.2242 52.7886 63.3687 54.2945 63.7344 56.4556C63.8343 57.0478 64.0645 56.3798 64.1269 56.659C64.3873 57.7918 64.2515 58.8813 64.518 59.9562C64.5825 60.219 64.8696 60.2045 64.9381 60.417C65.539 62.2293 65.1292 65.3457 65.0456 65.8751C64.9476 66.5607 64.9271 67.1144 64.9409 67.614C64.9688 68.5911 65.172 69.3305 65.1572 70.3619C65.1306 71.9113 64.714 69.6398 64.7712 71.4362C64.7855 71.9843 64.7988 72.5531 64.7992 73.1368C64.8295 76.5419 64.9629 80.4893 64.9798 83.713C64.9894 85.2216 65.3639 84.1895 65.3742 84.4053C65.445 86.227 65.3278 88.0533 65.3608 89.6125C65.385 90.7293 65.4602 91.6982 65.7305 92.4481C63.5525 94.43 65.9164 94.3893 64.485 98.7249C64.4417 98.853 64.2677 98.9628 64.0785 98.9772C63.9811 98.9839 63.8796 98.9652 63.7901 98.9092C63.5992 98.7892 63.4645 98.496 63.5414 97.9314C63.7362 96.5973 64.4165 94.723 64.3309 92.8714C64.3359 92.4286 63.5479 89.9356 63.4829 89.6008C63.4827 89.5998 63.4826 89.5988 63.4824 89.5979C63.0873 86.9008 64.4724 86.5131 64.5506 86.3728C65.3792 84.7425 64.3976 81.645 64.3139 80.8378C64.0377 78.033 64.0081 75.5734 63.856 73.1715C63.8121 72.4148 63.7249 71.6643 63.6018 70.9048C63.3282 69.2257 62.6245 68.8435 62.3644 67.7559C62.3153 67.5587 62.2823 67.3401 62.2714 67.0821C62.0292 61.8281 63.0449 59.8811 61.4859 54.9289C61.2028 53.9708 60.4283 54.8145 60.6361 52.1533C60.6674 51.8161 60.7177 51.4262 60.7917 50.9704C60.8237 50.7137 61.4815 47.7887 60.9716 46.1893C60.907 45.9877 60.6164 46.0053 60.5813 45.7399C60.3439 43.9724 60.5048 42.799 60.1218 40.991C60.0251 40.5493 59.9117 40.0919 59.7837 39.6264C59.3688 37.0763 59.4478 35.7625 59.4699 33.9322C59.5183 32.5583 60.0335 30.7945 60.1512 30.1381C60.4966 28.2804 59.796 26.3214 60.2043 25.163C60.6116 23.9861 61.438 26.215 61.5752 23.1582C61.2564 23.1292 60.9326 23.0749 60.6072 23.0117C60.155 22.9205 59.7004 22.8108 59.2527 22.7259C59.0872 19.6404 59.2263 16.7287 58.9763 14.0322C58.7463 11.5213 58.5845 9.11385 57.7097 7.87558C57.6954 7.84476 57.6551 7.82123 57.7722 7.91599C57.836 7.96136 57.9446 8.04799 58.2107 8.13659C58.4634 8.22601 58.9612 8.27613 59.3959 8.12111C59.0048 8.24935 58.6335 8.46354 58.3795 8.70037C58.1122 8.9732 58.6483 8.99419 58.4492 9.2533C58.3689 9.37228 58.3049 9.49291 58.2486 9.6346C57.4638 11.6135 56.9276 13.6856 56.1058 16.2657C55.8453 17.0477 55.5981 17.8573 55.3674 18.7087C54.9672 20.1883 54.6479 21.7817 54.3262 23.3997C53.9894 25.0173 53.6474 26.5197 53.2557 27.9996C51.8653 29.5811 50.8331 34.1175 49.9731 37.3344C49.9028 37.5937 49.8385 37.7865 49.7775 37.9396C49.5815 38.4266 49.4135 38.486 49.2272 39.0853C48.3427 42.0995 49.3805 40.8267 49.3236 41.7216C49.1313 44.3338 48.1136 45.4725 46.9286 46.9173C46.3754 47.4918 45.8047 48.3316 45.3215 49.7733C45.2401 49.9817 45.2385 52.9647 45.1712 53.3699C45.1118 53.727 45.0604 53.9887 45.0137 54.1812C44.7093 55.3893 44.6681 53.8765 44.1564 55.1972C43.0635 57.9871 41.907 59.8254 41 62.8934C40.8207 63.5195 40.6848 64.7734 40.3909 66.0127C40.2661 66.533 40.1072 67.0774 39.8692 67.5912C39.7675 67.8126 39.4923 67.627 39.4391 67.8134C38.5076 71.3015 39.5409 71.6034 39.0824 74.1767C38.8306 75.4376 37.8431 77.308 36.2163 78.4171C35.5553 78.9237 34.5646 79.3512 33.4173 79.2446C32.2796 79.1678 31.0885 78.3859 30.5855 77.4169C30.195 76.5259 30.1469 76.0423 30.099 75.7866C29.9158 74.0679 30.4873 76.2453 31.0361 77.1476C31.2651 77.5331 31.4982 77.7393 31.5422 77.776C32.5032 78.4414 32.8969 78.2639 32.7414 78.1832C32.6245 78.0623 31.9059 77.7995 31.4106 76.9238C30.9972 76.0681 30.5391 74.8665 30.2232 73.8224C30.5557 73.5926 30.6064 73.0435 30.5249 72.5602C30.4191 71.9145 29.9979 71.3611 29.6988 72.022C29.672 72.0822 29.7786 72.4123 29.8889 72.7556C30.0203 73.1688 30.1823 73.6288 30.2232 73.8224C29.9455 73.567 29.6865 73.2538 29.4509 72.8902C28.5799 71.6766 27.6802 69.1232 28.0871 66.3014C28.2121 65.4646 28.4475 65.455 28.5683 64.9915C28.6847 64.5954 28.7293 63.8301 28.49 61.7629C28.2541 59.8208 27.6718 60.633 27.3369 58.9285C27.0574 57.5111 26.8722 55.8938 26.813 54.1561C26.7236 51.2626 26.7613 48.2389 26.5111 45.6469C26.3688 44.1666 26.1208 45.6351 26.011 44.6284C25.8193 42.8869 25.7836 41.2721 25.6839 39.6081C25.6288 38.6964 25.5655 37.7784 25.4561 36.8255C25.4274 36.5785 25.096 37.2074 25.037 36.3577C24.8482 33.7098 24.7706 31.2436 24.4882 28.9972C24.071 25.8079 23.8778 22.8527 22.9016 20.0864C22.7417 19.6309 22.5849 19.1753 22.4285 18.7157C21.6181 16.357 20.1209 11.8026 18.9838 11.3614C18.7296 11.1895 18.5065 11.0649 18.376 11.0068C18.2477 10.9437 18.2176 10.9741 18.4529 10.9824C18.6175 10.9899 18.9921 10.926 19.2811 10.735C19.6689 10.4957 19.8679 10.1627 19.9059 10.0723C19.9504 9.96916 19.9099 10.031 19.8562 10.1935C19.1602 12.251 18.5225 14.6128 17.9431 16.9334C17.3136 19.3887 16.7361 21.3736 16.5959 23.2469C16.5511 23.7834 16.5259 24.4059 16.5134 24.9629C16.4529 28.1516 16.8608 27.4788 17.058 28.8639C17.4469 31.5381 16.4001 36.2372 16.2383 36.8689C16.2336 36.8881 16.2495 34.1042 16.0041 35.581C15.5756 36.4281 16.2378 36.8375 16.2383 36.8689C16.1434 37.2556 15.8697 42.1736 15.838 43.7001C15.8361 43.8036 15.8356 43.8906 15.8365 43.9598C15.8441 44.5687 16.2125 44.2483 16.2092 44.5649C16.1914 47.5987 15.9265 50.8411 15.4885 53.8273C15.145 56.4864 14.3521 59.204 14.0472 61.1867C13.7416 63.2715 13.3327 65.1263 13.0171 66.968C12.9913 67.0924 12.6306 66.8451 12.5751 67.139C12.504 67.5125 12.4435 67.8737 12.3926 68.2244C11.8843 71.7995 12.1653 74.3791 12.1434 77.7124C12.1281 79.4317 12.0197 81.0309 11.6824 82.5679C11.3399 84.0766 10.9147 85.3405 10.3656 86.3895C9.97362 89.0568 9.11493 92.7674 8.5648 95.0272C8.44051 95.5262 8.36955 95.9442 8.33342 96.2966C8.22505 97.45 8.64152 97.7589 8.62296 97.9124C8.15353 101.887 7.51979 104.773 6.5936 108.054C6.55097 108.203 6.5059 108.366 6.4497 108.56C6.42117 108.658 6.39023 108.763 6.34688 108.9C6.28786 109.061 6.29831 109.126 6.04562 109.654C5.91584 109.841 5.99633 109.959 5.2363 110.679C4.98188 110.874 4.76103 111.097 3.99788 111.322C3.28985 111.531 2.30884 111.396 1.71166 111.049C1.05143 110.67 0.888611 110.411 0.700034 110.188C0.526586 109.961 0.431435 109.778 0.38202 109.681C0.155665 109.203 0.155384 109.084 0.112235 108.931C0.0841219 108.81 0.0672237 108.708 0.0573588 108.642C0.017504 108.361 0.0147901 108.228 0.00783878 108.091C-0.0024706 107.826 -0.00045445 107.628 0.00197679 107.424C0.0238413 106.205 0.0561697 104.907 0.0922679 103.472C0.133405 101.611 0.212622 98.5634 0.31695 95.8583C0.367646 94.074 0.408024 92.3458 0.453433 91.0243C0.553138 88.3797 0.846581 86.7512 1.19314 84.1688C1.19462 84.1575 1.19609 84.1461 1.19755 84.1347C1.23308 83.8529 0.846819 84.0742 0.849268 83.9869C0.820171 81.5803 1.45715 82.8044 1.6792 82.3257C2.31783 80.8368 2.64258 79.7812 2.96463 77.4467C3.03617 76.9638 3.09287 76.4109 3.14185 75.7627C3.19717 74.9963 2.36791 72.4592 2.62077 70.9246C2.7261 70.263 2.83429 69.9182 2.93826 69.6724C3.1295 69.2441 3.32459 69.1662 3.50631 67.9334C3.52869 67.7729 3.26696 67.7588 3.49469 66.6197C3.84675 64.8486 4.15702 63.0049 4.54739 60.9938C5.06023 58.4048 5.52551 55.7891 5.81806 53.218C5.95313 52.0298 6.07565 50.8209 6.19697 49.6153C6.27901 48.8157 5.75115 49.798 5.8647 48.6382C6.08046 46.4956 6.32672 44.2548 6.76996 41.8858C7.28144 39.2469 7.61248 36.2036 8.25907 33.2948C8.35388 32.8569 8.45004 32.4272 8.54629 32.0052C8.83589 30.7436 8.97432 31.5955 9.11244 31.3361C9.95991 29.7414 9.60601 27.2781 9.64276 26.9044C9.72763 26.1764 9.80532 25.4703 9.87163 24.7849C10.2348 21.4525 11.073 18.8461 11.7432 16.3222C12.0205 15.3191 12.2871 14.0013 12.6949 12.5948C12.915 11.8701 13.1201 11.1381 13.6483 10.1058C13.9616 9.58544 14.198 8.93299 15.4345 8.03071C16.0455 7.59697 17.1497 7.19793 18.1843 7.30005C19.2146 7.39076 19.8865 7.76439 20.3627 8.07967C21.5061 8.93029 21.698 9.34093 22.1188 9.85573C22.4838 10.3466 22.7855 10.8158 23.0682 11.2903C23.6305 12.2391 24.1028 13.1975 24.5296 14.1987C24.8926 15.0431 25.3347 15.8884 25.8676 16.7765C26.0395 17.2804 28.1847 18.8284 29.131 22.4755C29.1857 22.8438 29.1993 23.1752 29.1726 23.4625C29.1759 23.6363 28.879 25.7259 29.6017 27.2812C29.6459 27.378 29.845 26.1625 30.1049 28.1932C30.1858 28.8467 30.3074 29.6182 30.4323 30.4435C30.6707 32.045 31.056 33.9136 31.1177 35.8717C31.1272 36.3397 31.0589 37.1321 31.0401 38.3062C31.0029 39.4054 31.0028 40.5096 31.3335 41.7915C31.3823 41.9615 32.802 45.8798 31.9492 47.3075C31.8097 47.5373 30.8488 47.3344 31.4395 50.3539C31.5546 50.9295 31.7278 49.8715 31.9158 51.391C32.1822 53.506 32.0989 56.2798 32.5719 58.8092C32.6196 59.0729 32.6707 59.332 32.7269 59.5831C32.842 60.0996 33.6165 62.0579 33.3752 63.5256C33.3389 63.7613 32.9476 63.3911 33.0519 64.1516C33.2082 65.2303 33.481 66.2379 33.8683 67.1184C34.4521 68.4423 34.8575 69.7017 35.2265 70.7003C35.5552 71.7015 36.0534 72.3739 35.8034 72.1151C35.5198 71.8951 35.0639 71.74 34.6602 71.7652C34.6201 71.7813 34.4414 71.7717 34.0246 71.9566C33.708 72.0982 33.3735 72.3731 33.1824 72.6284C33.1633 72.7728 33.3459 72.7689 33.4853 72.7911C33.6377 72.7909 33.8127 72.7751 34.0877 72.285C34.3547 71.8079 34.7194 70.958 35.073 70.0096C35.532 68.8011 35.8766 67.4369 35.9329 66.5333C36.0015 64.9911 34.9266 66.4233 35.2043 64.2745C35.2274 64.0506 35.2468 63.8298 35.2617 63.6141C35.4483 61.1486 35.8382 58.7741 36.2335 56.5216C36.7294 53.6778 37.2954 50.6628 38.0904 47.7029C38.7537 45.2841 39.2114 42.8116 39.9402 39.9849C40.6791 37.2836 41.1768 34.4571 42.4089 31.1324C42.6759 30.4552 42.7837 30.1668 42.8184 29.9845C42.8392 29.744 42.7189 29.7216 43.3652 28.3266C44.4308 26.0164 45.6969 23.1628 47.0181 20.1433C47.827 18.3072 48.669 16.2568 49.9099 14.1034C50.6696 12.825 51.3688 10.8812 52.3273 8.88768C52.7237 8.06024 53.1912 6.86493 53.7276 5.70634C54.0105 5.105 54.2803 4.5194 54.779 3.72574C55.0894 3.30949 55.1997 2.88399 56.4118 1.94997C56.7711 1.7072 57.2436 1.41054 58.0673 1.22991C58.8764 1.03802 60.038 1.16276 60.8333 1.5829C62.3772 2.45107 62.5514 3.14985 62.8387 3.60057C63.8806 5.87605 63.8479 7.29091 63.9607 8.55026C64.0582 15.2453 63.0072 6.9997 63.173 11.9779C63.2108 14.3337 64.1875 16.8123 64.2259 17.3773C64.2367 17.5338 64.2467 17.6909 64.2559 17.8486C64.5555 23.0332 64.1363 26.6868 64.269 31.3832C64.297 32.3813 64.6805 31.4025 64.7003 32.2505C64.7722 35.1489 64.6128 38.1906 64.6959 40.9199C64.7329 42.0455 64.9826 41.9426 65.0277 42.7864C65.0317 42.8616 65.0344 42.9431 65.0354 43.0319C65.0758 45.738 64.9909 48.3427 64.8552 50.7081C64.8501 50.8065 64.7314 50.5343 64.6289 50.4254C64.5287 50.2959 64.4271 50.4925 64.4973 51.1982C64.5099 51.3049 64.5229 51.3986 64.5407 51.5057C65.0143 55.4077 64.7991 59.0036 65.0663 62.7599C65.138 63.9066 65.8226 63.9693 65.2866 66.4296C65.1679 66.9477 64.4048 66.2553 64.9654 69.1544C64.973 69.1957 64.9849 69.2684 64.9996 69.3685C65.0947 70.4706 65.9532 74.1237 64.9725 77.1029C64.9387 77.1937 64.8947 77.3002 64.8416 77.42C64.4842 78.0799 63.7379 79.3059 63.6335 80.4622C63.6207 80.6385 64.0929 80.0046 63.9496 81.0704C63.8065 82.1494 63.6692 83.2297 63.5945 84.2332C63.3633 87.0496 62.8893 89.5021 62.8464 91.7289C62.8436 91.8597 62.8397 92.0235 62.8359 92.1991C62.8335 92.3428 62.8308 92.501 62.828 92.6723C62.8141 93.733 63.2535 92.1585 63.2213 93.7598C63.1372 98.1898 62.8401 103.706 62.5505 108.04C62.4427 109.641 62.1779 108.521 62.1396 108.638C61.5179 110.48 62.208 111.624 62.2225 112.262C62.2351 112.758 62.2332 113.313 62.2217 113.81C62.2115 114.11 62.2139 114.276 62.1743 114.742C62.1669 114.811 62.1604 114.882 62.1363 115.033C62.1226 115.113 62.1082 115.207 62.0589 115.401C62.0325 115.501 61.9995 115.626 61.9215 115.832C61.8813 115.937 61.8298 116.063 61.7439 116.232C61.7006 116.316 61.6483 116.411 61.5798 116.522C61.5455 116.577 61.5069 116.636 61.4628 116.7C61.4065 116.781 61.3246 116.891 61.2303 117.002C60.8709 117.409 60.0869 118.241 58.5162 118.406C56.917 118.565 55.6466 117.642 55.2089 117.127C54.2998 116.023 54.3972 115.711 54.2807 115.443C54.1628 114.972 54.1738 114.879 54.157 114.757C54.147 114.651 54.1436 114.588 54.1406 114.531C54.1394 114.508 54.1389 114.499 54.1382 114.483C54.1331 114.373 54.1311 114.287 54.1295 114.19C54.1269 114.005 54.1267 113.935 54.1269 113.785C54.1317 112.746 54.1701 111.943 54.2129 110.968C54.2846 109.436 54.3717 107.923 54.376 106.28C54.38 105.292 54.0077 105.982 53.982 105.784C53.7363 103.736 54.3226 105.274 54.4327 103.987C54.7453 100.382 54.8771 96.3673 55.0069 92.7138C55.0547 91.3729 54.5734 92.8592 54.6217 91.656C54.649 90.965 54.6786 90.2712 54.711 89.5739C55.0121 83.7385 55.4878 78.0069 55.7101 72.5488C55.7385 71.835 55.7733 71.1258 55.8141 70.423C55.8944 69.093 56.1856 69.9402 56.2653 69.6658C56.8222 67.7726 56.2727 64.9831 56.2368 64.3552C56.1386 62.6164 56.2161 61.5599 56.2718 60.5064C56.3084 59.7405 56.3527 58.948 56.3567 57.9329C56.364 54.9784 56.4784 51.7965 56.625 48.6946C56.7721 45.0082 57.1562 41.193 57.4863 37.6539C57.9793 32.9226 58.3707 28.7257 58.4285 24.5816C58.4632 22.5859 58.4808 20.6576 58.4795 18.8252C58.4601 14.392 58.4369 9.70546 58.0088 6.53957C57.8466 5.71538 57.759 4.96042 57.6773 4.43335C57.6398 4.17767 57.5931 3.97194 57.598 3.98056C57.6218 3.96123 57.628 4.36589 58.4387 5.00042C59.4825 5.74659 60.5457 5.61961 60.9793 5.49089C61.4615 5.34898 61.6655 5.18423 61.8255 5.05427C60.2814 6.28967 58.8637 8.12997 57.6246 10.14C55.6446 13.2283 54.3042 15.7069 53.2903 19.0393C52.9216 20.2477 52.5707 21.7754 52.2379 23.2682C52.0418 24.1566 52.6514 23.355 52.4896 24.1182C51.6016 28.2971 50.7455 32.5144 49.7606 36.7736C48.6112 41.4032 47.3621 45.1301 46.5495 49.3047C46.2312 50.8518 45.9122 52.403 45.5942 53.9554C45.423 54.7855 46.0708 53.6758 45.8079 55.013C45.2693 57.7616 44.4691 61.2205 43.6723 63.9677C43.2811 65.3134 43.3959 63.4122 43.0074 64.7666C42.8158 65.4295 42.6216 66.107 42.4187 66.7992C42.3142 67.1562 42.2109 67.5047 42.0962 67.8762C41.9645 68.2827 41.9069 68.5438 41.6004 69.2979C40.7611 71.1808 39.8999 73.1062 38.601 75.1178C37.5517 76.626 39.5764 74.576 38.0589 76.5774C37.0561 77.6232 35.8515 79.5502 32.1524 79.7709C31.7817 79.7637 31.3256 79.7755 30.5279 79.6008C30.1257 79.5028 29.6108 79.3634 28.9329 78.953C28.2694 78.5644 27.4082 77.7198 27.0047 76.6999C25.433 73.5161 24.3988 68.7907 24.4641 64.9877C24.4101 57.8754 24.7461 50.7301 25.1462 43.6952C25.1644 43.354 25.1833 43.0067 25.2028 42.6561C25.251 41.7981 26.0875 41.0497 25.9541 39.2227C25.7271 39.0806 25.4578 39.0859 25.214 39.0227C25.2338 34.0137 25.3096 28.9424 25.1233 24.171C24.8491 18.8065 24.8805 12.4558 23.2275 10.097C23.3386 10.2334 23.3782 10.2995 23.68 10.4976C23.8397 10.5911 24.0709 10.7337 24.5708 10.8387C25.0429 10.9481 25.9664 10.9277 26.7189 10.5012C26.7626 10.4154 26.0192 11.1068 25.5446 11.8927C25.0241 12.6969 24.5324 13.6677 24.0856 14.6936C22.9059 17.3491 22.0514 19.8879 20.9839 22.8781C20.6249 23.8584 20.298 25.2422 19.9329 26.6509C19.7323 27.4198 20.5043 26.191 20.1093 27.6943C19.573 29.7096 18.9063 31.8212 17.9856 33.8688C16.0326 38.9407 14.3599 45.2562 12.7689 51.3033C12.7089 51.5355 12.6493 51.7639 12.5894 51.9919C12.3717 52.8301 11.6999 52.2523 11.3081 54.7484C11.2328 55.1676 10.7524 58.1942 10.7867 59.4227C10.7879 59.5355 10.7913 59.6401 10.7975 59.7259C10.8113 59.8517 11.2282 59.2464 11.1306 60.3825C10.7217 66.1471 10.5164 72.5023 10.4558 78.4371C10.4492 79.5557 10.4749 80.6866 10.5077 81.847C10.5404 83.0025 10.0854 81.7949 10.106 82.6216C10.1633 84.7185 10.2741 86.9812 10.2607 89.2515C10.2444 93.1886 10.2478 97.1403 9.95639 100.774C9.64488 104.552 9.01247 103.139 8.30909 105.127C8.21115 105.411 8.11835 107.738 7.73523 107.849C6.77385 108.127 5.77252 106.954 4.74301 107.388C4.51004 107.415 4.68228 110.794 4.18765 108.768C4.1521 108.603 4.05904 106.345 3.89576 105.788C3.784 105.401 3.37816 106.081 3.24389 105.292C3.10907 104.505 3.45533 103.659 3.2986 102.347C3.13744 101.04 2.69162 101.611 2.68379 99.009ZM5.76392 104.853C4.94414 106.815 6.18047 107.432 6.37476 105.13C6.38199 105.018 5.8049 104.751 5.76392 104.853ZM59.5513 9.69564C59.5873 8.36555 59.0033 7.4957 58.5796 7.28841C58.337 7.22315 58.1907 7.40107 58.1038 7.60958C58.1056 7.71243 58.1211 7.83476 58.1484 7.9802C58.3527 9.22521 59.5026 10.4652 59.5513 9.69564ZM61.3665 37.4427C61.782 34.2419 59.8748 33.7521 60.3052 37.1861C60.3315 37.3969 61.3446 37.628 61.3665 37.4427ZM8.3001 95.828C8.28232 95.8572 8.24398 97.5388 8.26084 97.5684C8.67708 98.4643 8.75361 95.1229 8.3001 95.828ZM64.0159 65.2195C64.2093 64.2154 63.6687 61.4114 63.4531 62.6583C63.2858 63.6612 63.7821 66.462 64.0159 65.2195ZM21.019 14.6643C21.0171 14.6892 21.2259 15.1763 21.3827 15.4956C21.4647 15.6601 21.5392 15.7737 21.5717 15.7509C21.6495 15.6953 21.6591 15.5583 21.6302 15.3935C21.5429 14.8942 21.0712 14.1848 21.019 14.6643ZM60.8317 112.017C61.1601 110.538 61.5146 109.191 61.8611 108.071C61.8619 108.067 61.8643 108.056 61.8653 108.053C63.2847 104.213 64.4817 103.037 63.0748 108.38L63.0907 108.312C63.0597 108.458 63.0281 108.604 62.9937 108.76C62.8651 109.339 62.8627 108.865 62.863 108.267L62.8508 108.319C62.9096 107.52 62.9648 106.512 62.6392 107.469C62.5535 107.717 62.4761 107.96 62.4053 108.199L62.4101 108.178C61.8881 110.507 62.1006 112.414 61.4207 114.704C61.2758 115.123 61.2202 115.467 60.8186 116.08C60.5587 116.364 60.8152 115.99 60.7993 115.714C60.8203 115.411 60.8057 115.004 60.802 114.55C60.7918 113.496 60.7825 112.221 60.832 112.004C60.8319 112.009 60.8318 112.013 60.8317 112.017ZM3.92221 105.667C3.90021 105.7 3.58369 106.969 3.51111 107.288C3.50202 107.329 3.49734 107.354 3.4982 107.359C3.55446 107.638 3.66298 107.573 3.77519 107.353C4.06186 106.798 4.34656 105.246 3.92221 105.667ZM38.4503 70.8301C38.5653 70.7689 39.6209 66.9749 39.5601 66.8273C39.4089 65.7541 38.9716 67.1662 38.5737 68.5977C38.1862 70.0327 37.8204 71.5333 38.4503 70.8301ZM25.9881 17.6859C26.2061 18.0309 26.4113 18.3889 26.6041 18.7633C27.3309 20.1897 27.6431 21.8512 27.4339 23.0594C27.1976 21.652 26.8585 20.2297 26.3773 18.8444C26.2436 18.4575 26.1155 18.0757 25.9881 17.6859Z" fill="#ED9F52"/>
<path d="M94.3635 56.2201C94.5646 59.356 94.6002 63.6622 94.823 66.3676C94.8577 66.7615 94.804 66.8413 94.7427 66.908C94.6816 66.9682 94.6227 67.0457 94.6338 67.185C94.6246 67.2401 94.6795 67.3168 94.4789 66.9284C94.8292 67.6408 95.3711 68.2935 95.8813 69.0379C96.0856 69.3328 95.5058 69.2412 95.734 69.5494C96.1519 70.1047 96.6253 70.6105 97.1262 71.0625C97.9388 71.7946 98.6877 72.4296 99.1828 72.7229C99.2319 72.7605 99.4382 72.8569 99.7585 72.9236C101.077 73.2313 103.654 72.7648 105.067 72.0983C106.743 71.2737 108.401 69.9177 110.128 68.4281C111.83 66.9784 113.177 65.0503 114.408 62.8036C115.487 60.8663 116.166 58.617 116.672 56.18C116.751 55.8106 116.808 55.4131 116.855 54.9706C116.879 54.7469 116.899 54.5175 116.926 54.2378C116.94 54.0948 116.954 53.9449 116.987 53.7241C117.005 53.6064 117.022 53.4817 117.083 53.2489C117.117 53.1257 117.149 52.9904 117.275 52.7156C117.334 52.5908 117.433 52.3957 117.614 52.1658C117.72 52.0318 117.856 51.8842 118.036 51.7379C118.231 51.5792 118.504 51.4103 118.814 51.2998C119.226 51.1709 119.627 51.0029 120.518 51.051C121.386 51.0136 122.834 51.9957 123.118 52.8094C123.741 54.3348 123.484 54.8159 123.485 55.4209C123.371 56.5271 123.171 57.3529 122.985 58.2107C122.317 61.1178 121.447 64.1957 121.256 67.196C121.163 68.6402 121.132 70.1003 121.159 71.4783C121.17 71.9939 121.506 71.6906 121.532 71.7885C121.933 73.3152 121.269 72.8055 121.173 73.8004C120.796 77.7657 120.797 82.1992 120.932 86.045C120.99 87.6833 121.647 86.0383 121.278 87.6895C121.253 87.8056 120.901 87.3845 120.863 87.8391C120.797 88.6351 120.817 89.9977 120.806 90.9306C120.803 91.1976 120.798 91.4255 120.789 91.597C120.705 93.1353 120.702 93.3881 120.641 94.8485C120.55 96.8437 120.212 99.2095 120.003 101.377C119.958 101.844 120.401 101.277 120.358 102.026C120.325 102.706 120.009 104.381 119.8 105.107C119.776 105.195 119.754 105.273 119.733 105.338C119.504 106.022 119.287 105.657 119.198 105.766C118.454 106.63 118.554 108.95 118.497 109.222C118.308 110.063 118.115 110.859 117.941 111.623C117.408 113.964 116.245 115.827 115.686 117.313C114.881 119.473 113.676 121.202 112.427 122.909C112.165 123.265 111.896 123.618 111.622 123.968C109.834 126.578 106.167 128.795 103.264 129.246C102.9 129.33 102.543 129.401 102.187 129.462C100.541 129.738 98.8661 129.797 97.1942 129.445C95.5575 129.15 93.8811 128.124 93.1154 127.822C91.8688 127.389 90.7409 126.709 89.7337 125.91C89.3519 125.6 89.5271 126.3 89.057 125.908C88.243 125.213 87.5345 124.461 86.892 123.686C85.2832 121.754 84.1757 119.656 83.0405 117.941C81.8216 116.094 81.1235 114.041 80.9109 111.893C80.9066 111.837 80.9034 111.799 80.9062 111.798C80.9173 111.824 80.8841 111.755 80.9818 112.039C80.9964 112.077 81.015 112.123 81.0435 112.183C81.0506 112.198 81.0584 112.214 81.067 112.231C81.0942 112.284 81.134 112.357 81.1943 112.446C81.3227 112.611 81.5038 112.933 82.1572 113.198C82.8226 113.504 83.8741 113.171 84.1885 112.815C84.2357 112.773 84.2773 112.732 84.3145 112.693C84.344 112.661 84.3506 112.654 84.3675 112.634C84.397 112.601 84.4233 112.568 84.4471 112.537C84.4947 112.475 84.5323 112.419 84.5636 112.368C84.6861 112.164 84.7253 112.042 84.757 111.951C84.8579 111.593 84.8194 111.665 84.8321 111.609C84.8366 111.475 84.8191 111.679 84.8157 111.76C84.8046 111.981 84.8003 112.233 84.7986 112.487C84.7969 113.004 84.3879 112.352 84.3664 112.881C84.3191 114.574 84.2477 117.177 84.9343 118.685C85.6531 120.081 87.0682 120.696 88.0803 120.392C88.5482 120.672 89.1088 120.941 89.7528 121.236C91.112 121.897 92.6383 122.253 94.0126 122.631C95.2524 122.961 93.9827 123.261 95.5743 123.21C95.9314 123.195 95.493 122.811 96.0283 122.813C96.2418 122.814 96.4539 122.816 96.6744 122.819C98.7007 122.84 100.927 122.865 102.911 122.553C103.355 122.482 103.208 122.173 103.329 122.105C104.34 121.568 106.125 122.094 106.482 122.067C106.925 122.052 107.355 121.999 107.606 121.945C108.426 121.741 109.258 121.109 109.917 120.394C110.437 119.831 110.881 119.059 111.295 118.152C111.536 117.61 110.867 118.078 111.075 117.558C112.133 114.81 112.689 111.549 113.388 108.368C113.552 107.646 113.798 108.38 113.897 108.035C114.014 107.626 114.059 107.291 114.09 106.957C114.157 106.146 113.961 105.573 114.384 104.554C114.506 104.262 114.752 104.524 114.802 104.479C115.579 103.79 115.09 102.838 115.142 102.618C115.431 101.399 115.831 100.452 116.228 99.5318C116.766 98.2526 117.417 97.109 117.983 95.6371C118.105 95.3222 117.436 95.8644 117.805 94.9853C118.346 93.6999 118.948 92.4569 119.43 91.2645C120.13 89.6208 120.064 87.4889 120.794 84.9493C121.501 82.7219 121.605 80.0086 121.891 77.4051C121.99 76.455 122.25 77.1508 122.29 77.093C122.458 76.838 122.528 76.6033 122.541 76.3884C122.575 75.8263 122.179 75.4108 122.168 75.1877C122.067 72.7785 122.726 70.517 121.815 68.8706C121.924 64.506 121.892 59.6852 121.371 55.851C121.235 55.3239 121.171 54.8262 121.119 54.3944C121.093 54.1804 121.07 53.9804 121.045 53.8343C121.033 53.699 120.95 53.5721 121.08 53.804C121.01 53.6967 120.953 53.6232 120.923 53.588C120.903 53.5645 120.894 53.5578 120.911 53.5713C120.927 53.5819 120.96 53.6219 121.119 53.6908C121.196 53.7224 121.296 53.7536 121.428 53.7679C121.584 53.7858 121.774 53.7692 121.94 53.7133C122.301 53.5832 122.411 53.4257 122.491 53.3316C122.608 53.1585 122.556 53.2064 122.546 53.2588C122.456 53.5491 122.395 54.1876 122.372 54.7333C122.322 55.8914 122.349 57.0976 122.384 58.3136C122.459 60.7473 122.584 63.2078 122.657 65.6711C122.662 65.803 122.262 65.6102 122.273 65.8729C122.415 68.9944 122.936 68.344 123.893 70.2954C124.055 70.6435 123.816 71.492 123.613 72.0899C123.508 72.3615 123.421 72.5803 123.405 72.6272C123.228 73.156 122.613 72.6954 122.587 72.8696C122.386 74.3193 124.23 73.8618 124.387 75.8523C124.388 75.9142 124.029 75.6779 124.007 75.8461C123.957 76.2125 124.022 76.5702 124.027 76.9305C124.029 77.0659 124.022 77.2254 123.992 77.3617C123.76 78.4906 122.873 78.9233 123.442 80.6071C123.515 80.8191 124.562 80.4596 124.55 82.1787C124.547 82.8538 124.614 85.8847 124.552 86.7248C124.493 87.5714 124.148 86.9939 124.134 87.054C123.706 89.3339 123.512 88.4768 122.855 89.6117C122.198 90.7508 123.774 90.4292 123.951 90.8962C124.129 91.3547 123.758 93.0299 123.627 93.4344C123.497 93.8456 123.284 93.3312 123.21 93.6974C122.723 96.1057 123.987 94.756 124.233 95.5552C124.508 96.4479 124.385 97.2403 124.164 98.0183C123.919 98.9049 123.528 99.727 123.382 100.634C123.305 101.099 123.61 100.741 123.589 101.167C123.478 102.856 122.932 103.777 122.724 105.691C122.699 106.005 122.876 107.68 122.146 108.394C122.045 108.497 121.865 108.095 121.65 108.626C121.641 108.649 121.632 108.674 121.623 108.7C121.286 109.788 120.345 111.472 119.897 112.494C119.574 113.253 120.437 112.651 119.826 113.487C119.558 113.86 119.696 112.98 119.213 113.695C119.121 113.833 119.011 114.019 118.893 114.235C118.399 115.19 117.501 116.517 117.086 117.063C116.577 117.745 117.146 117.599 117.125 117.668C116.982 118.094 116.075 119.464 115.985 119.569C115.875 119.703 115.765 119.836 115.655 119.969C114.403 121.482 113.107 123.036 111.558 124.356C110.004 125.686 108.216 126.601 106.413 127.287C103.213 128.285 100.404 127.833 97.411 128.069C96.8689 128.094 97.2364 128.472 97.1537 128.48C95.275 128.67 96.7423 127.626 95.423 127.304C95.6213 128.081 94.8517 127.951 93.531 128.057C92.8951 128.109 93.2455 128.405 93.1884 128.437C93.1081 128.477 93.0293 128.509 92.9522 128.535C92.7474 128.605 92.5548 128.626 92.3895 128.617C92.3045 128.613 92.2243 128.601 92.161 128.584C92.1443 128.574 92.0538 128.572 92.1684 128.549C92.1823 128.546 92.2 128.543 92.2265 128.538C92.2905 128.51 92.3326 128.564 92.6949 128.33C92.7165 128.313 92.9855 128.126 93.1032 127.769C93.2453 127.398 93.1061 126.923 92.9556 126.737C92.8063 126.531 92.6907 126.465 92.6136 126.414C92.5614 126.383 92.5609 126.384 92.5378 126.371C92.4645 126.335 92.421 126.32 92.3871 126.308C92.3196 126.286 92.2966 126.283 92.2849 126.281C92.2297 126.271 92.2323 126.276 92.2272 126.278C92.2234 126.284 92.2362 126.292 92.2479 126.301C92.4909 126.44 92.7016 126.635 92.7781 126.71C92.8044 126.734 92.8314 126.757 92.8588 126.778C93.3347 127.264 94.0307 126.891 94.3777 127.218C94.7612 127.555 93.7374 127.898 95.0096 128.009C95.3746 127.755 94.5279 126.967 95.4472 126.908C96.766 126.8 98.6269 126.731 100.243 126.292C102.204 125.725 104.184 124.966 105.741 124.243C106.392 123.947 106.934 123.594 107.34 123.276C109.384 121.552 109.763 120.618 110.678 119.333C110.694 119.309 110.709 119.285 110.726 119.261C112.369 116.706 111.356 117.411 111.948 115.655C112.48 113.886 113.329 115.22 113.703 115.089C114.072 114.95 113.913 114.564 114.182 114.308C114.45 114.049 114.367 114.807 114.709 114.079C114.74 114.013 114.77 113.935 114.799 113.846C115.118 112.936 115.127 111.048 114.906 110.748C114.412 110.034 113.567 110.849 114.215 108.871C114.252 108.756 114.516 109.209 114.644 108.765C114.841 108.08 115.034 107.375 115.29 106.663C116.056 104.582 116.871 102.548 117.316 100.452C117.484 99.6383 117.795 98.8876 118.146 98.1869C118.377 97.7356 118.555 98.3046 118.693 98.0484C119.952 95.8322 119.424 95.9565 119.191 95.0087C119.144 94.838 119.102 94.6322 119.068 94.372C119.843 95.035 120.841 94.346 121.202 91.9896C121.402 90.5969 120.939 90.7865 120.746 89.8641C120.687 89.5884 121.081 88.6471 120.902 88.4492C120.421 87.9096 119.772 88.3884 119.874 87.2569C119.894 87.0283 119.949 86.721 120.04 86.3199C120.064 86.2186 120.386 86.5817 120.443 86.228C120.799 83.9453 120.124 83.6142 120.237 81.0995C120.319 79.5642 120.694 77.1453 121.262 74.9909C121.42 74.4396 121.543 73.9031 121.628 73.4214C122.713 73.6367 122.72 71.4759 122.005 70.5914C122.13 69.1694 122.115 67.6192 122.202 66.23C122.232 65.7492 122.552 66.0603 122.585 65.9992C123.08 65.1088 122.427 64.5048 122.325 64.1857C122.322 64.2229 122.324 64.2782 122.35 64.3517C122.382 64.4636 122.527 64.6286 122.656 64.6771C122.784 64.7312 122.858 64.7253 122.9 64.7255C122.98 64.7205 122.979 64.7158 122.977 64.722C122.966 64.7334 122.918 64.7678 122.876 64.8063C122.79 64.8838 122.701 64.9883 122.661 65.061C121.128 67.4995 119.6 69.4773 117.565 71.8498C117.526 71.8921 117.567 72.0568 117.522 72.2437C117.453 72.487 117.19 72.8056 116.53 72.7992C116.468 72.7801 117.371 71.9526 115.83 72.6736C114.794 73.1195 113.144 73.2379 111.835 73.9469C111.124 74.3346 110.424 74.7245 109.821 75.1339C109.392 75.4322 108.387 76.5384 107.209 76.4529C107.054 76.4403 107.124 76.1832 106.892 76.1391C106.388 76.0442 106.187 76.3938 105.817 76.5163C105.628 76.5784 105.4 76.5799 105.104 76.4361C104.193 76.0005 102.647 75.7598 100.57 76.4345C100.505 76.4548 100.067 77.1138 99.3952 77.1736C98.7618 77.23 97.9667 77.2618 97.1926 77.3063C96.6571 77.3363 96.1319 77.3244 95.6752 77.3101C95.1392 77.2867 95.4589 77.6791 95.3648 77.6814C94.9337 77.6771 94.514 77.6474 94.0872 77.5475C91.1577 76.5676 90.8293 73.8947 89.6177 71.6688C89.3866 71.2234 89.1727 70.754 88.9821 70.2451C88.6917 69.6246 87.6747 67.6462 88.0189 66.2135C88.2895 64.9302 89.693 65.724 89.7599 64.0214C89.7692 63.6431 89.7055 63.1541 89.5409 62.5523C89.1695 61.1892 86.4995 59.7468 87.6658 57.1435C87.6098 56.4434 87.5975 55.7556 87.6178 55.0648C87.6085 54.7719 87.8896 54.6228 88.2837 54.5827C88.667 54.5445 89.0847 54.5954 89.4826 54.6803C90.0079 54.7907 90.4495 55.0228 90.6941 55.4316C91.9315 57.5056 91.818 60.1811 92.4992 62.7574C92.5078 62.7929 92.5165 62.8283 92.5251 62.8636C92.5782 63.0787 93.328 63.6631 93.3871 64.1873C93.4724 64.955 93.2141 65.4119 93.2496 65.9571C93.4062 68.2431 93.6497 70.3502 93.7683 72.5354C93.835 73.2839 93.5464 73.147 93.6208 73.8719C93.6301 73.9458 93.6447 74.0264 93.6675 74.1181C93.9626 75.1411 94.65 75.4952 95.4617 76.5483C95.9647 77.1781 96.331 78.1234 97.0444 78.8958C97.3714 79.1781 97.6736 79.3243 97.988 79.4349C98.2864 78.6482 99.2 78.9109 100.881 78.8072C101.2 78.7874 100.882 78.4707 101.034 78.4461C101.648 78.3385 102.2 78.6053 102.785 78.4577C102.926 78.4222 102.94 78.1351 103.056 78.0894C104.029 77.6942 105.633 78.3203 105.917 78.4237C106.992 78.8259 107.479 78.4302 108.302 78.5563C109.128 78.6783 107.915 78.9586 108.88 79.0045C109.485 79.0312 110.141 79.0234 110.817 78.9849C112.635 78.8271 113.875 77.3875 114.847 76.4048C115.402 75.8124 114.743 75.9586 114.816 75.8677C115.146 75.4635 115.509 75.0865 115.861 74.7299C116.633 73.9557 117.259 73.1348 117.131 72.3363C119.395 72.3193 117.569 71.4244 118.62 69.4157C118.696 69.254 119.676 69.2444 119.592 70.0155C119.502 70.7947 118.811 71.7743 118.448 72.7962C118.394 73.0346 118.252 74.771 118.137 74.9698C117.852 75.599 117.458 75.8299 117.111 75.8813C116.636 75.9247 116.199 75.6531 116.136 75.6553C114.953 75.7391 114.498 77.6047 114.15 77.9781C113.378 78.8873 112.303 79.6916 110.899 79.8487C110.111 79.9358 109.352 80.0036 108.602 80.1413C107.506 80.3377 107.43 81.2531 106.547 81.2536C103.579 81.214 102.687 79.9682 99.7395 80.8097C99.4048 80.89 99.3759 81.1966 99.1301 81.3463C98.8665 81.469 98.5353 81.5828 97.0985 80.731C97.0349 80.6829 96.8096 80.5592 96.2702 80.1336C95.8709 79.6539 95.1765 78.9058 94.4132 78.6758C94.2722 78.6338 94.0889 78.8609 93.9305 78.7572C92.8814 78.0234 92.3496 77.1741 91.5629 75.6897C91.3684 75.3028 91.1949 74.8695 91.0676 74.4089C90.7449 73.3065 90.618 72.1992 90.6522 71.2604C90.6817 70.493 91.1932 69.566 91.3086 69.2159C91.6484 68.2282 90.9467 67.2564 91.3529 66.6276C91.7573 65.9775 92.5839 67.1062 92.7171 65.4714C91.9583 65.4923 91.172 65.4492 90.4055 65.4451C90.3223 64.6735 90.2334 63.8998 90.1359 63.1264C89.7929 60.4944 89.7355 57.7149 88.9337 56.6198C88.9489 56.6438 88.989 56.6956 89.0381 56.7404C89.1805 56.8549 88.785 57.0802 88.9729 57.2112C89.065 57.2658 89.0588 57.2527 88.9819 57.2367C88.7679 57.1857 88.5014 57.168 88.5715 57.1471C88.6129 57.1207 88.7711 57.1392 89.2193 56.8419C89.6955 56.5804 90.1764 55.5967 90.1232 55.1783C90.0531 55.9079 90.0206 56.6441 90.0911 57.4228C90.2186 58.9029 90.8442 60.3225 91.2217 62.0246C90.9595 62.4679 90.8972 63.1187 90.8882 63.9236C90.8616 65.1884 91.0086 66.4926 91.1192 67.367C91.182 67.8602 90.9524 67.8717 90.9652 68.2332C91.0868 69.5832 91.6383 68.7281 91.8626 69.0028C92.2166 69.3903 92.2948 69.7214 92.2913 70.1027C92.4537 71.1033 92.069 72.0316 92.7788 73.2736C92.8068 73.322 93.1941 73.5414 93.5757 73.6917C93.9602 73.8503 94.3194 73.9057 94.3772 73.9297C95.0891 74.1501 94.2244 74.2586 94.4635 74.5698C94.6023 74.7317 94.6798 74.8233 94.7923 74.898C95.1251 75.0729 96.05 75.1788 96.9074 74.9147C96.9177 74.9114 96.9283 74.9077 96.939 74.9035C97.4794 74.7415 98.6396 74.0908 99.6541 74.4187C99.7912 74.4628 99.7512 74.7738 99.859 74.7803C101.8 74.868 101.739 73.9041 102.708 73.4378C103.373 73.1136 104.325 73.1817 104.74 73.2855C105.044 73.294 105.284 73.3181 105.397 73.34C106.232 73.4925 105.234 73.693 104.904 73.7783C104.869 73.7862 104.844 73.7942 104.842 73.8022C104.75 74.0918 104.845 74.1937 105.043 74.1956C105.384 74.1685 105.953 73.9515 106.444 73.7962C106.898 74.6366 108.092 74.0965 107.34 73.4973C107.258 73.4336 106.632 73.774 106.444 73.7962C106.879 72.6485 108.027 72.0659 109.764 72.1368C110.343 72.156 110.326 72.5297 110.924 72.3155C111.224 72.1961 111.664 71.9718 112.347 71.6621C113.387 71.2092 112.801 70.7374 113.622 70.2858C114.346 69.8902 114.97 69.6427 115.342 69.4094C116.232 68.8276 117.294 67.8697 117.971 66.8487C118.378 66.2295 117.669 66.6061 117.934 66.1757C118.55 65.1645 119.292 64.3554 119.98 63.2511C120.258 62.836 120.514 62.5686 120.825 62.2945C120.944 62.1932 120.797 62.1861 120.723 62.1237C120.669 62.0588 120.585 61.944 121.213 61.5686C121.463 61.4453 121.671 61.2882 122.4 61.1574C122.765 61.1318 123.433 60.9564 124.542 61.6202C125.074 61.9568 125.499 62.5358 125.678 62.9962C125.864 63.4583 125.896 63.7996 125.907 64.071C126.025 67.3735 125.823 70.3694 125.311 74.0182C125.237 74.514 125.152 75.1195 125.032 75.7855C124.821 77.081 124.755 79.104 124.619 80.3609C124.379 82.6134 123.905 85.2904 123.526 87.687C123.402 88.4443 123.315 89.1766 123.275 89.853C123.162 91.6037 123.569 91.2758 123.714 92.0915C123.938 93.2908 123.098 95.2756 122.355 96.2794C122.147 96.5583 121.986 96.7374 121.92 96.8074C121.916 96.8118 122.039 96.4809 122.115 96.1833C122.215 95.8062 122.239 95.52 121.96 95.9765C121.913 96.0084 121.873 96.0404 121.84 96.0726C121.478 96.3937 121.925 96.7886 121.92 96.8074C121.719 97.0873 120.382 99.6449 120.395 100.011C120.356 100.251 120.733 100.231 120.711 100.346C120.667 100.584 120.643 100.799 120.636 100.994C120.36 103.574 119.588 105.838 118.991 107.801C118.692 108.786 118.434 110.232 118.023 111.729C117.999 111.803 117.643 111.601 117.59 111.773C117.271 112.794 117.046 113.708 116.827 114.589C116.55 115.722 116.348 116.781 115.976 117.937C115.493 119.429 114.852 120.565 114.085 121.309C113.804 121.593 113.5 121.832 113.176 122.017C112.389 123.47 110.509 125.192 109.221 125.922C107.964 126.655 108.127 127.366 108.021 127.462C107.873 127.57 107.726 127.672 107.576 127.769C105.531 129.166 103.741 129.748 101.536 130.33C100.625 130.576 99.8036 130.688 98.8977 130.785C97.2158 130.981 94.2007 131.077 91.9286 130.57C91.9422 130.578 91.9031 130.574 91.8494 130.571C91.8218 130.569 91.7897 130.567 91.7477 130.564C91.6858 130.556 91.7195 130.568 91.4633 130.528C91.4326 130.522 91.3603 130.51 91.2356 130.479C91.1489 130.449 91.0176 130.452 90.5203 130.205C90.4873 130.187 90.4521 130.168 90.4143 130.146C90.3794 130.126 90.1791 130.007 90.0064 129.865C89.6885 129.589 88.8897 128.919 88.8316 127.442C88.805 125.956 89.8288 125.047 90.0824 124.873C90.2468 124.749 90.3843 124.667 90.5008 124.604C90.9596 124.368 91.1405 124.347 91.2886 124.306C91.4498 124.269 91.459 124.271 91.5048 124.263C91.5435 124.256 91.5757 124.252 91.6039 124.248C91.6589 124.241 91.7049 124.236 91.7316 124.233C91.7758 124.229 91.8087 124.226 91.8371 124.224C91.9314 124.217 91.9653 124.216 92.0041 124.214C92.0737 124.21 92.1217 124.208 92.1707 124.205C92.2663 124.201 92.3446 124.198 92.4273 124.196C92.5871 124.192 92.7369 124.191 92.8843 124.192C93.7643 124.195 94.4655 124.263 95.4111 124.163C95.5855 124.145 95.404 123.807 95.457 123.793C96.8649 123.364 96.2019 124.207 96.4948 124.351C97.5581 124.874 98.2267 125.156 100.012 124.858C100.426 124.79 101.581 123.556 102.258 123.444C103.122 123.297 102.865 123.755 103.665 123.559C103.721 123.541 103.713 123.284 104.085 123.226C104.334 123.183 104.477 123.149 104.657 123.086C106.103 122.533 107.428 121.846 108.461 120.942C108.944 120.52 109.416 120.042 109.877 119.521C110.127 119.238 109.492 119.32 109.845 118.904C110.411 118.234 111.012 117.479 111.691 116.668C112.986 115.131 114.109 113.848 114.835 112.756C115.106 112.347 115.226 112.751 115.353 112.695C115.409 112.669 115.46 112.637 115.505 112.602C116.236 111.834 116.209 110.511 116.283 110.338C116.844 109.094 117.233 108.215 117.389 107.594C118.617 103.612 119.536 101.918 119.375 98.3152C119.372 98.263 119.336 98.1375 119.286 97.9597C119.095 97.2131 118.707 95.6975 119.271 94.9343C119.319 94.8705 120.047 93.9172 119.555 93.0659C119.524 93.013 119.15 93.6076 119.19 92.5692C119.23 91.5316 118.978 89.8549 119.376 88.4259C119.501 87.9716 120.215 86.9001 119.621 85.5512C119.581 85.4636 118.248 83.4044 119.128 82.6453C119.273 82.523 120.227 82.6263 119.702 81.0301C119.6 80.7231 119.403 81.2862 119.25 80.482C119.066 79.5273 119.149 78.3088 118.964 77.1163C118.914 76.8159 118.837 76.5143 118.723 76.2189C118.634 75.9803 117.909 75.0418 118.292 74.1024C118.352 73.9544 118.697 74.1871 118.679 73.7066C118.665 73.3493 118.639 72.9797 118.611 72.563C118.477 70.8378 118.073 68.6604 118.041 66.6872C118.023 65.8383 118.58 66.2159 118.622 65.3299C118.664 64.4474 118.619 62.6796 118.306 61.7816C117.993 60.8809 117.264 61.9663 117.084 60.5755C116.885 58.9811 116.756 57.3605 116.752 55.635C116.761 54.7347 116.762 53.8956 116.968 52.6338C117.02 52.3479 117.107 51.9056 117.282 51.4101C117.396 51.0923 117.539 50.7406 117.814 50.3052C118.228 49.7273 118.652 48.987 120.246 48.4104C120.96 48.1659 121.901 48.1779 122.397 48.2932C122.936 48.4008 123.373 48.5894 123.718 48.7825C123.884 48.8743 124.068 48.9966 124.158 49.062C124.253 49.1301 124.34 49.1979 124.421 49.2648C124.584 49.3986 124.722 49.5288 124.845 49.6549C125.112 49.9329 125.222 50.0804 125.353 50.252C125.479 50.4198 125.591 50.5842 125.696 50.7491C126.458 52.0381 126.38 52.4873 126.48 52.8923C126.537 53.2744 126.554 53.5187 126.573 53.7254C126.605 54.1292 126.63 54.3605 126.646 54.4826C126.872 55.5326 126.856 55.9284 126.907 56.5033C126.943 57.038 126.967 57.5563 126.986 58.054C127.026 59.0637 127.051 60.0504 127.079 61.0314C127.102 61.9209 127.369 61.1731 127.417 62.4879C127.553 66.2756 127.775 72.1416 127.285 76.6704C127.154 77.8261 127.015 78.9038 126.831 79.8144C126.127 83.2129 126.022 78.8674 125.647 81.4789C125.469 82.7242 126.186 84.3532 126.134 84.7331C126.076 85.3139 125.973 85.8842 125.826 86.4387C125.52 87.6744 125.316 89.6816 124.556 92.46C124.338 93.1679 124.95 92.6033 124.739 93.2237C124.719 93.2796 124.698 93.3356 124.677 93.3918C124.055 95.0471 123.212 96.3531 122.718 97.5824C122.493 98.1449 122.807 98.156 122.583 98.6474C122.202 99.4998 121.863 100.249 121.494 101.022C121.332 101.395 121.157 101.765 120.966 102.135C120.902 102.257 120.819 101.275 120.476 102.352C119.925 104.089 118.935 106.057 118.789 107.83C118.782 107.918 118.795 107.996 118.818 108.068C118.956 108.341 119.321 108.527 118.774 109.481C118.635 109.728 117.897 109.246 118.343 110.854C118.424 111.107 118.905 113.887 117.988 115.093C117.753 115.409 116.901 116.124 116.779 116.912C116.763 117.022 117.235 116.701 117.078 117.354C116.524 119.427 115.782 121.674 113.793 124.014C113.607 124.225 113.415 124.433 113.215 124.639C112.652 125.2 113.799 124.67 112.909 125.503C112.11 126.208 111.165 126.919 109.741 127.481C106.744 128.439 105.147 128.313 103.334 128.421C102.42 128.441 103.03 128.089 102.96 128.06C101.872 127.584 101.292 128.341 100.938 128.398C99.2696 128.65 97.8918 128.49 96.3886 128.372C95.9471 128.336 95.4967 128.307 95.0191 128.294C94.4583 128.277 94.8279 128.658 94.7137 128.68C93.5121 128.889 94.4426 128.334 93.7036 128.195C91.923 127.853 89.5366 127.459 87.5069 126.606C87.2829 126.518 87.046 126.423 86.8023 126.322C86.0312 125.996 86.7353 126.764 86.0212 126.447C84.0631 125.618 81.4419 123.758 80.1845 121.126C78.6888 117.42 78.9763 115.795 78.8326 113.462C78.8277 112.689 79.172 113.154 79.234 112.989C79.3572 112.678 79.3885 112.327 79.3767 111.942C79.373 111.718 79.3472 111.601 79.3486 111.165C79.3515 111.086 79.3556 110.998 79.3704 110.869C79.3816 110.793 79.3739 110.772 79.4404 110.481C79.4746 110.346 79.5165 110.178 79.6376 109.897C79.7002 109.756 79.7833 109.584 79.9295 109.363C80.0031 109.253 80.0933 109.13 80.2117 108.994C80.2398 108.961 80.4086 108.772 80.6087 108.608C80.8108 108.44 81.068 108.264 81.3888 108.117C82.0203 107.809 82.9544 107.703 83.6777 107.894C84.411 108.074 84.8896 108.419 85.1918 108.685C85.7773 109.224 85.9235 109.605 86.0042 109.742C86.0735 109.879 86.1169 109.983 86.1513 110.07C86.2186 110.242 86.2509 110.351 86.2778 110.442C86.3054 110.539 86.3176 110.587 86.3267 110.618C86.3365 110.653 86.3452 110.686 86.3532 110.716C86.4197 110.981 86.4392 111.026 86.4767 111.162C86.6304 111.448 86.8304 111.662 86.8799 111.753C87.4073 112.668 87.3026 113.133 87.7606 113.894C87.8792 114.08 88.0043 114.259 88.135 114.429C89.5794 116.42 90.6081 118.264 91.7802 119.657C92.8823 121.011 94.0472 121.955 94.9652 122.273C97.0785 123.123 97.2799 123.399 97.939 123.58C98.5084 123.757 99.1545 123.827 99.8849 123.803C100.541 123.781 101.246 123.688 101.969 123.544C104.752 122.996 105.664 122.433 107.31 120.545C108.679 118.907 109.892 117.156 110.434 115.562C110.906 114.181 111.442 113.13 111.82 112.185C111.978 111.79 111.431 112.022 111.556 111.69C111.765 111.132 111.924 110.632 112.04 110.147C112.615 107.781 113.388 105.629 113.707 103.977C114.192 101.566 114.472 99.4053 114.582 96.988C114.602 96.5648 114.165 97.1503 114.182 96.4652C114.212 95.066 114.299 93.2694 114.45 91.8294C114.523 91.1194 114.848 92.075 114.914 91.3663C114.929 91.2024 114.943 91.0351 114.955 90.8645C115.069 89.3413 115.086 87.7127 115.026 86.1347C114.997 85.3944 114.594 86.5153 114.587 85.5481C114.547 79.3793 114.372 73.3493 115.039 66.9048C115.093 66.3987 115.161 65.8993 115.241 65.4065C115.326 64.8962 116.185 64.5475 116.172 63.4925C115.956 63.3823 115.689 63.3483 115.452 63.2791C115.717 61.241 116.135 59.2746 116.53 57.4596C116.722 56.5691 116.918 55.6569 116.996 55.0534C117.016 54.9065 117.024 54.7897 117.025 54.7646C117.037 54.752 116.988 54.7827 117.132 55.2887C117.219 55.5504 117.379 55.9868 117.86 56.5018C118.337 57.0261 119.126 57.4059 119.686 57.4908C120.77 57.6297 120.915 57.4237 121.017 57.4187C121.463 57.2598 121.852 57.018 122.128 56.793C122.383 56.586 122.573 56.3796 122.718 56.1957C122.966 55.8795 123.093 55.6257 123.165 55.4719C123.319 55.1332 123.344 55.003 123.375 54.8943C123.424 54.6963 123.423 54.6619 123.426 54.6418C123.428 54.6162 123.416 54.7034 123.407 54.7987C123.387 54.9989 123.364 55.2739 123.336 55.5575C123.278 56.1304 123.196 56.7638 123.061 57.4238C122.499 60.1503 121.673 63.0903 120.162 65.8586C119.022 67.9525 117.624 70.1839 115.746 72.1494C115.401 72.5054 116.319 72.1883 115.637 72.8831C115.373 73.1461 115.103 73.4031 114.825 73.6531C113.038 75.247 111.096 77.0347 108.451 78.4087C105.84 79.6515 103.796 80.0261 101.125 80.0232C100.481 79.977 100.849 79.3096 98.9509 79.2394C98.7293 79.2213 97.2402 79.0909 95.8797 78.3793C95.3798 78.1326 95.0041 77.918 94.7931 77.8315C94.7048 77.7957 94.8772 78.3768 94.189 77.8711C93.5175 77.363 92.9661 76.8807 92.4618 76.4468C90.5876 74.8101 88.9914 72.9135 87.7768 70.5514C87.2904 69.5497 87.2937 69.2248 87.1844 68.7784C87.1002 68.3532 87.0539 68.0103 87.0127 67.6677C86.9323 66.9835 86.8901 66.3566 86.8597 65.7369C86.8308 65.0753 87.2795 65.7407 87.2632 65.2673C87.1687 61.9825 86.767 58.5678 87.0429 55.5227C87.2362 53.4931 87.9122 54.2322 88.547 53.1514C88.6359 52.9931 88.6401 51.7571 89.0189 51.6828C89.9691 51.5126 91.014 52.1111 92.0263 51.8579C92.2427 51.7951 92.0055 50.176 92.5343 51.1332C92.5688 51.2074 92.7503 52.3864 92.9333 52.6776C93.0591 52.8798 93.4399 52.5083 93.6028 52.9233C93.7658 53.3338 93.4492 53.7946 93.6476 54.4796C93.8495 55.1652 94.2786 54.8527 94.3635 56.2201ZM103.6 128.012C102.397 128.096 102.701 129.419 103.777 128.649C103.828 128.61 103.663 128.006 103.6 128.012ZM90.6826 58.4411C90.9841 56.962 89.8206 56.6 89.6711 57.4727C89.4652 58.3043 90.5779 58.8709 90.6826 58.4411ZM92.6436 73.1281C92.9456 71.3402 91.0298 71.1038 91.5771 73.091C91.6125 73.2115 92.6303 73.239 92.6436 73.1281ZM88.8441 58.1077C88.861 58.092 88.8503 57.195 88.8324 57.1747C88.3902 56.7093 88.4116 58.5051 88.8441 58.1077ZM105.55 79.413C105.018 79.1683 103.495 79.4588 104.151 79.7827C104.686 80.0479 106.218 79.723 105.55 79.413ZM122.724 100.618C122.748 100.601 122.819 99.9717 122.703 99.9737C122.339 99.9938 122.362 100.867 122.724 100.618ZM121.95 62.7243C121.926 62.8886 121.904 63.0564 121.869 63.2354C121.865 63.2544 121.852 63.309 121.846 63.327C120.346 66.4749 118.22 67.5108 119.971 64.0872C120.295 63.4375 119.79 65.7211 120.299 64.9348C120.72 64.2846 120.857 63.6298 120.94 62.9991L120.915 63.0969C120.82 62.3508 120.815 61.3899 121.38 60.5445C121.537 60.2793 121.918 62.562 121.951 62.7309C121.951 62.7287 121.951 62.7265 121.95 62.7243ZM102.399 126.75C102.372 126.744 101.538 127.035 101.522 127.056C101.209 127.626 102.916 127.035 102.399 126.75ZM122.043 63.3647C122.073 63.3122 121.916 61.2717 121.879 61.2084C121.083 60.2013 121.397 64.3463 122.043 63.3647ZM121.662 73.3918C121.371 72.4066 121.418 71.3156 122.005 70.5957C121.915 71.532 121.82 72.4706 121.662 73.3918Z" fill="#ED9F52"/>
</svg>
