<?xml version="1.0" encoding="UTF-8" standalone="no"?><!DOCTYPE svg PUBLIC "-//W3C//DTD SVG 1.1//EN" "http://www.w3.org/Graphics/SVG/1.1/DTD/svg11.dtd"><svg width="100%" height="100%" viewBox="0 0 2563 1482" version="1.1" xmlns="http://www.w3.org/2000/svg" xmlns:xlink="http://www.w3.org/1999/xlink" xml:space="preserve" xmlns:serif="http://www.serif.com/" style="fill-rule:evenodd;clip-rule:evenodd;stroke-linejoin:round;stroke-miterlimit:2;"><rect id="Artboard2" x="1.055" y="5.621" width="2559.68" height="1493.01" style="fill:none;"/><g id="Layer1"><g><path d="M82.07,81.637l87.914,-0.165l6.97,515.974c-0,0 -17.552,170.476 -143.194,14.887l-3.765,-84.217c-0,-0 60.261,75.068 58.202,-3.946l-6.127,-442.533Z" style="fill:#ee9f50;"/><path d="M228.923,169.576c9.219,-71.789 110.049,-97.828 159.021,-91.981c48.973,5.846 125.54,22.917 134.815,127.061c8.079,90.713 14.886,393.724 14.886,393.724c-0,-0 -2.99,114.099 -111.388,122.016c-26.843,1.96 -80.744,-0 -80.744,-0c-75.349,-4.445 -103.745,-52.299 -108.109,-122.37c-0,-0 -19.657,-341.407 -8.481,-428.45Zm91.288,81.412c-2.603,57.166 10.901,280.738 10.901,280.738c2.895,45.884 -1.982,88.244 61.556,87.563c55.017,-0.589 48.842,-51.59 47.811,-85.221c-1.783,-58.108 -5.24,-203.735 -9.895,-263.11c-5.344,-68.165 5.127,-90.931 -56.95,-90.343c-60.278,0.571 -51.276,23.224 -53.423,70.373Z" style="fill:#ee9f50;"/><path d="M563.998,72.96l34.989,604.864l96.943,-26.178l-22.854,-313.78l161.988,263.732l87.297,-42.35l-39.825,-489.167l-93.311,-0.056l21.872,321.49l-158.147,-317.816l-88.952,-0.739Z" style="fill:#ee9f50;"/><path d="M957.871,547.284c-37.528,-244.555 2.332,-386.423 80.65,-477.259l58.431,0c71.123,97.791 144.716,195.008 134.383,319.926l-88.061,53.974l0.356,-39.261l-99.262,32.424l1.384,68.164l-87.881,42.032Zm79.754,-167.79l101.753,-29.485c-9.258,-64.386 -31.032,-122.483 -69.256,-169.786c-21.995,45.978 -37.986,116.153 -32.497,199.271Z" style="fill:#ee9f50;"/><path d="M1221.38,70.025l2.902,72.879l87.08,-5.558l18.929,216.934l97.502,-9.1l-26.327,-218.788l81.579,-6.925l-1.357,-49.442l-260.308,0Z" style="fill:#ee9f50;"/><path d="M1492.21,70.025l89.867,-2.846l14.337,107.701l108.299,0.916l-16.952,-112.11l94.064,-0.112l49.99,349.827l-93.319,-30.577l-27.348,-155.678l-109.979,-7.039l26.3,134.173l-100.144,-11.816l-35.115,-272.439Z" style="fill:#ee9f50;"/><path d="M1868.92,430.727c-36.486,-208.598 -18.556,-309.122 64.165,-367.153l58.148,0c101.785,77.587 163.132,260.893 159.728,499.436l-85.098,-42.695l-13.381,-106.914l-101.192,-33.907l8.642,90.365l-91.012,-39.132Zm75.133,-123.362c44.204,19.744 73.718,26.371 102.705,31.622c-18.644,-100.348 -53.981,-177.366 -73.927,-189.014c-23.262,37.975 -32.237,90.531 -28.778,157.392Z" style="fill:#ee9f50;"/><path d="M2162.69,70.278l35.874,525.104l85.541,46.414l-13.955,-326.41l136.58,410.159l78.756,59.015l-7.186,-708.01l-91.562,-5.204l9.829,367.037l-145.018,-367.808l-88.859,-0.297Z" style="fill:#ee9f50;"/><path d="M57.72,720.396l7.911,121.217l225.705,42.371l-187.139,448.78l7.577,127.676l348.107,4.733l-3.579,-114.627l-217.263,-5.504l191.449,-455.379l-0.774,-118.935l-371.994,-50.332Z" style="fill:#ee9f50;"/><path d="M491.445,762.637l29.622,702.536l350.987,-0l-3.248,-119.605l-228.536,2.43l-8.519,-199.619l163.671,-7.611l-3.159,-129.343l-162.218,21.106l-0.851,-174.787l226.084,-51.931l-2.301,-141.382l-361.532,98.206Z" style="fill:#ee9f50;"/><path d="M917.654,633.34l119.549,-65.151l20.527,761.276l179.648,-13.631l3.72,139.236l-301.192,2.196l-22.252,-823.926Z" style="fill:#ee9f50;"/><path d="M1381.19,1452.48l-123.034,4.787c-28.691,-428.382 3.089,-783.763 131.289,-1022.75l83.946,-7.102c139.134,224.301 185.622,582.156 174.88,1022.51l-129.169,-1.572l-4.626,-193.875c-41.644,0.62 -90.725,5.477 -136.161,12.416l2.875,185.579Zm47.957,-788.048c-32.99,116.028 -54.077,260.552 -59.065,443.618l140.632,-19.794c-8.402,-160.861 -33.281,-304.544 -81.567,-423.824Z" style="fill:#ee9f50;"/><path d="M1709.39,435.417c83.659,19.147 339.175,39.077 382.732,256.649c15.747,107.35 8.819,205.074 8.19,307.43c-0.596,97.163 4.331,191.469 -11.071,284.124c-21.938,165.164 -186.379,182.687 -378.261,164.819l-1.59,-1013.02Zm128.246,181.451l-4.505,667.485c97.738,11.859 143.293,-7.971 142.64,-118.354l2.225,-396.69c5.044,-113.039 -49.18,-129.331 -140.36,-152.441Z" style="fill:#ee9f50;"/><path d="M2137.24,1454.02c-15.79,-358.563 9.491,-652.476 140.534,-779.913l70.002,49.817c114.67,211.182 162.037,464.429 172.156,740.955l-124.836,-1.11l-2.56,-147.185l-137.007,-22.196l1.425,159.632l-119.714,0Zm119.673,-291.454l135.096,38.599c-7.319,-122.674 -36.508,-225.644 -75.581,-337.355c-30.322,56.974 -52.631,146.52 -59.515,298.756Z" style="fill:#ee9f50;"/></g></g></svg>