<svg width="717" height="931" viewBox="0 0 717 931" fill="none" xmlns="http://www.w3.org/2000/svg">
<path d="M230.128 646.437C220.89 663.467 209.663 680.191 197.664 697.162C195.79 698.945 194.5 699.79 193.443 700.004C192.391 700.266 191.421 699.97 190.266 701.392C187.871 703.796 185.944 715.862 184.388 730.825C184.23 718.82 178.743 707.443 176.56 704.883C174.226 701.86 175.156 704.012 178.488 707.663C181.806 711.439 187.254 717.059 193.65 724.43C191.972 722.072 195.745 725.087 201.342 727.648C206.991 730.393 214.474 733.472 222.609 736.381C238.945 742.235 257.742 747.534 276.915 752.944C275.896 750.94 290.689 751.636 313.719 750.413C328.723 749.879 345.921 748.619 363.615 747.39C373.206 748.895 403.753 738.246 438.598 723.578C458.193 715.822 477.191 707.962 494.295 699.973C505.064 694.949 514.899 689.894 522.341 685.51C530.226 680.677 533.138 679.375 545.614 667.316C547.845 669.972 558.63 652.385 568.435 627.967C574.956 614.945 579.376 599.077 583.04 579.05C585.311 566.735 587.219 553.69 588.94 540.405C589.372 540.575 589.294 541.959 591.234 547.792C592.221 550.629 594.138 554.862 596.882 558.652C599.489 562.365 602.817 565.193 601.146 563.298C603.991 565.451 606.813 566.222 607.099 565.745C607.484 565.309 605.764 564.105 602.91 562.923C597.097 560.481 587.472 557.978 577.433 555.274C564.564 551.276 553.106 549.24 543.556 549.511C533.655 549.795 526.015 552.161 506.442 562.231C505.795 562.501 505.145 562.779 504.492 563.063C488.843 569.832 471.828 581.164 453.161 592.943C441.1 599.385 427.257 614.1 417.903 628.259C415.43 632.214 413.096 636.103 411.207 639.588C410.269 641.31 409.45 642.944 408.857 644.163C408.24 645.338 407.987 646.26 407.661 645.273C407.536 644.941 407.375 644.365 407.023 643.518C406.164 640.961 404.238 638.662 403.011 637.797C401.757 636.87 401.195 636.842 401.149 636.962C401.077 637.272 402.586 638.13 404.336 638.882C407.964 640.451 412.837 642.087 417.729 644.029C426.035 647.908 435.994 649.091 445.975 646.867C451.487 645.657 457.084 643.352 461.339 640.326C466.184 636.517 471.039 632.82 474.642 629.154C476.779 627.061 478.566 624.154 480.559 620.765C481.758 618.741 483.759 617.092 486.148 616.322C488.544 615.54 491.127 615.659 493.401 616.665C495.673 617.684 497.496 619.519 498.55 621.781C499.6 624.034 499.787 626.541 499.08 628.868C497.958 632.491 496.428 637.482 493.294 642.568C488.756 649.894 484.562 654.717 480.695 659.682C473.546 667.832 465.752 673.099 457.052 677.345C442.136 684.559 424.126 687.178 406.806 683.843C400.892 682.863 395.884 683.447 383.567 679.679C382.92 671.682 377.941 664.316 377.939 652.165C378.755 647.846 380.486 644.829 381.965 641.957C384.308 637.461 386.866 632.301 386.704 627.483C386.551 623.191 384.962 619.258 383.481 615.47C383.002 614.242 382.534 613.036 382.143 611.83C381.341 609 380.942 606.201 381.579 603.462C383.142 596.756 382.622 589.146 382.671 580.835C382.693 577.811 382.788 574.705 383.096 571.55C389.877 560.182 397.788 548.948 409.306 538.083C414.293 533.027 419.409 527.743 424.846 522.287C431.188 518.562 437.211 514.934 441.837 510.938C445.987 507.35 448.901 502.596 451.841 497.367C454.457 495.22 457.165 493.084 459.975 490.977C460.818 490.345 461.671 489.716 462.532 489.09C471.609 481.174 494.987 462.785 520.592 455.332C542.494 452.916 563.609 455.115 587.085 459.445C588.904 459.786 590.731 460.181 592.562 460.626C598.894 462.322 605.438 464.5 612.433 466.904C624.964 471.436 639.611 475.73 657.08 484.977C661.556 487.397 665.992 490.862 669.825 495.028C670.682 496.077 676.229 502.076 679.33 508.545C682.622 515.079 684.012 521.417 684.533 526.406C685.201 533.037 684.709 537.991 684.224 542.368C683.1 548.859 682.789 555.212 685.32 561.302C687.588 566.738 690.354 571.87 692.876 576.694C696.888 584.362 700.272 591.313 699.995 597.473C699.476 609.016 701.38 619.8 702.539 629.972C703.961 642.127 704.179 653.58 698.615 661.573C697.774 662.784 696.722 664.125 695.526 665.588C694.876 666.383 694.183 667.224 693.463 668.09C687.663 673.988 680.411 682.798 676.91 700.558C675.45 707.663 675.463 715.541 674.654 723.974C673.538 736.106 670.278 750.113 659.113 760.703C657.459 762.266 655.016 763.29 652.786 764.151C652.508 764.259 652.234 764.364 651.965 764.468C650.359 764.468 649.023 764.633 649.285 765.741C650.146 769.326 650.245 774.285 649.59 780.391C649.13 784.851 648.284 789.873 647.477 794.9C625.348 819.286 601.91 835.926 581.409 849.771C571.854 856.15 562.479 862.039 553.21 867.653C546.151 866.174 539.286 865.05 532.772 864.829C525.521 864.678 518.111 866.742 508.819 869.744C507.135 870.255 505.355 870.821 503.485 871.422C495.354 874.023 485.411 877.381 472.482 880.219C448.697 885.535 423.624 896.435 404.279 903.592C400.252 905.131 396.046 906.639 391.328 908.12C388.873 908.889 386.262 909.649 383.462 910.38C372.066 914.157 358.085 919.056 330.522 924.8C300.444 930.981 266.692 932.816 235.493 925.754C227.247 923.934 219.51 921.615 212.667 919.172C209.02 917.946 205.95 916.949 203.026 916.058C192.671 912.929 180.037 908.59 166.997 903.578C146.672 895.865 125.181 885.912 111.397 879.216C106.554 876.912 101.253 874.36 95.266 871.084C84.7039 865.006 71.912 858.258 54.1816 839.523C51.8921 837.96 48.318 835.116 41.6302 828.468C28.0799 815.786 -3.02184 776.227 0.237869 727.032C0.687752 724.386 1.20254 721.655 1.7832 718.656C2.83897 713.223 6.77949 707.641 11.0483 701.084C17.2019 691.734 23.5261 680.659 25.6579 662.723C26.1781 658.532 26.4337 653.889 26.8945 649.075C27.7264 640.226 29.3532 630.722 33.8525 623.11C35.4216 620.448 37.5476 618.535 39.5939 616.811C40.2914 616.218 40.9874 615.634 41.6611 615.032C42.8782 614.246 43.9638 613.36 44.6608 612.133C48.4145 605.526 51.6989 598.836 54.6758 592.863C58.5104 585.165 61.8435 578.66 64.8759 575.153C70.2795 568.904 73.4362 560.445 76.8531 551.77C79.461 545.147 82.2239 538.388 86.1884 532.514C96.6178 517.291 107.73 495.591 125.928 469.056C127.092 467.124 128.223 465.185 129.369 463.189C133.84 455.417 140.456 451.347 150.071 444.925C156.337 440.76 162.603 436.261 175.542 425.939C177.224 424.624 178.922 423.139 180.623 421.57C183.755 418.542 185.524 414.87 187.19 411.436C189.157 407.375 190.971 403.657 194.534 401.954C197.682 400.451 201.611 401.916 205.337 403.312C209.48 404.871 213.361 406.352 215.609 403.628C216.806 402.178 217.408 399.364 218.135 396.02C218.422 394.698 218.738 393.29 219.106 391.853C219.517 392.465 219.916 392.987 220.226 393.376C222.42 396.12 226.323 395.367 230.144 394.648C231.668 394.362 233.187 394.07 234.571 394.015C239.665 393.81 246.104 389.371 250.761 385.586C252.729 383.985 255.219 383.438 258.144 382.795C259.121 382.592 260.207 382.335 261.281 382.066C263.417 381.317 265.69 380.445 268.097 379.278C270.332 378.195 272.424 377.986 274.142 377.84C275.386 377.734 276.437 377.659 277.215 377.305C277.887 376.997 277.818 375.834 277.746 374.522C277.695 373.578 277.643 372.554 277.861 371.722C278.383 369.734 279.806 368.329 281.185 367.985C281.823 367.824 282.449 367.895 283.067 367.969C283.788 368.055 284.503 368.149 285.242 367.882C288.623 366.66 290.907 363.961 293.288 361.198C295.895 358.168 298.633 355.058 302.804 353.924C304.118 353.566 305.692 353.542 307.203 353.533C308.785 353.522 310.302 353.521 311.383 353.158C315.767 351.684 318.225 347.541 320.112 343.898C320.383 343.378 320.641 342.87 320.879 342.387C322.196 340.374 323.552 338.572 325.106 337.453C328.711 334.858 329.39 331.116 329.905 328.342C330.164 326.91 330.38 325.733 330.933 325.127C331.606 324.876 332.266 324.651 332.933 324.433C333.598 324.342 334.288 324.248 334.806 323.903C334.846 323.877 334.881 323.845 334.92 323.818C338.683 322.729 342.52 321.97 346.308 321.252C354.816 319.641 363.143 318.185 370.4 313.346C371.963 312.303 373.154 310.372 374.374 308.411C375.868 306.009 377.41 303.552 379.716 302.624C385.204 300.415 391.507 299.839 397.739 299.316C407.149 298.517 416.31 297.867 422.919 291.717C424.755 290.026 426.398 287.897 428.049 285.685C428.291 285.264 428.53 284.839 428.767 284.414C429.533 283.04 430.3 281.652 431.119 280.378C431.478 282.008 431.912 283.502 432.316 284.894C433.148 287.765 433.858 290.224 433.525 292.674C433.276 294.465 433.066 296.436 432.935 298.451C432.262 303.103 432.228 307.911 433.812 311.1C434.428 312.356 434.907 313.835 435.385 315.327C436.588 319.068 437.795 322.888 441.339 323.457C441.684 323.515 442.104 323.58 442.574 323.638C445.118 324.061 449.357 324.203 450.832 320.858C451.206 320.007 451.103 318.654 450.985 317.151C450.773 314.45 450.515 311.259 452.896 309.522C453.297 309.229 453.743 308.93 454.205 308.632C456.053 307.442 458.13 306.1 458.166 303.832C458.211 301.219 456.945 298.776 455.475 295.924C453.557 292.211 451.302 287.794 451.03 281.445C450.979 280.188 451.587 279.494 452.052 278.966C452.378 278.594 452.624 278.303 452.518 277.963C452.394 277.573 451.934 276.847 451.351 275.929C449.294 272.689 445.71 267.032 449.834 264.979C450.954 264.422 452.399 264.147 453.709 263.895C455.635 263.526 457.258 263.203 457.028 262.124C456.94 261.715 456.817 261.284 456.679 260.842C458.153 260.348 459.639 259.848 461.14 259.34C463.511 259.72 466.096 258.48 469.405 256.893C470.209 256.508 471.06 256.106 471.958 255.699C473.045 255.332 474.139 254.963 475.241 254.592C476.7 254.154 478.265 253.655 479.874 253.125C481.98 252.779 484.444 252.63 487.331 252.844C493.124 253.269 499.383 255.452 505.606 257.533C508.231 258.408 510.854 259.266 513.449 259.954C512.826 260.492 512.292 261.029 511.949 261.581C509.606 265.357 510.319 270.223 510.955 274.712C511.384 277.695 511.782 280.511 511.266 282.695C510.322 286.695 512.164 289.968 513.524 292.39C514.23 293.646 514.803 294.677 514.793 295.456C514.784 296.081 514.317 296.595 513.836 297.124C513.417 297.586 512.99 298.063 512.838 298.634C511.01 305.555 513.585 307.862 517.405 311.191C519.512 313.025 521.988 315.173 524.283 318.589C526.602 322.259 526.987 323.474 525.468 326.089C528.13 327.187 530.8 328.275 533.472 329.358C534.099 328.906 534.048 327.455 533.825 325.111C533.425 320.927 537.03 317.593 539.84 314.99C541.141 313.784 542.273 312.734 542.763 311.827C545.365 307.009 542.274 303.519 539.54 300.454C538.036 298.766 536.643 297.205 536.383 295.616C536.27 294.936 535.739 294.464 535.199 293.981C534.782 293.607 534.357 293.228 534.115 292.744C532.361 289.227 533.481 285.454 534.556 281.943C535.172 279.931 535.761 278.005 535.778 276.262C535.782 275.732 535.74 275.213 535.693 274.712C535.626 273.98 535.566 273.28 535.673 272.606C535.92 271.069 537.19 269.513 538.62 267.806C539.346 266.934 540.13 266.015 540.812 265.046C541.711 263.784 541.508 262.17 541.302 260.479C541.156 259.286 541.022 258.048 541.268 256.868C541.705 254.738 543.863 253.072 545.924 251.53C546.837 250.851 547.703 250.2 548.424 249.534C548.715 249.264 548.776 248.948 548.669 248.595C550.385 247.192 552.155 245.78 553.937 244.39C554.822 243.371 555.791 242.3 556.757 241.223C566.985 230.098 577.264 218.929 599.188 212.668C603.373 211.47 607.533 209.326 611.744 206.727C612.23 206.556 612.716 206.387 613.201 206.219C627.236 201.383 640.86 197.204 652.81 193.412C656.604 195.554 660.645 196.943 664.793 197.5C669.236 198.1 673.114 197.649 676.724 196.685C679.871 195.714 683.099 194.366 686.617 192.854C692.692 190.245 699.624 187.141 708.72 184.591C724.126 180.34 739.624 174.91 759.158 168.187C760.195 167.838 761.272 167.482 762.342 167.138C778.977 162.102 795.179 156.888 803.299 152.037C807.03 149.912 811.356 149.031 815.918 147.699C817.688 146.892 819.446 146.144 821.174 145.416C831.826 140.957 841.159 137.287 841.302 129.544C841.345 127.082 840.411 123.786 839.439 120.629C838.748 118.38 838.048 116.199 837.672 114.413C839.909 112.746 842.052 111.09 844.098 109.446C849.767 108.43 857.455 104.845 857.078 97.4035C858.687 95.6023 860.189 93.7392 861.572 91.8648C862.14 91.0787 862.687 90.2936 863.223 89.4816C866.008 84.7508 868.719 80.1055 871.385 75.4046C872.466 73.5042 873.541 71.5903 874.606 69.6722C874.617 69.6541 874.628 69.636 874.638 69.6179C876.782 65.7534 878.891 61.8425 880.904 57.9993C881.766 56.3533 882.614 54.7057 883.448 53.0499C885.567 48.8504 887.598 44.6038 889.504 40.3779C889.752 39.8332 890.001 39.2717 890.245 38.7229C890.985 37.072 891.707 35.3784 892.414 33.6611C893.936 29.964 895.381 26.1384 896.744 22.2872C898.934 16.0795 900.979 9.67028 902.585 3.52935C902.846 2.52887 903.489 1.62452 904.414 0.987833C905.34 0.36497 906.474 -0.00569671 907.647 1.99096e-06C908.819 -0.0122387 909.964 0.405102 910.845 1.18867C911.723 1.97931 912.251 3.09021 912.358 4.22005C912.971 11.1139 913.116 18.0808 913.054 25.0817C913.007 29.4133 912.864 33.7794 912.59 38.1386C912.462 40.1551 912.305 42.1716 912.119 44.1855C912.06 44.8437 911.995 45.5166 911.932 46.1733C911.441 51.1846 910.786 56.2794 910.028 61.3032C909.73 63.2844 909.417 65.2588 909.091 67.2285C908.327 71.8432 907.453 76.5171 906.536 81.1315C906.53 81.1595 906.524 81.1876 906.518 81.2156C906.068 83.4821 905.606 85.7432 905.136 87.9851C903.959 93.55 902.732 99.0351 901.415 104.593C901.023 106.118 900.603 107.621 900.137 109.142C898.922 113.206 897.364 117.373 895.599 121.396C894.618 123.637 893.573 125.839 892.496 127.964C891.904 129.123 891.285 130.285 890.649 131.439C878.815 152.724 863.818 168.871 851.901 184.621C847.363 190.044 842.213 195.029 836.901 199.4C819.318 213.598 802.534 221.548 788.426 229.934C782.759 233.503 776.422 237.988 769.967 242.797C755.409 253.604 740.33 266.01 722.747 278.55C716.491 282.874 710.424 286.694 704.581 290.253C689.545 299.361 675.989 306.971 663.256 314.767C643.725 326.603 624.871 339.874 597.817 353.816C580.884 363.414 560.052 377.486 533.992 391.445C517.6 400.503 499.025 410.682 479.446 419.982C451.533 434.479 417.795 453.752 390.882 471.322C371.528 483.332 358.626 492.209 351.181 499.709C336.294 512.914 320.691 527.003 306.362 540.477C302.181 544.422 298.065 548.36 294.373 552.037C296.557 550.538 291.484 556.379 286.925 562.47C282.071 568.779 276.383 576.139 270.524 583.453C268.261 586.278 265.96 589.117 263.627 591.954C256.839 600.909 248.065 614.648 239.523 629.581C236.484 634.89 233.348 640.515 230.128 646.437Z" fill="#A94752"/>
</svg>
