<svg width="341" height="966" viewBox="0 0 341 966" fill="none" xmlns="http://www.w3.org/2000/svg">
<rect x="240" y="516" width="101" height="300" rx="50.5" fill="url(#paint0_linear_175_36)"/>
<rect x="240" y="189" width="101" height="300" rx="50.5" fill="url(#paint1_linear_175_36)"/>
<rect x="120" y="666" width="101" height="300" rx="50.5" fill="url(#paint2_linear_175_36)"/>
<rect x="120" width="101" height="300" rx="50.5" fill="url(#paint3_linear_175_36)"/>
<rect x="120" y="339" width="101" height="300" rx="50.5" fill="url(#paint4_linear_175_36)"/>
<rect y="175" width="101" height="300" rx="50.5" fill="url(#paint5_linear_175_36)"/>
<rect y="535" width="101" height="300" rx="50.5" fill="url(#paint6_linear_175_36)"/>
<defs>
<linearGradient id="paint0_linear_175_36" x1="290.5" y1="883.081" x2="292.128" y2="512.429" gradientUnits="userSpaceOnUse">
<stop offset="0.479763" stop-color="#ED9F52"/>
<stop offset="1" stop-color="#3D9F90"/>
</linearGradient>
<linearGradient id="paint1_linear_175_36" x1="290.5" y1="556.081" x2="292.128" y2="185.429" gradientUnits="userSpaceOnUse">
<stop offset="0.479763" stop-color="#ED9F52"/>
<stop offset="1" stop-color="#3D9F90"/>
</linearGradient>
<linearGradient id="paint2_linear_175_36" x1="170.5" y1="1033.08" x2="172.128" y2="662.429" gradientUnits="userSpaceOnUse">
<stop offset="0.479763" stop-color="#ED9F52"/>
<stop offset="1" stop-color="#3D9F90"/>
</linearGradient>
<linearGradient id="paint3_linear_175_36" x1="170.5" y1="367.081" x2="172.128" y2="-3.57079" gradientUnits="userSpaceOnUse">
<stop offset="0.479763" stop-color="#ED9F52"/>
<stop offset="1" stop-color="#3D9F90"/>
</linearGradient>
<linearGradient id="paint4_linear_175_36" x1="170.5" y1="706.081" x2="172.128" y2="335.429" gradientUnits="userSpaceOnUse">
<stop offset="0.479763" stop-color="#ED9F52"/>
<stop offset="1" stop-color="#3D9F90"/>
</linearGradient>
<linearGradient id="paint5_linear_175_36" x1="50.5" y1="542.081" x2="52.1281" y2="171.429" gradientUnits="userSpaceOnUse">
<stop offset="0.479763" stop-color="#ED9F52"/>
<stop offset="1" stop-color="#3D9F90"/>
</linearGradient>
<linearGradient id="paint6_linear_175_36" x1="50.5" y1="902.081" x2="52.1281" y2="531.429" gradientUnits="userSpaceOnUse">
<stop offset="0.479763" stop-color="#ED9F52"/>
<stop offset="1" stop-color="#3D9F90"/>
</linearGradient>
</defs>
</svg>
