<svg width="351" height="1049" viewBox="0 0 351 1049" fill="none" xmlns="http://www.w3.org/2000/svg">
<rect width="101" height="300" rx="50.5" fill="url(#paint0_linear_175_37)"/>
<rect x="120" y="91" width="101" height="300" rx="50.5" fill="url(#paint1_linear_175_37)"/>
<rect y="652" width="101" height="300" rx="50.5" fill="url(#paint2_linear_175_37)"/>
<rect x="120" y="430" width="101" height="300" rx="50.5" fill="url(#paint3_linear_175_37)"/>
<rect x="250" y="517" width="101" height="300" rx="50.5" fill="url(#paint4_linear_175_37)"/>
<rect x="120" y="749" width="101" height="300" rx="50.5" fill="url(#paint5_linear_175_37)"/>
<rect y="326" width="101" height="300" rx="50.5" fill="url(#paint6_linear_175_37)"/>
<defs>
<linearGradient id="paint0_linear_175_37" x1="50.5" y1="0" x2="50.5" y2="300" gradientUnits="userSpaceOnUse">
<stop offset="0.384615" stop-color="#ED9F52"/>
<stop offset="1" stop-color="#3D9F90"/>
</linearGradient>
<linearGradient id="paint1_linear_175_37" x1="170.5" y1="91" x2="170.5" y2="391" gradientUnits="userSpaceOnUse">
<stop offset="0.384615" stop-color="#ED9F52"/>
<stop offset="1" stop-color="#3D9F90"/>
</linearGradient>
<linearGradient id="paint2_linear_175_37" x1="50.5" y1="652" x2="50.5" y2="952" gradientUnits="userSpaceOnUse">
<stop offset="0.384615" stop-color="#ED9F52"/>
<stop offset="1" stop-color="#3D9F90"/>
</linearGradient>
<linearGradient id="paint3_linear_175_37" x1="170.5" y1="430" x2="170.5" y2="730" gradientUnits="userSpaceOnUse">
<stop offset="0.384615" stop-color="#ED9F52"/>
<stop offset="1" stop-color="#3D9F90"/>
</linearGradient>
<linearGradient id="paint4_linear_175_37" x1="300.5" y1="517" x2="300.5" y2="817" gradientUnits="userSpaceOnUse">
<stop offset="0.384615" stop-color="#ED9F52"/>
<stop offset="1" stop-color="#3D9F90"/>
</linearGradient>
<linearGradient id="paint5_linear_175_37" x1="170.5" y1="749" x2="170.5" y2="1049" gradientUnits="userSpaceOnUse">
<stop offset="0.384615" stop-color="#ED9F52"/>
<stop offset="1" stop-color="#3D9F90"/>
</linearGradient>
<linearGradient id="paint6_linear_175_37" x1="50.5" y1="326" x2="50.5" y2="626" gradientUnits="userSpaceOnUse">
<stop offset="0.384615" stop-color="#ED9F52"/>
<stop offset="1" stop-color="#3D9F90"/>
</linearGradient>
</defs>
</svg>
