<svg width="718" height="856" viewBox="0 0 718 856" fill="none" xmlns="http://www.w3.org/2000/svg">
<path d="M186.831 5.37687C191.425 7.32639 196.58 9.62862 201.778 11.9305C208.015 14.6515 215.429 16.3538 221.62 17.6413C225.066 18.3311 223.284 18.2481 225.665 18.7098C230.358 19.5965 234.79 20.102 239.483 20.8012C241.044 21.0327 239.054 21.1679 240.683 21.3992C249.651 22.6545 258.206 23.3516 267.377 24.1757C267.418 24.1793 267.458 24.183 267.499 24.1866C289.936 25.7846 312.659 25.81 335.28 25.5736C350.382 25.5848 365.14 22.9765 380.924 22.2825C388.232 22.0775 395.653 21.8461 403.114 21.7336C418.305 21.4729 436.817 21.8519 452.511 22.0325C454.349 22.0522 453.261 21.6983 453.611 21.6782C459.077 21.3794 457.283 22.0103 460.824 22.1879C461.53 22.2239 462.245 22.2598 462.968 22.2956C476.692 22.9356 491.613 24.8273 504.373 27.71C510.08 29.0287 504.541 26.9755 510.174 28.7941C510.563 28.9229 509.038 28.8836 510.578 29.3306C514.076 30.3186 520.706 32.3036 523.354 33.2689C528.471 35.1096 529.304 35.4292 534.082 37.3286C535.792 38.0201 537.567 38.7743 539.381 39.5707C544.565 41.8269 549.877 44.8547 554.511 48.0209C555.856 48.9446 554.303 47.3951 556.455 48.8622C558.638 50.3013 563.912 54.6899 565.553 56.2523C567.222 57.8001 566.302 57.3834 566.565 57.6952C567.277 58.548 568.454 59.6149 569.743 60.6496C572.553 62.8326 575.165 65.8367 575.558 66.4316C582.332 76.3693 583.059 87.3307 583.721 97.397C584.012 104.84 580.334 111.176 576.266 116.691C572.725 121.403 568.499 125.695 564.074 129.645C558.426 134.668 552.588 139.366 547 143.576C539.976 148.846 533.385 153.38 526.489 157.591C521.671 160.507 516.65 163.023 511.316 165.543C509.935 166.19 511.736 165.822 510.045 166.61C496.895 172.726 483.281 177.665 470.134 182.937C465.302 184.957 460.444 186.881 455.551 188.711C453.704 189.399 455.938 188.129 454.083 188.796C445.205 192.031 432.007 196.009 424.367 200.5C422.298 201.684 420.646 202.896 419.533 203.949C412.641 207.879 404.713 213.84 398.023 217.157C398.016 217.16 398.008 217.164 398.001 217.168C393.907 219.298 397.532 216.628 392.803 219.776C391.752 220.51 393.332 219.891 391.759 220.975C385.129 225.527 378.659 231.538 373.46 237.675C372.399 238.919 372.936 238.8 372.672 239.183C371.496 240.881 369.613 242.919 367.942 244.636C366.507 246.098 365.329 247.42 364.928 247.936C361.464 252.422 359.189 256.84 356.523 261.107C354.546 264.31 354.056 268.422 354.195 272.917C354.302 275.157 354.581 272.478 354.73 274.645C355.759 285.877 359.912 297.354 364.366 307.729C365.38 310.04 364.079 308.085 364.55 309.197C366.68 314.085 367.84 314.834 370.147 319.364C370.646 320.319 370.078 319.942 370.145 320.131C371.177 323.072 373.253 324.976 373.679 325.622C375.216 327.957 376.604 330.039 377.947 331.967C381.363 336.857 385.041 340.643 390.404 345.138C391.297 345.881 389.557 343.878 392.058 345.99C396.736 349.919 401.481 353.964 406.121 358.214C418.027 368.568 431.982 377.373 444.683 386.331C445.152 386.657 445.479 386.896 445.7 387.069C446.562 387.744 445.818 387.42 445.533 387.317C445.459 387.29 445.416 387.278 445.443 387.304C445.463 387.323 445.483 387.342 445.503 387.361C448.032 389.723 450.281 390.326 451.187 390.9C458.481 395.548 464.839 400.555 470.244 403.062C480.275 410.001 490.528 416.276 500.218 424.086C516.887 438.974 534.143 453.114 550.251 468.64C551.664 470.053 553.092 471.452 554.531 472.841C554.862 473.159 554.001 472.879 554.664 473.512C562.729 481.109 561.576 479.203 567.569 483.487C569.082 484.556 572.769 488.911 573.095 489.291C574.302 490.666 572.52 489.843 572.946 490.279C576.456 493.892 577.123 491.905 582.083 496.634C582.234 496.785 581.353 496.406 581.74 496.829C582.617 497.788 583.565 498.661 584.446 499.587C584.774 499.931 585.095 500.279 585.4 500.638C587.969 503.64 588.324 505.291 593.009 509.142C593.606 509.623 593.491 508.068 597.808 512.293C599.523 513.985 607.283 521.306 609.405 523.433C611.52 525.551 609.8 524.374 609.945 524.533C615.444 530.457 613.113 528.471 615.512 531.776C617.88 535.102 618.214 533.212 619.488 534.275C620.049 534.75 621.09 535.885 622.138 537.139C623.466 538.735 624.881 540.453 625.393 541.092C626.297 542.223 624.898 541.074 625.733 542.049C631.395 548.477 628.924 544.161 631.09 545.951C636.241 550.087 639.397 554.263 644.046 558.206C645.301 559.271 644.429 558.215 645.58 559.123C646.784 560.074 647.842 560.951 648.84 561.806C651.633 564.222 653.839 566.525 657.367 569.912C658.16 570.653 662.286 574.169 664.143 577.145C664.405 577.566 663.28 576.699 664.84 578.622C667.172 581.495 671.388 586.653 674.018 589.628C675.958 591.821 674.164 588.949 676.427 591.861C677.434 593.153 675.257 591.019 677.17 593.433C678.212 594.745 680.212 597.121 682.154 599.351C683.768 601.203 685.263 603.013 686.116 604.071C687.984 606.401 687.25 604.898 687.421 605.071C688.46 606.113 692.015 610.64 692.29 611.072C698.8 620.22 703.892 629.758 709.21 638.961C716.36 651.399 715.598 665.717 716.418 679.516C716.491 681.432 716.837 680.144 716.852 680.437C717.193 687.092 716.034 681.88 715.807 686.53C716.57 685.838 716.496 688.589 716.678 693.278C716.766 695.551 717.043 694.309 717.078 694.515C717.604 697.838 717.059 700.201 716.95 700.799C716.55 703.072 717.125 705.43 716.86 706.959C716.596 708.465 716.083 705.002 716.186 709.505C716.478 710.718 717.087 707.682 717.312 710.397C717.323 710.531 717.332 710.678 717.341 710.84C718.564 722.097 713.304 741.287 708.306 751.94C707.538 753.821 706.73 755.446 706.02 756.788C700.876 765.914 698.496 768.382 694.647 773.045C687.362 781.197 690.366 778.51 685.888 783.633C681.293 788.676 682.662 785.36 681.775 785.857C680.897 786.328 680.362 787.272 679.4 787.992C679.333 788.042 679.279 788.079 679.236 788.105C679.031 788.228 679.073 788.108 679.12 787.987C679.172 787.858 679.23 787.729 679.017 787.881C678.876 787.979 678.607 788.213 678.108 788.644C676.139 790.536 670.024 795.083 669.294 795.809C667.807 797.414 671.158 796.296 664.579 799.763C664.201 799.957 665.235 798.981 663.796 799.741C657.535 803.044 651.095 806.274 644.903 809.896C639.691 812.938 634.038 815.04 628.45 816.787C626.753 817.31 628.141 816.445 627.151 816.743C616.818 819.693 620.66 819.143 615.201 821.498C616.208 820.214 612.9 820.479 605.066 822.832C602.922 823.488 601.955 823.896 601.257 824.251C600.441 824.672 599.971 825.035 598.39 825.718C597.505 826.1 594.121 826.883 593.575 827.267C591.804 828.518 595.14 828.225 587.027 830.502C586.671 830.6 587.684 829.905 586.461 830.27C578.548 832.623 577.815 833.571 569.314 836.287C562.648 838.417 550.635 841.615 542.941 843.733C542.846 842.977 539.404 843.845 536.389 844.926C535.021 845.418 533.726 845.934 532.854 846.384C527.794 847.582 522.271 848.606 517.298 849.205C515.584 849.411 516.663 848.939 516.443 848.936C513.078 848.86 510.942 849.837 509.829 849.994C502.445 851.016 495.85 851.358 489.281 852.188C485.13 852.729 480.934 853.045 476.507 853.445C476.099 853.482 475.463 854.271 472.362 853.838C472.159 853.808 475.954 853.313 470.532 853.501C467.457 853.609 462.831 853.673 458.031 853.947C454.321 854.157 450.578 854.392 447.393 854.712C445.524 854.898 440.95 855.738 437.259 855.389C436.754 855.342 437.295 855.105 436.568 855.01C434.241 854.704 433.027 855.509 430.299 854.923C427.585 854.329 421.941 853.978 414.409 854.292C414.141 854.299 412.365 854.877 409.948 854.784C406.126 854.646 400.768 854.206 396.782 853.812C394.911 853.628 396.071 854.122 395.746 854.097C387.557 853.459 380.99 851.784 373.814 850.562C369.72 849.944 365.399 849.409 360.471 848.912C357.969 848.648 350.714 848.577 345.9 847.69C340.63 846.662 346.248 845.571 334.099 844.408C332.014 844.179 329.637 844.276 326.916 844.203C323.255 844.105 318.991 843.742 314.12 842.026C301.559 839.667 289.816 836.819 277.555 834.691C273.245 833.947 268.88 833.195 264.423 832.467C263.655 832.342 261.11 832.525 259.311 832.166C256.642 831.632 255.236 831.04 253.335 830.638C245.373 828.941 238.033 827.645 230.393 825.827C230.383 825.825 230.374 825.823 230.364 825.82C227.501 825.129 228.569 825.064 225.133 824.21C221.691 823.342 219.29 823.167 214.689 821.733C211.216 820.644 207.944 818.856 203.339 817.436C203.088 817.903 201.784 817.731 199.483 817.193C198.053 816.858 196.251 816.331 194.119 815.575C193.052 815.192 194.07 815.918 193.558 815.75C191.466 815.061 189.732 813.975 187.81 813.171C187.344 812.975 187.188 813.218 186.799 813.067C183.452 811.81 178.836 808.214 178.066 807.598C176.572 806.421 175.409 805.669 174.319 805.003C173.219 804.33 172.192 803.762 170.977 802.946C168.553 801.34 172.419 803.338 169.526 801.55C163.5 797.87 155.332 793.995 148.934 790.781C146.393 789.515 147.957 790.72 147.59 790.547C142.25 788.003 137.137 784.974 133.86 784.17C133.782 784.069 133.705 783.972 133.63 783.879C131.062 780.673 130.393 782.61 123.251 778.575C122.673 778.248 122.337 777.032 124.677 778.058C127.015 779.084 130.333 781.092 133.582 782.498C133.704 782.551 133.924 782.631 134.212 782.729C135.764 783.261 139.105 784.242 139.647 784.464C144.405 786.389 144.427 787.954 144.644 788.149C147.029 790.265 152.688 792.019 154.108 792.652C160.557 795.531 165.867 798.371 171.134 801.185C173.298 802.349 174.403 802.584 175.584 803.002C176.271 803.246 176.971 803.547 177.915 804.151C186.353 809.429 188.764 812.587 197.826 814.698C199.051 814.943 198.88 814.416 200.208 814.69C201.02 814.854 202.371 815.297 204.87 816.31C205.294 816.485 210.305 818.647 213.439 819.019C213.832 819.066 213.897 818.782 214.401 818.893C217.784 819.638 219.957 820.447 223.639 821.256C225.903 821.753 228.455 822.281 231.056 822.851C232.683 823.207 234.33 823.582 235.938 823.982C238.458 824.61 241.598 825.845 242.789 826.235C246.146 827.346 249.964 827.492 252.005 828.378C254.067 829.269 249.712 829.117 255.308 830.544C255.665 829.844 256.297 829.178 256.781 828.498C263.856 829.91 270.874 831.309 277.919 832.599C283.235 833.572 288.535 834.637 293.871 835.698C295.418 836.005 293.918 835.287 295.578 835.607C302.579 836.964 308.604 838.544 315.84 839.911C319.519 840.603 323.459 841.185 327.37 841.738C329.4 842.024 331.431 842.286 333.429 842.549C336.843 843.982 345.594 844.691 351.986 845.296C354.225 845.519 354.056 845.735 355.647 845.948C361.656 846.75 358.897 845.744 360.565 845.771C366.962 845.908 368.02 847.331 374.107 848.379C374.864 848.512 375.693 848.656 376.608 848.808C377.076 848.865 382.597 848.984 383.319 849.053C388.02 849.511 384.015 849.514 386.915 850.076C392.15 851.039 395.861 851.7 402.145 851.882C403.981 851.936 408.404 851.599 411.968 852.133C412.43 852.203 412.166 852.501 412.541 852.529C419.389 852.969 419.648 851.967 423.511 851.632C427.403 851.29 433.566 851.785 434.749 851.931C437.976 852.319 432.336 852.221 432.109 852.269C430.065 852.897 434.463 852.693 437.904 852.606C438.385 853.533 443.183 853.27 441.407 852.509C441.195 852.428 438.559 852.626 437.904 852.606C440.785 851.576 446.047 851.225 451.824 851.742C454.267 851.952 452.439 852.49 457.907 852.094C458.575 852.045 459.333 851.984 460.225 851.911C463.96 851.615 462.468 851.05 465.771 850.708C472.778 849.97 481.697 850.383 488.916 849.394C489.473 849.321 490.045 849.246 490.582 849.175C493.403 848.813 490.608 848.777 492.54 848.523C497.652 847.87 502.143 847.75 507.196 847.066C507.653 847.003 506.496 846.756 508.065 846.58C517.751 845.465 526.357 844.336 535.56 841.903C537.695 841.332 539.873 840.729 542.119 840.088C547.957 838.432 558.32 835.115 564.355 833.303C574.821 830.175 587.807 826.638 596.647 823.641C598.71 822.943 599.86 822.499 600.582 822.175C601.923 821.582 601.904 821.365 603.479 820.704C608.223 818.71 617.056 817.15 618.229 816.935C618.27 816.931 613.26 818.461 615.999 817.872C617.67 817.805 618.172 816.953 618.229 816.935C619.031 816.831 628.981 813.885 630.83 813.051C631.858 812.637 631.154 812.519 631.689 812.308C635.67 810.727 639.528 808.957 643.042 806.791C651.397 801.642 660.163 797.419 668.34 792.576C668.552 792.455 668.446 792.982 668.939 792.692C672.604 790.527 675.337 788.442 677.404 786.228C679.419 784.076 681.279 781.964 683.351 779.61C687.773 774.585 691.241 770.663 694.202 768.004C697.283 764.056 701.495 758.306 703.425 754.749C704.765 752.357 704.859 751.166 704.863 750.586C704.869 750.287 704.843 750.123 704.883 750.009C708.64 739.099 711.322 733.213 712.844 721.674C713.18 718.907 713.433 714.72 713.293 710.485C713.165 706.184 713.03 701.86 712.927 698.833C712.761 693.938 712.882 690.971 712.664 686.479C712.634 685.876 712.308 686.494 712.29 686.31C711.76 681.296 712.651 683.697 712.773 682.663C713.204 678.882 713.457 676.578 712.888 670.172C712.758 668.693 711.298 664.503 710.96 661.91C710.506 658.531 711.103 659.743 710.488 656.266C710.426 655.967 710.2 656.057 709.812 653.948C708.979 649.534 707.596 645.254 705.271 641.288C702.188 635.979 699.178 630.589 696.082 625.511C695.31 624.247 695.939 626.085 694.815 624.268C690.138 616.68 684.628 608.892 678.909 602.188C678.175 601.322 677.46 600.467 676.757 599.619C675.193 597.724 676.421 598.699 676.14 598.238C674.415 595.419 670.85 592.371 670.35 591.798C661.495 581.776 654.92 572.762 646.079 565.118C642.779 562.344 639.185 559.526 635.38 556.371C634.577 555.756 628.096 551.063 626.111 548.03C625.967 547.826 624.007 544.859 621.552 542.961C621.4 542.84 622.61 544.687 620.051 541.888C619.611 541.402 619.145 540.897 618.622 540.327C616.238 537.726 612.807 534.419 610.027 531.242C608.972 530.03 606.735 526.872 602.838 523.969C602.586 523.784 596.273 519.591 594.966 517.092C594.758 516.683 595.732 516.324 591.237 512.65C590.378 511.945 591.667 513.499 589.488 511.558C586.909 509.256 583.927 506.131 580.813 503.111C579.932 502.259 579.017 501.433 578.078 500.656C577.365 500.055 574.064 497.82 571.991 495.324C571.667 494.932 572.593 495.332 571.348 494.175C565.413 488.686 558.683 483.312 552.642 477.489C550.506 475.423 551.966 476.078 549.799 473.866C549.181 473.23 548.374 472.413 547.484 471.513C545.366 469.37 542.556 466.809 540.765 465.428C538.222 463.472 540.297 466.409 536.675 463.284C523.184 451.714 509.893 440.026 496.666 428.079C494.701 426.327 492.188 424.513 489.777 422.79C487.28 421.03 489.206 422.718 485.476 420.155C474.106 412.412 455.468 400.374 442.758 391.432C440.054 389.537 437.603 387.793 435.538 386.272C426.117 379.321 438.533 387.239 431.237 382.07C427.718 379.578 423.325 377.708 422.449 377.134C414.489 371.905 409.109 367.76 402.61 362.06C402.144 361.639 401.68 361.227 401.207 360.812C399.792 359.574 400.897 361.085 399.711 360.045C395.615 356.459 391.386 352.657 387.346 349.256C385.534 347.723 385.677 348.238 384.029 346.767C380.105 343.246 376.589 339.73 373.586 335.157C373.581 335.15 373.577 335.143 373.572 335.137C373.529 335.069 373.555 335.082 373.618 335.133C373.886 335.358 374.782 336.239 373.894 334.931C373.73 334.684 373.499 334.353 373.185 333.908C369.465 328.658 365.731 321.741 362.239 315.353C361.212 313.451 360.53 313.678 359.022 309.246C358.724 308.308 359.913 309.153 357.176 304.434C356.684 303.675 352.507 295.426 351.907 290.858C351.717 289.65 351.553 286.567 350.904 283.999C350.815 283.652 350.753 285.133 350.274 282.996C348.873 275.554 347.266 266.95 352.008 258.281C352.059 258.196 352.11 258.111 352.161 258.026C353.15 256.345 351.325 258.646 352.799 256.122C355.453 251.489 358.699 245.478 363.082 240.48C365.144 238.111 367.179 235.805 369.102 233.723C371.199 231.468 370 233.256 370.176 233.111C372.997 230.821 373.977 228.79 374.805 227.899C379.977 222.399 384.787 218.958 390.623 215.103C392.252 214.048 390.901 214.482 391.212 214.25C394.478 211.909 392.248 213.986 394.462 212.773C394.746 212.622 395.033 212.47 395.324 212.317C400.809 209.455 406.579 205.188 412.191 201.545C414.361 200.145 411.685 201.354 413.65 200.106C416.265 198.459 419.006 196.865 421.909 195.447C431.744 190.648 441.954 187.395 451.36 183.888C453.641 183.051 452.33 183.896 452.83 183.779C456.283 182.982 460.785 180.413 461.858 179.894C464.318 178.714 466.025 177.987 467.719 177.293C469.409 176.6 471.034 176.001 473.227 175.1C489.192 168.544 508.275 161.604 523.415 152.606C528.815 149.306 533.906 145.822 538.536 142.501C546.528 136.744 553.728 131.128 560.336 125.409C569.122 117.594 578.342 108.098 578.205 97.7314C577.953 93.5392 577.554 89.3034 576.774 85.0738C576.463 83.451 576.367 85.1652 576.083 83.7731C574.535 76.2373 571.584 69.3515 566.181 64.9204C557.597 57.4629 549.653 50.6636 539.821 46.2355C538.442 45.6045 540.261 46.875 538.037 45.8942C537.665 45.7334 537.28 45.5697 536.883 45.4039C532.345 43.495 526.883 41.3135 522.426 39.6494C520.055 38.7666 523.369 39.5456 520.982 38.6709C515.395 36.6378 509.266 34.8472 503.308 33.5257C500.769 32.9704 504.485 34.2345 501.211 33.4972C488.544 30.7052 475.719 29.2521 462.789 28.8246C452.661 28.4911 442.506 28.2011 432.236 27.9213C430.597 27.8779 429.188 27.0454 425.746 27.2033C425.489 27.4323 425.506 27.7015 425.391 27.9461C410.556 27.999 395.905 28.3096 381.094 28.7869C366.507 29.4017 350.935 32.0758 335.396 32.1035C331.384 32.1637 327.369 32.209 323.349 32.2391C321.906 32.2495 324.416 32.6661 321.601 32.6873C305.357 32.7808 289.608 32.8131 272.933 31.599C271.291 31.462 272.189 30.7827 267.253 30.5526C267.193 30.5494 267.102 30.5441 266.988 30.5372C265.406 30.4459 258.974 29.9971 257.201 29.9838C256.943 29.985 258.242 30.4659 255.889 30.2586C242.223 29.0117 227.884 27.342 214.31 24.1302C212.133 23.5977 214.549 23.7591 212.992 23.3698C208.353 22.1838 203.505 20.8613 198.767 18.8159C192.655 16.1479 186.61 13.4435 181.077 10.8394C174.67 7.85183 177.338 8.27098 174.105 6.25207C173.647 5.94893 169.592 4.41483 169.495 4.02004C169.234 2.92592 171.612 2.63848 171.105 1.39178C171.039 1.25448 169.561 0.737822 168.404 0.414563C167.813 0.24447 167.267 0.130242 167.193 0.0655237C167.096 0.000693167 167.571 -0.0465141 168.585 0.077272C168.961 0.065248 173.26 1.36445 174.297 1.6098C175.038 1.76519 173.912 0.912729 175.408 1.32763C176.892 1.7433 178.311 2.66843 180.698 3.47438C183.073 4.28071 182.241 3.43752 186.831 5.37687ZM710.878 737.639C712.329 734.044 711.173 733.154 710.325 737.203C710.283 737.4 710.802 737.823 710.878 737.639ZM281.109 834.303C286.044 835.808 289.648 835.641 286.182 834.5C282.709 833.368 279.602 833.849 281.109 834.303ZM229.088 824.307C229.639 824.484 230.147 824.627 230.616 824.741C234.693 825.728 235.431 824.537 230.882 823.598C230.558 823.53 230.208 823.464 229.832 823.399C229.465 823.335 228.755 824.2 229.088 824.307ZM190.239 12.9647C190.197 12.9261 187.309 11.6326 187.234 11.6198C185.522 11.3317 191.292 13.9146 190.239 12.9647ZM179.746 807.479C181.189 808.697 185.982 811.11 184.14 809.679C182.655 808.55 177.943 805.995 179.746 807.479ZM643.758 558.819C643.722 558.765 641.978 557.313 641.943 557.429C641.827 557.809 644.339 559.73 643.758 558.819ZM101.207 765.513C101.304 765.653 101.406 765.789 101.512 765.922C102.903 767.648 104.723 768.82 106.334 769.737C113.889 773.749 116.137 775.937 105.788 770.903C105.782 770.9 105.766 770.892 105.76 770.89C105.739 770.879 105.717 770.867 105.695 770.856C104.935 770.454 105.202 770.534 105.822 770.765C105.827 770.768 105.841 770.774 105.846 770.777C107.155 771.199 110.086 772.305 108.077 771.253C107.392 770.896 106.725 770.573 106.076 770.276C104.015 769.243 102.18 768.206 100.693 766.583C98.9315 764.656 98.3284 762.01 98.0733 759.138C98.0357 758.57 98.5146 760.133 99.1847 761.866C99.8107 763.637 100.978 765.27 101.221 765.529C101.216 765.524 101.211 765.518 101.207 765.513ZM713.063 735.955C713.114 735.886 713.933 732.86 713.923 732.775C713.938 731.034 712.304 737.118 713.063 735.955ZM548.176 467.352C548.098 467.196 542.693 462.244 542.498 462.136C539.222 460.104 550.07 470.05 548.176 467.352ZM542.812 843.739C540.889 844.559 538.687 845.304 536.629 845.801C535.271 846.13 533.976 846.333 532.869 846.381C534.093 846.096 535.315 845.79 536.536 845.462C538.629 844.899 540.719 844.319 542.812 843.739Z" fill="#ED9F52"/>
<path d="M176.165 52.9675C179.947 54.1979 184.28 55.6632 188.566 56.9444C191.958 57.9612 195.398 58.843 198.437 59.5837C200.58 60.0995 199.438 60.0987 200.922 60.4578C203.827 61.1528 206.595 61.5611 209.497 62.2058C210.459 62.42 209.185 62.5715 210.196 62.7873C214.702 63.7441 219.065 64.4519 223.592 65.2697C224.6 65.452 225.606 65.6178 226.641 65.7742C237.866 67.4956 249.722 66.5905 261.674 67.5346C278.08 68.7155 294.501 69.1848 311.303 69.4411C317.68 69.6978 324.137 69.2639 332.153 70.7549C336.15 72.1014 339.331 74.8564 341.647 77.67C342.431 78.634 342.235 77.8522 342.402 78.0215C344.924 80.8035 343.634 80.1855 344.78 82.2536C347.225 86.9626 348.977 92.1528 350.454 97.2557C351.592 101.196 352.486 105.177 352.974 108.977C353.381 112.731 353.746 108.891 353.61 112.744C353.596 113.01 353.207 112.062 353.208 113.102C353.262 115.453 352.968 119.945 352.528 121.757C351.729 125.234 351.539 125.81 350.267 128.926C348.464 133.196 345.06 137.483 342.124 141.115C341.503 141.897 342.622 141.107 341.659 142.373C340.97 143.278 339.423 145.152 338.392 146.542C337.937 147.152 337.542 147.657 337.281 147.971C336.369 149.059 336.493 148.413 336.29 148.576C334.629 149.93 332.092 154.219 331.65 154.717C324.37 163.827 315.272 169.544 305.602 173.975C303.991 174.786 302.397 175.629 300.901 176.575C295.477 179.991 290.099 183.696 285.289 187.2C281.319 190.089 277.732 192.827 274.243 195.67C271.253 198.109 268.381 200.672 265.505 203.579C264.851 204.243 265.919 203.766 265.126 204.577C259.867 209.968 255.117 215.813 250.436 221.787C247.754 225.205 245.575 229.11 243.612 233.16C243.091 234.244 243.388 232.676 242.848 233.755C240.084 239.254 236.504 247.799 235.191 253.213C234.962 254.225 234.889 255.174 234.959 255.928C233.577 260.551 232.852 266.606 232.22 271.054C231.829 273.933 231.58 271.097 231.571 274.671C231.575 275.479 231.974 274.445 231.956 275.656C231.886 280.729 231.805 286.287 232.2 291.304C232.281 292.321 232.588 292.03 232.658 292.316C233.223 294.717 232.746 298.798 232.771 299.682C232.862 303.896 233.237 307.387 233.786 310.878C234.123 312.997 234.522 315.076 235.015 317.368C235.323 318.772 235.372 317.026 235.687 318.363C237.334 325.361 239.74 332.379 242.608 338.823C243.243 340.248 242.293 339.113 242.582 339.803C243.898 342.855 244.859 343.186 246.269 346.031C246.571 346.628 246.114 346.454 246.144 346.577C246.626 348.519 248.147 349.569 248.412 349.977C251.842 355.208 253.444 358.965 256.781 364.094C257.18 364.71 256.643 363.093 257.744 364.841C258.802 366.53 259.843 368.257 260.841 370.031C266.597 380.118 274.363 389.61 281.11 399.039C282.336 400.757 281.195 399.728 281.245 399.855C282.081 401.926 283.518 402.614 283.942 403.158C285.468 405.133 286.767 407.199 287.882 409.174C289.126 411.377 290.643 413.208 292.279 414.351C298.379 421.502 306.031 427.429 313.174 433.894C321.633 441.595 327.857 450.864 335.732 458.471C337.228 459.937 338.662 461.443 340.065 462.98C340.262 463.195 339.627 463.085 340.022 463.513C344.69 468.674 344.163 467.317 347.81 470.244C348.722 470.977 350.426 474.201 350.576 474.472C351.151 475.479 349.952 474.966 350.169 475.281C351.97 477.878 353.037 476.27 355.808 479.494C355.892 479.597 355.27 479.396 355.476 479.688C356.115 480.598 356.93 481.346 357.54 482.249C358.932 484.316 358.813 485.569 361.633 488.14C361.99 488.466 362.336 487.226 364.71 490.183C365.659 491.357 369.897 496.533 371.014 498.039C372.127 499.53 371.061 498.747 371.132 498.858C373.949 503.084 372.595 501.696 373.655 504.088C374.16 505.242 374.628 505.491 375.038 505.489C375.476 505.502 375.884 505.281 376.281 505.656C377.104 506.371 378.827 509.76 379.116 510.637C379.443 511.502 378.708 510.604 379.031 511.352C381.015 516.336 380.787 513.121 381.776 514.636C384.019 518.311 383.926 521.848 384.868 525.522C385.12 526.522 385.148 525.639 385.42 526.52C386.474 530.013 386.63 532.227 387.897 536.173C388.105 536.82 389.535 539.916 389.517 542.133C389.514 542.447 389.034 541.667 389.319 543.186C389.377 543.493 389.443 543.833 389.517 544.198C389.993 546.53 390.663 549.873 391.155 551.968C391.575 553.759 391.65 551.598 391.936 553.901C392.059 554.923 391.435 553.103 391.687 555.019C391.944 556.924 392.768 561.758 393.054 563.602C393.348 565.442 393.552 564.379 393.6 564.524C393.881 565.404 394.568 568.922 394.609 569.236C395.578 576.002 396.245 582.574 396.857 589.071C397.665 597.811 397.961 606.448 397.267 615.359C397.163 616.592 397.625 615.81 397.613 615.999C397.297 620.213 396.682 616.784 395.952 619.636C396.775 619.334 396.439 621.011 395.926 623.943C395.67 625.348 396.126 624.651 396.129 624.785C396.119 626.972 395.136 628.258 394.919 628.591C394.116 629.818 394.159 631.416 393.566 632.233C392.978 633.03 393.279 630.84 392.356 633.49C392.35 634.325 393.752 632.601 393.125 634.667C392.475 636.805 391.442 639.38 390.389 642.09C387.67 649.269 384.779 658.057 383.095 662.463C380.829 668.551 379.997 670.499 378.271 673.886C377.876 674.64 377.543 675.263 377.264 675.785C375.185 679.46 376.327 678.418 374.359 681.68C371.937 685.312 372.153 682.772 371.558 683.089C370.96 683.372 370.771 684.059 370.164 684.516C369.56 684.966 370.466 683.645 369.277 684.899C368.119 686.167 365.089 689.856 364.825 690.489C364.305 691.841 366.345 690.875 362.776 693.842C362.571 694.011 362.971 693.171 362.196 693.832C358.654 696.848 355.099 699.965 351.765 703.305C349.216 705.827 346.095 707.599 343.003 709.074C341.999 709.542 342.709 708.75 342.125 709.015C335.94 711.627 338.378 711.174 335.218 713.262C335.628 712.045 333.544 712.295 328.738 713.979C325.852 714.976 326.487 715.2 324.697 716.113C324.165 716.386 322.01 716.781 321.694 717.09C320.642 718.108 322.841 718.19 317.713 719.491C317.487 719.547 318.089 718.986 317.314 719.204C312.345 720.587 311.939 721.417 306.626 723.082C304.224 723.832 300.696 724.74 297.222 725.626C294.632 726.287 292.077 726.902 290.034 727.421C289.844 726.348 285.374 727.787 283.7 728.971C280.543 729.728 277.174 730.563 274.083 731.14C273.029 731.336 273.649 730.876 273.509 730.872C271.368 730.794 270.143 731.797 269.473 731.967C262.106 733.781 255.951 734.317 248.912 735.974C248.662 736.033 248.347 736.852 246.375 736.591C246.245 736.572 248.554 735.876 245.181 736.356C241.821 736.837 235.43 737.293 230.812 738.229C229.668 738.461 226.899 739.429 224.56 739.262C224.253 739.238 224.561 738.976 224.097 738.918C222.617 738.737 221.957 739.597 220.195 739.245C219.788 739.164 219.246 739.12 218.674 739.124C216.713 739.167 213.859 739.485 210.317 740.368C210.17 740.404 209.15 741.172 207.676 741.397C205.323 741.748 201.97 742.234 199.569 742.901C198.421 743.219 199.259 743.38 199.061 743.442C199.011 743.458 198.961 743.473 198.91 743.489C198.896 743.493 198.854 743.501 198.839 743.502C190.97 744.415 185.266 744.58 176.773 745.14C175.219 745.242 170.743 746.125 167.679 745.963C164.302 745.787 167.568 743.671 159.962 744.716C156.874 745.136 153.14 747.784 147.502 746.994C139.448 747.836 131.819 748.109 123.915 748.707C121.329 748.846 118.639 749.018 115.966 749.248C115.474 749.29 113.973 750.014 112.826 750.056C111.103 750.118 110.192 749.85 108.964 749.882C103.871 750.006 99.229 750.45 94.3266 750.593C92.4742 750.647 93.1154 750.306 90.8829 750.37C88.6791 750.432 87.2024 750.903 84.1903 750.806C81.9158 750.731 79.6149 749.957 76.5989 749.957C76.5057 750.802 74.4461 750.854 70.7699 751.194C70.0656 751.26 70.8318 751.528 70.499 751.575C69.1459 751.769 67.8653 751.567 66.5863 751.772C66.2736 751.821 66.2678 752.109 66.0123 752.165C63.8282 752.657 60.2179 752.122 59.5902 752.029C57.2171 751.674 56.1021 752.081 54.2888 751.967C52.4685 751.853 55.1773 751.562 53.0524 751.523C48.6506 751.444 43.0028 751.655 38.5348 751.77C36.7564 751.817 37.9806 752.166 37.7264 752.181C34.0398 752.384 30.3055 752.081 28.2868 752.902C25.6726 750.999 26.0724 753.156 20.7923 752.907C20.3769 752.887 19.8243 751.968 21.4109 751.786C23.0023 751.605 25.419 751.83 27.6275 751.554C28.1517 751.489 31.1172 750.53 31.5289 750.466C34.7222 749.961 35.2106 751.343 35.3846 751.415C37.3338 752.187 40.9675 751.14 41.9297 751.047C46.3363 750.621 50.0822 750.707 53.772 750.383C56.1744 750.173 56.3913 749.252 58.2851 749.222C64.5868 749.122 66.8249 750.328 72.7244 749.03C73.9939 748.753 72.6883 747.797 77.2786 748.431C77.5649 748.471 80.981 749.076 82.9122 748.554C83.155 748.488 83.1345 748.198 83.4592 748.162C85.6388 747.928 87.078 748.11 89.4457 747.913C91.7977 747.717 94.645 747.447 97.3409 747.442C98.9723 747.439 101.074 747.9 101.86 748.001C104.081 748.296 106.414 747.572 107.786 747.978C109.172 748.385 106.514 749.206 110.143 749.353C110.244 748.591 110.516 747.802 110.696 747.033C115.094 746.857 119.455 746.738 123.816 746.58L123.76 746.583C127.272 746.378 130.689 746.166 134.21 745.889C135.189 745.811 134.16 745.48 135.204 745.387C139.64 744.991 143.519 744.989 148.104 744.523C151.644 744.161 155.535 743.427 159.24 743.027C161.569 743.713 167.082 742.981 171.08 742.734C172.476 742.648 172.427 742.884 173.417 742.878C177.219 742.845 175.367 742.23 176.394 742.024C180.796 741.142 181.313 742.838 186.528 742.347C186.798 742.322 190.118 741.107 190.556 741.01C193.477 740.376 191.089 741.286 192.932 741.191C195.014 741.082 196.704 741.042 198.606 740.886L198.187 740.964C199.409 740.623 200.714 740.264 202.256 739.833C203.41 739.497 206.147 738.427 208.457 738.528C208.761 738.539 208.644 738.866 208.884 738.847C213.201 738.482 213.145 737.52 215.435 736.765C216.191 736.511 217.095 736.326 217.992 736.176C220.132 735.815 222.024 735.922 222.592 735.961C224.682 736.161 221.058 736.393 220.937 736.474C219.708 737.257 222.53 736.691 224.645 736.468C225.097 737.353 228.042 736.914 226.857 736.224C226.703 736.151 225.096 736.45 224.645 736.468C226.381 735.302 229.646 734.774 233.308 735.169C235.051 735.348 233.504 736.036 238.578 735.179C240.851 734.787 239.906 734.265 241.89 733.806C246.472 732.751 252.553 732.401 257.288 731.457C258.993 731.117 257.261 731.067 258.428 730.821C261.527 730.161 264.329 729.893 267.413 729.124C267.693 729.053 266.927 728.832 267.897 728.628C275.222 727.064 281.621 725.808 289.191 723.785C291.01 723.297 293.541 722.543 296.091 721.751C298.654 720.955 301.181 720.173 303.09 719.632C309.658 717.775 317.841 715.873 323.311 713.925C326.872 712.655 325.96 712.559 327.403 711.797C330.18 710.343 335.574 709.184 336.288 709.006C336.327 709.004 333.37 710.284 335.033 709.824C336.12 709.814 336.253 709.022 336.288 709.006C336.799 708.945 342.616 706.37 343.594 705.635C344.148 705.277 343.656 705.152 343.949 704.967C345.93 703.712 347.776 702.333 349.183 700.805C353.549 696.08 358.412 691.918 362.975 687.753C363.091 687.653 363.196 688.096 363.464 687.856C367.204 684.495 368.956 681.815 370.998 678.438C372.006 676.746 372.854 675.218 373.645 673.874C374.456 672.493 375.235 671.305 376.046 670.339C377.264 667.503 379.142 663.415 380.173 661.008C381.208 658.605 380.589 658.005 380.651 657.785C382.416 651.118 383.882 647.243 386.487 640.586C386.601 640.3 386.719 640.009 386.839 639.712C388.264 636.312 390.655 629.943 391.405 626.33C392.058 623.484 392.564 621.792 392.856 619.103C392.893 618.74 392.503 619.056 392.506 618.944C392.505 615.917 393.131 617.448 393.359 616.843C394.141 614.65 394.586 613.251 394.475 609.295C394.452 608.391 393.289 605.735 393.186 604.103C393.054 601.959 393.508 602.772 393.318 600.517C393.3 600.322 393.042 600.371 392.983 598.998C392.844 595.965 392.624 592.793 392.308 589.575C391.949 585.923 391.563 582.236 391.107 578.657C390.99 577.733 390.72 578.97 390.543 577.636C389.713 571.374 388.759 564.542 387.902 558.485C387.692 556.995 388.144 557.873 388.174 557.536C388.349 555.462 387.054 552.809 386.947 552.356C386.363 549.848 385.823 547.477 385.289 545.189C383.437 537.356 382.422 530.22 379.503 522.174C379.309 521.574 376.971 517.594 376.726 515.524C376.718 515.389 376.505 513.24 375.191 511.974C375.109 511.902 375.407 513.123 374.359 511.29C373.793 510.325 372.927 509.134 371.966 507.927C371.018 506.732 370.054 505.446 369.265 504.153C368.732 503.28 367.811 500.975 365.463 498.991C365.317 498.871 361.377 496.088 361.019 494.243C360.963 493.945 361.874 493.55 359.213 491.096C358.704 490.63 359.335 491.722 358.081 490.418C356.157 488.422 353.995 485.453 351.468 483.152C351.026 482.75 348.901 481.265 347.943 479.426C347.793 479.138 348.427 479.381 347.752 478.557C344.543 474.636 340.837 470.844 337.456 467.038C336.25 465.691 337.269 465.995 336.037 464.56C335.341 463.752 334.168 462.492 333.006 461.402C332.073 460.528 331.17 459.692 330.477 459.141C328.86 457.838 329.853 460.032 327.649 457.841C320.99 451.154 315.765 443.733 309.538 437.933C306.717 435.308 303.786 432.721 300.821 430.097C299.363 428.802 300.385 430.097 298.222 428.186C294.005 424.327 287.757 419.206 283.319 411.828C280.313 406.748 276.498 401.823 274.207 398.316C270.157 392.232 276.054 399.28 272.813 394.734C271.247 392.542 268.717 390.786 268.299 390.279C264.203 385.341 261.895 381.461 258.643 376.554C257.974 375.527 258.279 376.751 257.717 375.873C257.086 374.884 256.477 373.843 255.904 372.787C254.83 370.803 253.71 368.808 252.551 366.984C251.774 365.766 251.665 366.146 250.971 365.006C249.299 362.277 247.833 359.801 246.365 356.956C246.232 356.697 247.585 358.16 246.307 356.104C244.239 352.775 241.947 348.42 239.605 344.478C238.911 343.299 238.263 343.562 237.419 340.704C237.251 340.094 238.286 340.499 236.269 337.649C235.913 337.201 232.857 332.146 232.586 329.232C232.502 328.474 232.555 326.467 232.01 324.914C231.934 324.704 231.827 325.661 231.426 324.36C230.195 320.315 229.291 315.988 228.551 311.694C228.452 311.119 228.353 310.535 228.256 309.945C228.046 308.661 227.941 310.64 227.644 308.709C226.829 303.381 226.408 296.738 226.321 291.527C226.289 289.607 226.65 290.922 226.678 290.781C227.141 288.522 226.381 287.219 226.323 286.472C225.99 281.836 226.383 278.303 226.486 274.008C226.52 272.827 226.127 273.646 226.107 273.409C225.936 270.93 226.463 272.798 226.628 271.255C227.11 266.918 227.584 262.071 228.485 257.584C228.828 255.94 228.013 257.712 228.345 256.207C228.725 254.552 229.183 252.877 229.851 251.137C232.281 244.83 234.631 238.172 237.566 231.953C238.251 230.514 238.132 231.56 238.332 231.286C239.704 229.415 240.624 226.104 240.963 225.375C242.446 222.089 243.447 221.019 245.334 218.364C245.411 218.258 245.489 218.153 245.567 218.048C252.162 209.007 261.115 198.699 270.49 191.169C273.291 188.868 276.044 186.729 278.653 184.784C285.385 179.767 291.704 175.672 297.968 171.864C306.12 167.26 313.265 164.737 319.847 158.786C320.625 158.104 319.565 158.474 320.228 157.88C325.103 153.476 329.39 148.378 333.327 142.913C336.619 138.413 340.074 134.886 342.503 130.905C342.968 130.142 341.961 131.024 342.676 129.795C344.137 127.282 345.482 124.016 346.174 121.223C346.513 119.853 346.479 121.79 346.804 120.384C347.53 117.128 347.593 113.379 347.124 109.806C346.916 108.293 346.794 110.634 346.541 108.656C346.093 105.429 345.342 102.222 344.403 99.0285C341.59 89.6489 337.615 79.5053 330.195 76.6407C330.159 76.5973 329.558 76.4546 328.993 76.3693C328.132 76.237 327.376 75.3398 325.253 75.4021C325.079 75.6237 325.075 75.8931 324.995 76.1345C304.015 75.8092 282.643 75.5574 261.261 74.0861C261.197 74.0819 261.132 74.0778 261.068 74.0736C260.184 74.0188 261.679 74.5442 259.979 74.4444C250.134 73.8196 240.339 74.617 229.591 73.2183C228.533 73.0651 229.152 72.3919 226.032 72.1162C225.721 72.0881 224.06 71.9 222.468 71.6802C221.311 71.5247 220.185 71.3894 219.673 71.3731C219.511 71.3704 220.268 71.8665 218.82 71.6249C210.408 70.2093 201.541 68.6146 193.138 66.4087C191.785 66.0491 193.324 66.0244 192.36 65.763C190.447 65.2418 188.477 64.7126 186.499 64.14C181.453 62.6841 176.389 61.0327 171.966 59.2465C167.858 57.6013 169.631 57.5032 167.603 56.1633C167.313 55.9605 164.745 55.2021 164.7 54.8246C164.563 53.8076 166.147 53.139 165.855 52.0161C165.873 51.7177 161.644 51.2066 164.232 51.1195C164.458 51.0886 167.302 51.6392 167.99 51.6864C168.482 51.7073 167.769 51.0862 168.751 51.2225C169.734 51.3627 170.636 51.9956 172.183 52.3219C173.724 52.6463 173.224 52.0133 176.165 52.9675ZM384.678 650.032C385.792 647.816 384.629 647.047 384.104 649.674C384.08 649.802 384.621 650.147 384.678 650.032ZM126.337 747.522C129.527 747.883 131.702 746.847 129.4 746.557C127.088 746.269 125.365 747.413 126.337 747.522ZM93.2769 749.449C97.0258 749.778 97.5455 747.848 93.559 748.384C93.3285 748.414 93.0583 749.43 93.2769 749.449ZM178.014 59.4806C177.985 59.4533 176.117 58.8042 176.064 58.8035C174.925 58.8699 178.673 60.1731 178.014 59.4806ZM60.4165 751.021C61.5989 751.243 64.9305 750.841 63.4784 750.565C62.3137 750.343 58.9491 750.744 60.4165 751.021ZM384.265 525.801C384.276 525.76 383.896 524.392 383.794 524.454C383.475 524.648 384.116 526.507 384.265 525.801ZM4.52994 752.637C12.7921 752.483 17.838 753.921 8.84178 753.99C7.21204 754.003 12.3402 753.391 10.2625 753.306C6.46197 753.151 3.97273 754.21 0.0859144 753.786C-0.617078 753.708 4.06001 752.643 4.54456 752.635C4.53969 752.636 4.53482 752.636 4.52994 752.637ZM386.654 649.196C386.685 649.154 387.32 647.301 387.321 647.249C387.253 646.103 385.967 649.847 386.654 649.196ZM336.045 459.532C336.03 459.504 335.754 459.227 335.372 458.859C334.383 457.921 332.72 456.248 332.629 456.186C331.209 455.399 333.481 457.997 335.026 459.23C335.807 459.863 336.382 460.2 336.045 459.532ZM289.951 727.413C287.974 728.391 285.499 729.08 283.71 728.969C285.786 728.48 287.857 727.949 289.951 727.413Z" fill="#ED9F52"/>
<path d="M176.598 128.921C180.033 128.9 184.485 129.237 187.911 129.635C187.998 129.644 188.085 129.654 188.17 129.664C189.575 129.86 188.827 130.017 189.777 130.213C191.609 130.635 193.33 131.135 194.882 132.093C195.387 132.413 194.56 132.386 195.081 132.714C197.896 134.534 200.057 136.623 201.88 139.047C205.963 144.62 208.396 150.53 211.312 155.871C214.971 163.261 215.869 170.642 216.496 178.239C216.822 182.911 216.491 188.581 216.077 193.426C216.029 193.993 216.397 193.695 216.412 193.806C216.614 195.553 216.02 194.908 215.769 195.989C215.446 197.334 215.097 198.723 214.701 200.112C213.852 203.081 213.008 206.106 212.264 208.84C211.801 210.531 212.951 209.047 212.071 210.623C212.01 210.732 211.808 210.203 211.628 210.649C211.222 211.662 210.638 213.643 210.34 214.432C209.767 215.953 209.682 216.207 209.169 217.654C208.462 219.631 207.437 221.909 206.704 224.037C206.549 224.491 207.114 224.028 206.896 224.765C206.678 225.504 205.905 227.382 205.569 227.984C205.235 228.587 205.08 228.211 204.974 228.299C204.864 228.388 204.765 228.505 204.675 228.642C204.055 229.556 204.034 231.413 203.978 231.653C202.67 236.73 201.545 241.173 200.837 246.227C200.31 250.06 199.947 254.246 199.228 257.971C199.198 258.128 199.167 258.283 199.136 258.438C198.302 262.582 197.401 266.105 196.613 270.165C196.526 270.61 197.047 270.174 196.942 270.717C195.87 276.254 194.726 281.724 193.448 287.178C193.396 287.403 193.342 287.629 193.288 287.855C193.15 288.43 192.925 287.612 192.765 288.183C191.796 291.669 189.909 297.073 191.056 299.493C190.493 301.86 189.82 304.727 189.062 306.785C188.574 308.111 188.449 306.7 188.275 308.417C188.235 308.805 188.684 308.382 188.599 308.957C188.241 311.378 187.617 313.972 187.371 316.377C187.322 316.865 187.66 316.79 187.692 316.936C187.943 318.161 186.868 319.94 186.747 320.348C186.251 322.021 185.982 323.48 185.786 324.928C185.628 326.109 185.546 327.352 185.432 328.74C185.377 329.429 185.865 328.658 185.829 329.304C185.636 332.754 185.433 336.367 185.114 339.768C185.042 340.525 184.704 339.813 184.651 340.175C184.423 341.811 185.102 342.126 184.904 343.693C184.864 344.014 184.558 343.823 184.521 343.881C183.956 344.774 184.696 345.609 184.707 345.849C184.857 348.851 184.021 350.789 184.085 353.685C184.093 354.035 184.501 353.252 184.501 354.237C184.507 360.752 184.37 367.655 184.099 374.113C184.058 375.117 183.756 374.403 183.72 374.466C183.156 375.501 183.928 376.162 183.96 376.489C184.192 379.069 183.587 381.491 184.53 383.231C184.443 391.658 184.96 400.059 185.281 408.379C185.371 410.775 185.686 413.166 186.144 415.565C186.171 415.698 185.743 415.562 185.798 415.829C186.514 419.038 186.924 418.261 188.307 420.048C188.655 420.492 188.438 422.352 188.436 422.515C188.413 423.102 187.688 422.784 187.711 422.969C187.929 424.499 189.563 423.585 190.317 425.458C190.338 425.518 189.922 425.401 189.954 425.57C190.052 426.097 190.375 426.534 190.46 427.058C190.649 428.259 189.974 428.985 191.123 430.476C191.268 430.665 192.127 429.953 192.734 431.677C192.941 432.259 193.798 434.553 194.166 435.768C194.23 435.975 194.282 436.149 194.315 436.276C194.542 437.137 194.022 436.673 194.029 436.738C194.399 439.137 193.929 438.358 193.713 439.706C193.516 441.082 194.877 440.21 195.212 440.604C195.547 441.001 195.835 442.765 195.881 443.222C195.921 443.67 195.522 443.25 195.596 443.634C196.115 446.183 196.743 444.378 197.29 445.052C198.593 446.639 198.137 448.508 198.787 450.211C198.962 450.667 199.038 450.194 199.242 450.577C200.053 452.104 200.174 453.206 201.339 454.825C201.528 455.088 202.866 456.205 202.867 457.354C202.866 457.518 202.419 457.278 202.693 457.967C203.101 458.998 203.943 460.803 204.559 461.826C205.013 462.58 204.996 461.461 205.354 462.525C205.511 462.996 204.858 462.303 205.172 463.175C205.489 464.044 206.497 466.169 206.856 466.991C207.221 467.81 207.361 467.217 207.413 467.273C207.72 467.617 208.534 469.167 208.583 469.314C208.967 470.296 209.307 471.285 209.604 472.28C211.441 478.418 213.28 484.298 215.026 490.518C215.184 491.084 215.461 490.612 215.489 490.697C216.123 492.622 214.759 491.314 214.743 492.752C215.456 492.382 215.513 493.218 215.875 494.587C216.048 495.249 216.272 494.826 216.314 494.882C216.96 495.797 216.493 496.602 216.405 496.801C216.076 497.531 216.707 498.173 216.477 498.667C216.247 499.158 215.671 498.19 215.859 499.521C216.186 499.859 216.777 498.765 217.028 499.773C217.3 500.878 217.497 502.286 217.604 503.802C217.87 507.471 217.743 511.79 217.764 513.991C217.794 517.091 217.854 518.097 217.776 519.903C217.621 523.172 218.152 521.966 218.402 523.999C218.644 526.035 217.314 525.039 217.027 525.33C216.74 525.614 217.032 525.93 216.872 526.284C216.711 526.637 216.524 525.869 216.457 526.701C216.393 527.532 216.865 529.82 217.157 530.123C217.777 530.762 218.468 529.743 218.182 531.957C218.164 532.084 217.825 531.662 217.777 532.148C217.409 536.011 217.218 540.033 216.727 543.873C216.659 544.399 216.302 543.902 216.258 544.206C215.784 547.402 216.518 546.291 217.104 548.121C216.167 547.644 215.507 548.574 215.266 550.984C215.114 552.454 215.562 552.228 215.754 553.211C215.812 553.511 215.402 554.506 215.577 554.711C216.146 555.4 217.003 554.54 216.379 557.004C216.349 557.115 216.046 556.708 215.97 557.093C215.472 559.513 216.109 559.939 215.666 562.625C215.403 564.129 214.673 566.477 213.717 568.459C213.363 569.185 213.044 569.877 212.793 570.488C211.788 570.046 211.238 572.258 211.666 573.354C211.14 574.792 210.681 576.382 210.158 577.774C209.979 578.253 209.771 577.842 209.72 577.894C208.924 578.696 209.447 579.544 209.385 579.869C208.685 583.402 207.457 586.121 207.156 589.601C207.146 589.725 207.835 590.098 207.074 590.863C207.023 590.911 206.964 589.722 206.545 591.291C206.125 592.866 204.973 595.725 204.629 597.993C204.55 598.537 204.7 600.077 203.85 600.973C203.737 601.091 203.59 600.862 203.401 601.02C203.032 601.332 203.1 601.691 203 602.038C202.935 602.26 202.8 602.48 202.441 602.667C201.51 603.159 200.402 604.389 199.585 606.51C199.56 606.574 199.781 607.361 199.369 607.947C198.711 608.888 197.635 610.103 196.881 611.023C196.52 611.464 197.042 611.423 196.985 611.504C194.658 614.6 192.456 616.319 189.324 618.972C188.752 619.457 187.455 621.278 186.071 621.904C184.556 622.584 184.645 620.129 182.097 622.767C181.067 623.824 181.044 626.837 178.188 627.514C176.489 629.002 174.718 630.31 172.986 631.622C170.742 633.324 168.592 635.137 166.638 637.321C166.481 637.496 166.4 638.478 166.001 638.851C165.406 639.404 164.872 639.496 164.442 639.886C162.635 641.521 161.241 643.278 159.532 644.89C158.883 645.502 158.885 645.058 158.11 645.784C157.334 646.507 157.111 647.301 155.921 648.139C155.019 648.769 153.647 648.874 152.512 649.744C153.027 650.409 152.283 651.058 151.075 652.357C150.842 652.607 151.308 652.599 151.207 652.729C150.799 653.264 150.176 653.458 149.791 653.972C149.697 654.097 149.87 654.327 149.802 654.442C149.589 654.812 149.203 655.121 148.788 655.364C148.079 655.772 147.308 655.978 147.116 656.028C145.937 656.338 145.713 656.939 144.889 657.286C144.072 657.623 145.038 656.736 144.137 657.204C142.271 658.177 139.976 659.585 138.094 660.578C137.345 660.976 138.035 661.041 137.932 661.106C136.424 662.023 134.638 662.45 134.102 663.564C132.134 662.334 133.222 664.195 130.8 664.968C130.614 665.028 129.951 664.316 130.581 663.842C131.205 663.373 132.382 663.125 133.232 662.47C133.438 662.314 134.33 660.897 134.472 660.765C135.635 659.715 136.459 660.852 136.567 660.884C137.764 661.199 138.855 659.529 139.211 659.249C140.879 657.967 142.486 657.207 143.822 656.074C144.696 655.329 144.27 654.51 145.005 654.034C145.748 653.55 146.398 653.245 147.004 652.977L146.987 652.989C148.358 652.367 149.472 651.978 150.455 650.134C150.754 649.564 149.657 649.208 151.773 648.392C151.905 648.344 153.573 647.811 153.941 646.846C153.987 646.725 153.786 646.514 153.881 646.393C154.521 645.581 155.176 645.28 155.907 644.425C156.638 643.569 157.488 642.509 158.475 641.677C159.07 641.176 160.162 640.861 160.522 640.693C161.54 640.227 161.909 638.984 162.702 638.857C163.5 638.728 163.072 640.134 164.519 639.144C164.038 638.556 163.603 637.896 163.148 637.278C165.832 634.713 168.693 632.354 171.656 629.959C171.738 629.893 171.821 629.826 171.903 629.759C172.272 629.46 171.638 629.444 172.029 629.113C173.687 627.719 175.332 626.819 177.001 625.374C178.289 624.257 179.486 622.773 180.788 621.587C182.17 621.591 184.011 619.709 185.484 618.538C186.002 618.127 186.119 618.33 186.523 618.077C188.036 617.112 186.903 617.09 187.183 616.679C188.359 614.912 189.675 616.067 191.396 614.306C191.494 614.211 191.931 612.44 192.029 612.246C192.683 610.998 192.419 612.303 193.05 611.72C194.188 610.65 195.077 609.962 195.976 608.361C196.24 607.889 196.515 606.552 197.433 605.966C197.555 605.887 197.769 606.116 197.843 606.036C199.15 604.55 198.327 603.996 198.549 602.914C198.705 602.119 199.414 601.281 199.887 600.768C200.063 600.575 200.212 600.429 200.293 600.361C200.911 599.83 200.53 600.583 200.34 600.953C200.289 601.054 200.252 601.128 200.258 601.142C200.41 601.505 200.58 601.416 200.76 601.124C200.949 600.814 201.146 600.271 201.34 599.812C202.276 600.005 202.68 598.661 201.723 598.869C201.619 598.897 201.451 599.639 201.34 599.812C200.771 598.69 201.124 597.281 202.421 595.902C203.024 595.253 203.286 596.112 203.756 593.719C203.963 592.633 203.23 592.877 203.301 591.894C203.463 589.642 204.732 586.949 205.21 584.664C205.384 583.834 204.838 584.549 204.946 583.977C205.232 582.461 205.833 581.212 206.115 579.677C206.141 579.537 205.691 579.772 205.816 579.302C206.766 575.745 207.954 572.732 209.326 569.108C209.548 568.525 209.811 567.788 210.104 566.991C210.564 565.719 210.93 563.971 211.215 562.828C211.968 559.845 213.047 555.984 213.224 553.232C213.34 551.432 212.923 551.795 212.752 550.999C212.417 549.486 213.507 546.946 213.669 546.589C213.675 546.581 213.636 548.139 213.893 547.327C214.328 546.877 213.669 546.606 213.669 546.589C213.779 546.372 214.081 543.281 214.043 542.658C214.025 542.32 213.663 542.487 213.66 542.311C213.594 538.161 213.661 534.002 213.905 529.799C213.913 529.725 214.304 529.844 214.319 529.67C214.537 527.232 214.068 525.66 213.785 523.655C213.5 521.643 213.579 520.055 214.236 518.858C214.131 517.338 214.379 515.163 214.519 513.901C214.66 512.639 213.887 512.499 213.869 512.39C213.293 509.201 213.548 507.246 213.426 504.11C213.418 503.901 213.407 503.687 213.393 503.469C213.309 501.828 212.788 498.609 212.377 496.881C212.063 495.514 212.068 494.65 211.672 493.411C211.618 493.243 211.325 493.492 211.3 493.442C210.578 492.135 211.543 492.616 211.619 492.289C211.886 491.109 212.001 490.364 211.244 488.624C211.068 488.217 209.563 487.353 209.262 486.624C208.872 485.674 209.398 485.913 208.969 484.917C208.932 484.832 208.687 484.932 208.491 484.295C207.576 481.335 206.563 478.037 205.505 474.848C205.362 474.411 205.142 475.101 204.929 474.471C204.856 474.255 204.783 474.036 204.711 473.815C203.903 471.341 202.81 468.709 201.831 466.23C201.572 465.571 202.028 465.844 202.041 465.668C202.109 464.583 200.816 463.706 200.703 463.512C197.971 458.88 196.626 454.792 194.048 449.753C193.909 449.495 192.202 447.612 192.461 446.367C192.475 446.279 192.75 445.043 191.951 444.363C191.902 444.321 191.795 445.069 191.411 443.988C191.035 442.925 190.144 441.271 190.007 439.671C189.965 439.244 190.157 438.312 189.681 437.304C189.574 437.082 189.432 436.861 189.242 436.647C189.176 436.569 187.227 434.989 187.788 433.951C187.881 433.782 188.822 433.567 187.756 432.163C187.551 431.896 187.567 432.518 187.135 431.776C186.469 430.636 186.052 428.924 185.046 427.563C184.869 427.325 183.814 426.433 183.902 425.324C183.917 425.152 184.319 425.31 184.161 424.81C183.409 422.428 182.275 419.973 181.758 417.338C181.579 416.405 182.198 416.737 182.087 415.757C181.97 414.776 181.701 412.823 181.325 411.833C180.945 410.835 180.286 412.093 180.022 410.516C179.931 409.933 179.858 409.349 179.804 408.758C179.259 403.016 179.424 397.278 179.315 391.532C179.298 390.606 179.028 391.385 178.984 390.015C178.811 384.953 178.42 376.243 179.032 371.858C179.518 368.352 179.91 372.759 180.105 370.083C180.198 368.789 179.25 367.391 179.22 367.08C178.921 364.023 179.354 361.916 179.251 359.162C179.23 358.595 178.84 359.147 178.826 358.665C178.776 357.024 178.971 355.292 178.966 353.708C178.962 352.999 178.666 353.124 178.7 352.476C178.779 350.921 178.931 349.558 179.242 348.032C179.271 347.893 179.614 348.839 179.655 347.683C179.72 345.849 180.057 343.504 179.85 341.366C179.787 340.743 179.117 340.66 179.632 339.318C179.74 339.027 180.529 339.463 179.898 337.807C179.792 337.533 178.971 334.808 179.65 333.51C179.829 333.147 180.533 332.361 180.479 331.54C180.469 331.433 180.083 331.834 180.087 331.187C180.114 328.96 180.308 326.624 180.505 324.236C180.508 324.199 180.511 324.162 180.514 324.126C180.566 323.502 180.072 324.377 180.163 323.446C180.413 320.881 181.025 317.745 181.583 315.324C181.79 314.43 181.981 315.109 182.026 315.049C182.756 314.097 182.147 313.342 182.17 312.986C182.327 310.771 182.995 309.195 183.308 307.198C183.396 306.647 182.971 306.964 182.963 306.848C182.893 305.659 183.341 306.626 183.556 305.927C184.16 303.97 184.599 301.747 184.979 299.73C185.117 298.99 184.543 299.734 184.672 299.071C185.428 295.143 186.317 291.107 187.26 287.367C187.439 286.663 187.662 287.17 187.761 287.034C187.944 286.787 188.05 286.49 188.107 286.183C188.269 285.312 188.062 284.348 188.064 284.08C188.075 282.424 188.469 281.856 188.692 280.436C189.778 273.495 191.721 265.082 193.083 258.672C193.179 258.22 193.274 257.77 193.368 257.329C194.93 249.897 195.513 243.434 197.209 235.492C197.326 234.957 196.794 235.402 196.893 234.938C197.506 232.103 198.361 229.285 199.488 226.539C200.624 223.774 201.716 220.991 202.691 218.14C202.843 217.696 202.239 218.195 202.47 217.479C202.939 216.012 203.606 214.179 204.223 212.747C204.524 212.047 204.521 213.122 204.817 212.414C205.506 210.767 206.119 208.958 206.593 207.192C206.792 206.443 206.063 207.443 206.352 206.478C207.133 203.839 207.844 201.208 208.506 198.585C209.419 194.952 209.934 191.058 210.353 187.038C210.4 186.577 211.236 186.184 211.079 185.186C210.851 185.111 210.581 185.116 210.337 185.083C210.122 176.149 209.18 166.332 205.617 159.093C205.281 158.489 204.951 157.883 204.626 157.278C204.417 156.889 204.396 157.768 203.991 157.016C201.656 152.667 199.54 148.634 197.299 144.711C197.074 144.33 197.839 144.046 196.942 143.068C196.792 142.884 195.453 141.459 194.989 141.252C194.926 141.225 194.902 141.71 194.481 141.299C192.325 139.198 190.006 137.848 187.39 137.532C186.872 137.475 186.364 137.417 185.857 137.358C185.21 137.283 185.927 136.943 185.463 136.886C182.187 136.486 178.598 136.619 175.475 136.196C173.376 135.915 174.176 135.273 173.058 134.604C172.903 134.509 171.593 134.482 171.529 134.105C171.357 133.153 172.005 132.115 171.747 131.1C171.689 130.879 169.912 131.113 170.964 130.586C171.035 130.549 172.34 130.382 172.66 130.208C172.885 130.087 172.485 129.697 172.945 129.544C173.405 129.392 173.901 129.722 174.655 129.551C175.415 129.38 175.089 128.932 176.598 128.921ZM215.093 508.229C215.396 507.042 214.042 506.947 214.433 508.188C214.453 508.247 215.078 508.289 215.093 508.229ZM169.581 633.062C171.135 632.494 171.402 631.151 170.259 631.507C169.113 631.875 169.105 633.24 169.581 633.062ZM158.361 644.382C159.965 643.47 158.827 641.912 157.735 643.519C157.671 643.612 158.267 644.435 158.361 644.382ZM178.274 134.551C178.257 134.532 177.316 134.483 177.294 134.5C176.78 134.911 178.658 135.008 178.274 134.551ZM146.878 654.991C147.212 654.926 147.687 654.549 147.937 654.233C148.134 653.975 148.172 653.768 147.837 653.841C147.786 653.852 147.731 653.871 147.675 653.896C147.072 654.156 146.196 655.118 146.878 654.991ZM198.21 450.528C198.22 450.504 197.955 449.877 197.857 449.935C197.544 450.131 198.03 450.948 198.21 450.528ZM123.377 667.056C127.11 666.325 130.072 666.651 125.73 668C124.952 668.197 127.244 667.015 126.225 667.18C124.409 667.464 123.404 668.658 121.462 668.458C121.124 668.423 123.169 667.106 123.384 667.053C123.382 667.054 123.379 667.055 123.377 667.056ZM216.67 507.467C216.687 507.441 216.649 506.502 216.63 506.482C216.173 506.001 216.25 507.888 216.67 507.467ZM185.21 413.256C185.222 413.2 184.883 411.09 184.853 411.023C183.964 410.003 184.653 414.361 185.21 413.256ZM212.752 570.512C212.795 571.613 212.44 572.76 211.668 573.35C212.022 572.407 212.37 571.451 212.752 570.512Z" fill="#ED9F52"/>
<path d="M480 499.711C478.808 502.616 477.626 506.274 476.745 509.924C476.116 512.5 475.687 515.003 475.482 517.208C475.345 518.869 475.144 518.018 475.074 519.169C474.97 521.418 475.277 523.466 475.613 525.619C475.729 526.33 475.165 525.528 475.303 526.286C476.087 530.46 478.034 534.031 480.347 538.195C480.949 539.295 481.568 540.425 482.165 541.615C487.184 551.57 490.347 561.999 493.682 572.192C497.204 582.751 499.312 593.929 500.823 604.936C500.89 605.389 500.958 605.844 501.028 606.299C502.345 614.063 503.007 623.795 503.56 631.917C503.629 632.853 503.93 632.277 503.967 632.454C504.534 635.299 503.813 634.348 503.812 636.229C503.789 643.581 503.931 651.723 504.141 658.819C504.229 661.785 504.857 658.776 504.517 661.821C504.494 662.035 504.135 661.263 504.105 662.101C504.102 662.193 504.099 662.288 504.096 662.387C504.078 664.4 503.859 667.812 503.607 669.225C503.115 672.081 503.01 672.553 502.342 675.2C501.393 678.818 499.653 682.887 497.984 686.477C497.629 687.243 498.451 686.397 497.903 687.636C497.367 688.886 495.604 692.003 494.901 692.982C494.212 693.967 494.231 693.38 494.067 693.527C492.715 694.736 491.1 698.547 490.804 698.99C487.99 703.453 484.862 707.27 482.339 711.003C480.194 714.271 477.943 717.421 475.517 720.643C471.425 726.114 466.618 731.655 461.983 736.182C461.498 736.657 461.018 737.121 460.538 737.579C455.693 742.201 451.635 746.577 446.783 751.42C446.218 751.977 447.182 751.629 446.486 752.313C443.796 754.933 440.958 757.501 437.571 759.571C432.78 762.39 430.456 768.332 429.668 774.363C429.544 775.323 429.293 774.041 429.151 775.007C428.918 776.665 428.741 778.625 428.721 780.668C428.503 782.878 430.822 784.234 433.113 784.671C435.393 785.14 437.539 785.034 438.848 784.567C442.905 784.975 447.993 785.086 451.727 785.433C454.178 785.652 451.783 786.053 454.774 785.883C455.452 785.844 454.587 785.489 455.578 785.457C459.796 785.323 464.443 785.411 468.641 785.219C469.508 785.179 469.271 784.861 469.509 784.803C471.522 784.334 474.911 785.105 475.669 785.163C478.339 785.368 480.677 785.447 482.997 785.483C485.443 785.518 487.787 785.391 490.427 785.104C491.59 784.969 490.162 784.711 491.283 784.559C497.066 783.795 502.786 781.838 508.279 779.71C509.506 779.241 508.534 780.046 509.129 779.838C511.741 778.914 512.032 778.029 514.556 777.117C515.085 776.925 514.915 777.337 515.023 777.328C516.718 777.193 517.712 775.96 518.095 775.785C518.666 775.522 519.198 775.293 519.74 775.074C523.75 773.469 526.923 773.005 531.145 771.539C531.718 771.341 530.293 771.381 531.916 770.848C538.119 768.808 544.604 767.075 550.834 765.012C555.232 763.558 559.197 760.823 562.88 757.923C564.219 756.857 563.478 757.871 563.583 757.831C565.304 757.118 565.652 755.768 566.049 755.374C569.195 752.251 572.634 749.784 574.174 747.024C575.367 745.903 576.556 744.774 577.748 743.638C585.27 736.782 587.857 726.475 589.748 716.396C591.016 709.783 591.852 703.083 591.689 696.424C591.681 696.185 592.088 696.585 592.071 696.108C591.709 690.45 591.181 691.575 589.688 688.17C589.316 687.332 589.28 684.4 589.229 684.129C589.137 683.192 589.988 683.889 589.925 683.585C589.323 681.026 587.792 682.122 586.346 679.019C586.302 678.92 586.805 679.181 586.711 678.906C586.419 678.046 585.895 677.296 585.605 676.444C584.952 674.464 585.367 673.483 583.731 670.733C583.604 670.507 583.246 670.805 582.743 670.269C582.456 669.975 582.132 669.421 581.755 668.355C581.405 667.185 579.196 662.261 578.503 660.904C577.858 659.528 578.641 660.292 578.605 660.189C577.033 656.357 577.928 657.639 577.457 655.499C576.948 653.363 575.893 654.681 575.302 654.055C574.715 653.425 573.383 650.671 573.072 649.975C572.767 649.28 573.462 649.941 573.155 649.344C571.095 645.399 571.428 648.17 570.407 647.101C569.252 645.901 568.522 644.626 567.888 643.324C567.179 641.879 566.653 640.404 565.879 638.944C565.482 638.188 565.595 638.926 565.197 638.269C563.651 635.646 563.196 633.843 561.563 630.8C561.292 630.307 559.613 627.963 559.482 626.095C559.464 625.831 559.985 626.404 559.605 625.181C559.038 623.349 557.937 620.083 557.127 618.203C556.527 616.809 556.688 618.596 556.156 616.772C555.914 615.955 556.74 617.32 556.264 615.801C555.801 614.287 554.249 610.546 553.607 609.149C552.977 607.753 552.983 608.667 552.911 608.565C552.529 608.002 551.399 605.923 551.049 605.282C551.005 605.2 550.975 605.142 550.962 605.116C546.357 595.439 541.016 586.873 536.232 577.611C535.179 575.561 534.191 573.47 533.228 571.345C532.812 570.422 532.727 571.193 532.659 571.053C531.159 567.915 533.158 570.043 532.557 567.684C531.968 568.3 531.552 566.929 530.599 564.687C530.14 563.606 530.087 564.311 530.02 564.222C528.971 562.755 529.108 561.409 529.113 561.076C529.132 559.843 528.21 558.849 528.221 558.011C528.232 557.176 529.259 558.716 528.457 556.53C527.971 556.011 527.878 557.885 527.162 556.266C526.701 555.223 526.209 554.013 525.694 552.708C523.225 546.35 519.887 537.678 518.02 533.651C516.828 531.039 516.02 529.402 515.334 528.003C514.748 526.812 514.23 525.802 513.581 524.523C510.996 519.539 511.519 521.61 509.559 518.707C507.582 515.786 509.595 516.601 509.59 516.022C509.593 515.451 509.069 515.127 508.905 514.514C508.742 513.903 509.559 514.963 508.908 513.679C508.242 512.408 505.999 509.151 505.53 508.796C504.51 508.068 504.596 510.025 503.283 506.326C503.213 506.113 503.807 506.657 503.523 505.848C503.445 505.625 503.369 505.402 503.295 505.178C501.302 499.187 496.689 493.993 491.47 490.353C490.719 489.837 491.617 489.943 491.175 489.639C486.795 486.891 487.587 488.108 485.433 487.925C485.258 487.923 485.071 487.926 484.879 487.941C485.249 487.549 485.223 487.056 484.332 486.715C483.485 486.327 481.425 486.758 480.129 488.661C478.658 490.917 479.374 490.757 478.978 492.369C478.869 492.842 478.004 494.448 478.104 494.823C478.422 496.047 479.548 494.62 478.127 498.69C478.065 498.87 477.875 498.193 477.686 498.823C476.443 502.911 477.152 503.566 475.71 508.146C475.6 508.464 475.459 508.839 475.307 509.198C473.909 512.354 472.649 517.832 472.311 521.501C471.213 521.31 471.204 525.234 471.962 526.802C471.887 529.444 472.025 532.298 472.138 534.85C472.179 535.729 471.814 535.182 471.79 535.295C471.41 537.052 472.296 538.124 472.4 538.676C472.532 539.386 472.662 540.078 472.792 540.751C473.813 545.806 475.516 550.106 478.324 554.554C478.439 554.733 479.266 554.685 479.512 556.353C479.526 556.463 478.309 554.875 479.583 557.376C480.316 558.823 481.333 561.066 482.353 563.403C483.088 565.09 483.947 566.77 484.843 568.148C485.354 568.943 487.024 570.718 487.557 572.606C487.627 572.858 487.3 572.725 487.378 573.104C487.637 574.327 488.626 574.5 488.773 576.034C488.916 577.573 490.002 580.311 492.339 583.484C492.412 583.586 493.402 584.091 493.993 585.179C494.185 585.533 494.388 585.919 494.596 586.327C495.424 587.924 496.122 589.923 496.611 591.487C496.904 592.428 497.078 591.717 497.135 591.878C499.204 598.275 499.113 603.097 500.408 610.064C500.453 610.302 500.537 610.621 500.646 610.994C501.131 612.618 501.952 615.395 501.924 617.48C501.86 620.295 499.724 617.713 500.848 623.907C501.271 626.402 503.875 629.475 502.897 634.155C503.644 643.081 503.167 651.331 503.717 660.315C503.741 660.708 504.411 661.965 504.413 662.933C504.413 662.977 504.413 663.021 504.412 663.063C504.392 664.412 504.076 665.152 504.006 666.131C503.68 670.327 503.138 674.194 501.787 678.048C501.263 679.503 501.153 678.89 500.479 680.597C499.792 682.292 499.686 683.584 498.503 685.785C497.731 687.228 496.464 688.451 495.509 690.31C495.367 690.587 495.23 690.873 495.1 691.175C495.845 691.561 495.251 693.163 494.23 696.041C494.032 696.594 494.555 696.138 494.474 696.406C494.15 697.504 493.483 698.349 493.15 699.385C493.068 699.636 493.319 699.777 493.265 699.991C492.827 701.836 490.719 704.137 490.342 704.497C488.926 705.937 488.702 706.894 487.66 708.013C486.61 709.109 487.813 707.199 486.662 708.522C485.807 709.488 484.859 710.536 483.843 711.577C481.971 713.495 480.224 715.692 478.732 717.553C477.812 718.708 478.739 718.157 478.614 718.328C476.8 720.789 474.555 722.917 474.007 724.688C471.108 724.938 473.004 726.267 469.519 729.02C469.236 729.229 468.309 728.819 469.166 727.846C470.019 726.874 471.607 725.672 472.643 724.171C472.901 723.82 473.811 721.391 473.974 721.097C475.303 718.814 476.621 719.372 476.77 719.313C478.404 718.582 479.554 715.616 480.025 714.952C481.051 713.471 482.128 712.179 483.225 710.994C484.322 709.807 485.314 708.628 486.154 707.352C487.215 705.712 486.559 705.031 487.41 703.803C490.126 699.663 492.053 698.543 492.957 693.689C493.128 692.64 491.847 693.239 493.907 690.086C493.93 690.049 494.003 689.944 494.107 689.785C494.594 689 495.807 687.149 496.002 685.78C496.031 685.569 495.762 685.457 495.847 685.201C496.424 683.48 497.122 682.492 497.743 680.687C498.362 678.883 498.979 676.732 499.639 674.742C500.046 673.546 500.923 672.075 501.165 671.493C501.878 669.847 501.462 667.921 502 666.889C502.533 665.818 503.126 668.051 503.572 665.122C502.819 664.988 502.05 664.72 501.293 664.536C501.306 664.049 501.311 663.585 501.311 663.096C501.299 657.054 501.413 651.153 501.215 645.116C501.187 644.296 500.804 645.143 500.763 644.271C500.59 640.623 500.763 637.397 500.449 633.639C500.201 630.706 499.559 627.551 499.163 624.554C499.86 622.633 499.056 618.192 498.525 615.028C498.343 613.914 498.581 613.941 498.493 613.138C498.399 612.328 498.288 611.843 498.18 611.559C497.872 610.718 497.588 611.44 497.361 610.817C496.089 607.157 497.787 606.539 497.045 602.269C497.01 602.037 495.639 599.45 495.509 599.1C494.699 596.825 495.757 598.649 495.535 597.171C495.095 594.5 494.88 592.579 493.51 589.84C493.262 589.36 492.662 588.55 492.102 587.675C491.705 587.042 491.34 586.346 491.138 585.63C491.071 585.391 491.402 585.358 491.322 585.179C489.83 581.954 488.935 582.36 487.626 580.771C486.311 579.185 485.263 576.104 485.106 575.445C484.682 573.728 485.94 576.464 486.03 576.516C487.072 577.151 485.81 575.209 484.973 573.64C485.657 572.953 484.4 570.82 484.107 572.011C484.076 572.146 484.832 573.31 484.973 573.64C483.403 572.748 481.927 570.378 481.33 567.257C481.095 565.973 481.831 566.602 480.67 564.176C480.516 563.851 480.325 563.468 480.086 563.017C479.184 561.34 478.928 562.289 478.015 560.872C475.922 557.643 473.978 552.881 472.314 549.053C471.714 547.658 471.936 549.166 471.518 548.207C470.556 545.947 470.08 543.739 469.605 541.307C469.544 540.99 469.48 540.669 469.411 540.342C469.36 540.096 469.087 540.758 468.952 539.909C467.987 533.443 468.068 527.809 468.604 521.075C468.844 517.82 469.556 511.944 470.94 508.515C471.061 508.198 471.198 507.859 471.34 507.538C473.233 503.099 474.783 496.545 476.44 491.962C477.681 488.73 477.123 489.263 477.766 487.68C478.269 486.638 479.32 485.187 481.28 484.326C483.28 483.417 485.56 483.911 486.648 484.481C487.421 484.882 487.954 485.231 488.132 485.351C488.146 485.355 486.965 484.918 486.517 484.852C486.275 484.803 486.206 484.821 486.479 484.962C486.543 485.001 486.634 485.049 486.756 485.112C487.476 485.801 488.096 485.34 488.132 485.351C488.587 485.494 493.673 488.402 494.568 489.133C495.098 489.472 495.023 488.981 495.296 489.168C500.386 492.7 504.718 497.618 507.01 503.787C507.495 505.119 508.054 506.454 508.661 507.795C508.708 507.909 508.273 507.912 508.389 508.179C510.045 511.937 511.855 514.015 513.848 516.899C515.86 519.782 517.195 522.326 517.593 524.534C517.911 525.093 518.237 525.727 518.554 526.399C519.555 528.521 520.508 530.989 521.094 532.575C521.861 534.65 522.678 534.615 522.774 534.786C525.712 540.121 526.68 543.538 528.89 549.432C529.084 549.956 529.318 550.575 529.576 551.254C530.699 554.219 532.248 558.298 533.217 560.69C534.158 563.014 534.529 564.483 535.493 566.564C535.623 566.845 535.821 566.428 535.869 566.51C537.212 568.707 535.981 567.895 536.045 568.439C536.294 570.401 536.486 571.629 538.131 574.447C538.324 574.773 538.94 575.298 539.595 575.869C540.245 576.444 540.93 577.067 541.284 577.649C542.213 579.168 541.511 578.786 542.517 580.369C542.603 580.504 542.816 580.346 543.379 581.358C546.003 586.047 549.025 591.27 551.781 596.37C552.156 597.067 552.048 595.97 552.598 596.98C553.651 598.92 554.698 600.967 555.689 603.056C557.122 606.07 558.406 609.152 559.449 612.06C559.885 613.284 559.308 612.637 559.331 612.93C559.475 614.715 561.041 616.705 561.192 617.073C564.855 625.866 566.162 632.76 571.46 640.08C571.518 640.159 571.676 640.33 571.899 640.566C572.83 641.568 574.793 643.704 575.132 645.223C575.164 645.356 575.559 647.235 576.842 648.296C576.922 648.362 576.62 647.216 577.659 648.881C578.693 650.541 580.605 653.119 581.598 655.723C581.916 656.551 582.28 658.665 583.928 660.762C584.049 660.866 586.932 664.083 586.595 665.804C586.533 666.08 585.633 666.164 587.016 668.837C587.035 668.871 587.053 668.904 587.073 668.938C587.327 669.371 587.217 668.464 587.792 669.631C588.679 671.411 589.823 674.123 591.482 676.602C591.769 677.024 593.312 678.78 593.532 680.68C593.564 680.972 593.075 680.585 593.387 681.489C594.883 685.814 596.137 690.526 596.302 695.127C596.353 696.761 595.787 695.963 595.739 697.635C595.698 699.305 595.541 702.625 595.666 704.359C595.797 706.089 596.745 704.235 596.616 706.864C596.412 710.445 595.921 713.954 595.254 717.416C593.813 724.699 592.01 732.408 587.781 739.489C586.841 740.996 587.905 739.917 586.433 742.11C585.199 743.884 583.603 745.839 581.702 747.706C575.732 753.593 568.275 761.045 562.869 764.38C557.295 767.702 563.748 762.761 559.583 765.362C557.584 766.579 555.627 768.595 555.062 768.864C554.216 769.299 553.378 769.663 552.551 769.967C548.652 771.401 545.454 772.053 541.679 773.298C540.751 773.603 541.779 773.697 540.988 773.953C538.289 774.828 535.411 775.515 532.877 776.359C531.743 776.739 532.043 776.95 530.992 777.271C528.483 778.047 526.267 778.694 523.79 779.342C523.564 779.402 524.899 778.5 523.086 779.179C522.608 779.36 522.116 779.543 521.603 779.733C518.944 780.72 515.9 781.858 513.143 783.297C512.159 783.809 512.395 784.446 510.009 784.943C509.5 785.045 509.81 784.064 507.459 785.758C507.095 786.047 502.881 788.646 500.341 788.694C499.683 788.72 497.954 788.503 496.619 788.895C496.436 788.95 497.259 789.145 496.128 789.421C492.117 790.379 487.804 790.712 483.658 790.821C482.655 790.846 483.897 791.155 482.948 791.236C482.845 791.245 482.716 791.251 482.553 791.253C478.254 791.311 472.859 791.208 468.637 791.102C467.07 791.062 468.152 790.75 468.038 790.717C466.229 790.174 465.135 790.917 464.534 790.963C460.769 791.234 457.903 790.902 454.415 790.993C453.448 791.017 454.133 791.369 453.941 791.401C451.961 791.704 453.462 791.075 452.179 791.001C448.631 790.788 444.719 790.78 441.025 790.627C439.692 790.567 441.184 791.065 439.955 791C437.276 790.837 434.552 790.638 431.485 789.824C429.944 789.377 428.234 788.829 426.411 787.348C424.541 785.934 423.259 782.98 423.32 780.853C423.287 778.879 423.365 776.905 423.576 774.96C423.738 773.574 423.977 774.477 424.074 774.195C424.73 772.283 424.629 769.276 424.763 768.564C425.294 765.409 426.017 764.268 427.362 761.641C428.846 758.851 431.2 756.073 434.284 754.188C441.726 749.364 448.939 740.429 455.553 734.211C455.853 733.922 456.152 733.635 456.451 733.352C465.273 725.015 471.639 717.526 477.648 708.039C478.676 706.423 479.752 704.938 480.832 703.433C481.366 702.693 480.488 703.186 480.938 702.554C486.795 694.472 492.303 686.673 495.343 677.757C495.588 677.032 494.854 677.941 495.224 676.776C495.98 674.386 496.764 671.355 497.252 668.913C497.488 667.719 497.592 669.388 497.818 668.174C498.148 666.336 498.321 664.384 498.305 662.437C498.295 661.267 498.273 660.127 498.238 659.031C498.193 657.649 497.813 659.744 497.786 657.942C497.571 645.881 497.241 633.989 496.676 621.971C496.634 621.145 497.388 620.337 497.038 618.61C496.795 618.503 496.529 618.54 496.279 618.51C495.79 614.335 495.101 610.241 494.423 605.931C492.847 594.97 490.958 584.585 487.489 574.256C486.773 572.071 486.061 569.906 485.33 567.734C485.093 567.032 485.093 568.388 484.63 567.025C482.01 559.333 479.29 552.155 475.924 544.855C475.845 544.68 475.763 544.503 475.679 544.324C475.331 543.596 476.235 543.615 474.913 541.518C474.684 541.169 472.695 537.857 472.088 536.972C472.003 536.856 472.011 537.678 471.421 536.518C467.79 529.732 466.649 520.88 467.982 513.47C468.181 512.274 468.384 513.601 468.532 512.757C468.801 511.253 469.098 509.788 469.449 508.27C470.497 503.752 471.86 499.144 474.01 495.25C476.021 491.82 475.947 493.441 477.592 492.031C477.79 491.822 479.358 489.899 479.768 490.108C480.627 490.586 480.674 492.041 481.7 492.433C481.805 492.476 482.232 492.032 482.518 491.872C482.801 491.715 482.936 491.714 482.721 492.184C482.705 492.218 482.473 492.459 482.203 492.849C481.935 493.231 481.664 493.728 481.602 493.964C481.523 494.283 482.152 494.068 481.922 494.661C481.701 495.257 481.039 495.687 480.661 496.777C480.306 497.879 480.894 497.594 480 499.711ZM524.386 541.966C524.836 543.984 526.194 543.748 525.043 541.834C524.986 541.742 524.362 541.862 524.386 541.966ZM502.419 651.669C502.96 649.038 502.041 647.217 501.626 649.098C501.211 650.972 502.254 652.482 502.419 651.669ZM500.397 678.445C501.825 675.698 500.118 674.721 499.489 677.849C499.45 678.028 500.312 678.603 500.397 678.445ZM473.687 500.521C473.707 500.501 474.316 498.944 474.321 498.902C474.243 497.907 473.011 501.04 473.687 500.521ZM489.877 703.379C490.614 702.701 491.677 700.131 490.823 701.02C490.157 701.737 488.988 704.222 489.877 703.379ZM566.406 638.543C566.4 638.579 566.983 639.602 567.068 639.519C567.337 639.268 566.434 637.919 566.406 638.543ZM460.177 738.126C461.659 737.404 462.864 736.574 463.722 735.716C464.938 734.478 465.681 733.525 465.977 733.551C466.216 733.548 466.159 734.428 464.665 736.462C464.468 736.709 464.241 736.965 463.978 737.221C463.373 737.78 464.054 736.964 464.404 736.255C464.698 735.668 464.837 735.214 464.32 735.831C464.258 735.902 464.196 735.972 464.134 736.041C462.061 738.27 460.283 739.882 457.144 740.469C456.587 740.591 459.91 738.351 460.186 738.119C460.183 738.121 460.18 738.123 460.177 738.126ZM523.348 543.669C523.349 543.713 523.954 545.221 523.984 545.25C524.715 545.903 523.496 542.86 523.348 543.669ZM592.197 700.69C592.184 700.769 592.032 704.509 592.036 704.634C592.67 706.646 592.997 699.011 592.197 700.69ZM472.277 521.562C472.556 523.339 472.521 525.405 471.962 526.794C472.018 525.053 472.106 523.3 472.277 521.562Z" fill="#ED9F52"/>
<path d="M533.43 645.592C533.564 646.958 533.483 648.749 533.357 650.118C533.319 650.55 533.073 650.344 533.036 650.64C532.963 651.212 533.102 651.764 533.015 652.331C532.985 652.521 532.598 652.302 532.575 652.501C532.455 653.607 532.602 654.631 532.582 655.739C532.493 661.205 532.789 666.576 533.379 672.025C533.574 673.819 533.592 676.038 534.118 677.808C534.18 678.018 534.478 677.822 534.513 677.857C535.057 678.395 534.358 678.328 534.361 678.75C534.377 680.423 534.843 682.242 535.511 683.554C535.798 684.103 536.167 683.286 536.068 683.985C536.062 684.033 535.679 684.039 535.712 684.205C535.726 684.273 535.75 684.349 535.779 684.426C535.975 684.899 536.268 685.516 536.354 685.817C536.553 686.529 536.591 686.64 536.779 687.304C537.027 688.217 537.068 689.332 537.263 690.3C537.305 690.507 537.632 690.185 537.731 690.518C537.834 690.854 537.87 691.757 537.793 692.064C537.721 692.368 537.431 692.249 537.368 692.304C536.84 692.746 537.593 693.743 537.604 693.884C537.851 696.296 537.108 698.265 536.635 700.381C536.273 701.995 535.912 703.729 535.382 705.202C534.749 706.957 533.98 708.338 533.276 709.986C533.201 710.16 533.679 710.132 533.587 710.346C532.724 712.346 531.693 714.259 530.432 716.018C530.234 716.302 530.024 716.57 529.803 716.825C529.616 717.036 529.521 716.529 529.32 716.72C528.086 717.94 525.836 718.883 526.148 720.706C525.302 721.308 524.3 721.98 523.415 722.253C522.845 722.429 523.023 721.775 522.589 722.335C522.492 722.461 522.869 722.616 522.708 722.783C522.034 723.483 521.17 724.061 520.657 724.823C520.554 724.978 520.815 725.169 520.82 725.245C520.853 725.861 519.842 725.843 519.697 725.933C519.682 725.942 519.667 725.951 519.652 725.96C518.706 726.494 518.475 727.309 518.321 728.114C518.289 728.304 518.744 728.152 518.734 728.319C518.713 728.736 518.761 729.099 518.858 729.416C518.934 729.689 519.138 730.068 519.449 730.464C519.589 730.638 519.198 730.786 519.258 730.888C519.57 731.348 520.053 730.836 520.398 731.204C520.476 731.282 520.277 731.528 520.277 731.568C520.317 732.2 520.917 731.632 520.989 731.644C521.438 731.729 521.76 731.939 522.088 732.169C522.515 732.467 522.945 732.795 523.542 732.805C523.666 732.804 523.441 732.382 523.778 732.403C526 732.538 528.334 731.886 530.595 730.859C530.947 730.699 530.872 731.095 530.911 731.114C531.557 731.385 531.361 730.593 531.446 730.501C532.145 729.781 533.291 729.695 533.245 728.551C536.706 726.098 539.253 722.394 543.09 719.956C543.125 719.935 543.159 719.915 543.193 719.894C543.239 719.864 543.423 720.207 543.514 720.146C544.601 719.398 544.014 719.134 544.018 718.06C544.01 717.799 545.075 717.856 545.163 717.842C545.476 717.818 545.788 718.333 545.867 718.304C546.519 718.027 544.969 717.014 545.379 716.402C545.395 716.384 545.625 716.655 545.689 716.62C545.888 716.51 545.879 716.27 546.082 716.163C546.543 715.922 547.425 716.208 547.294 715.323C547.273 715.212 546.284 714.853 546.621 714.266C546.763 714.037 547.215 712.914 547.388 712.616C547.569 712.319 547.807 712.654 547.829 712.637C548.565 711.899 548.62 712.295 549.405 712.031C550.183 711.755 548.633 711.425 548.519 711.191C548.408 710.955 548.947 710.388 549.114 710.246C549.282 710.108 549.436 710.374 549.546 710.24C550.253 709.349 548.89 709.619 548.723 709.238C548.314 708.359 549.576 707.996 549.815 707.287C549.879 707.098 549.589 707.212 549.594 707.035C549.613 706.334 550.036 705.972 549.807 705.145C549.77 705.008 549.15 704.294 549.707 703.944C549.788 703.893 550.059 704.092 550.156 703.802C550.302 703.372 550.443 702.572 550.385 702.092C550.343 701.733 549.831 702.098 550.016 701.666C550.098 701.473 550.349 701.864 550.48 701.498C550.611 701.144 550.665 700.189 550.677 699.833C550.689 699.472 550.313 699.647 550.291 699.616C550.162 699.429 550.025 698.737 550.028 698.676C550.118 696.364 550.521 694.208 550.658 691.982C550.703 691.27 550.688 690.558 550.591 689.837C550.56 689.61 550.187 689.789 550.178 689.755C549.958 688.997 551.026 689.527 551.316 688.937C550.547 689.092 550.661 688.754 550.505 688.213C550.429 687.954 550.148 688.139 550.115 688.119C549.608 687.797 550.15 687.443 550.258 687.352C550.655 687.019 550.085 686.826 550.345 686.597C550.6 686.363 551.112 686.694 551.001 686.158C550.697 686.065 550.061 686.597 549.865 686.226C549.155 684.846 548.863 681.991 548.466 680.797C548.092 679.615 547.889 679.263 547.711 678.552C547.379 677.269 547.062 677.922 546.518 677.269C545.97 676.616 547.35 676.456 547.566 676.235C547.784 676.016 547.463 676.015 547.55 675.821C547.638 675.626 547.94 675.836 547.86 675.501C547.779 675.165 546.944 674.518 546.621 674.527C545.939 674.546 545.494 675.194 545.352 674.276C545.344 674.223 545.732 674.238 545.686 674.043C545.311 672.493 544.688 670.972 544.366 669.411C544.322 669.196 544.755 669.244 544.734 669.118C544.56 668.016 544.211 668.31 543.546 668.156C543.424 668.128 543.291 668.085 543.147 668.014C544.119 667.86 544.558 667.297 544.249 666.355C544.064 665.788 543.694 666.02 543.288 665.75C543.166 665.669 543.308 665.177 543.094 665.168C542.396 665.138 541.832 665.747 541.781 664.689C541.779 664.642 542.163 664.662 542.134 664.509C541.946 663.518 541.263 663.626 540.832 662.637C540.495 661.862 540.385 660.313 540.115 659.388C541.147 659.031 540.595 658.26 539.761 658.182C539.57 657.589 539.288 656.975 539.165 656.378C539.123 656.172 539.466 656.183 539.489 656.146C539.839 655.574 539.058 655.593 538.981 655.479C538.18 654.233 538.23 652.921 537.173 651.866C537.135 651.828 536.41 652.062 536.765 651.5C536.79 651.462 537.292 651.739 537.05 651.133C536.808 650.526 536.66 649.231 535.948 648.563C535.776 648.398 534.984 648.173 535.217 647.56C535.25 647.478 535.473 647.44 535.544 647.31C535.766 646.89 535.013 647.097 535.448 646.511C535.884 645.93 536.007 645.09 535.178 644.476C535.152 644.456 534.514 644.546 534.387 644.286C534.344 644.199 534.302 644.101 534.259 643.998C534.104 643.617 533.888 643.166 533.622 642.888C533.459 642.721 533.294 643.094 533.261 643.07C532.688 642.652 532.24 642.425 531.77 642.528C531.279 642.633 530.756 643.168 530.401 643.9C530.291 644.117 530.408 644.734 530.257 645.215C530.212 645.355 530.138 645.492 530.02 645.61C529.473 646.16 527.74 645.177 527.952 646.815C528.044 647.48 530.297 648.467 529.002 649.435C529.144 651.551 528.456 653.477 528.852 655.596C528.87 655.691 529.521 655.999 529.51 656.22C529.492 656.549 529.184 656.728 529.163 656.963C529.065 657.951 529.33 658.854 529.3 659.805C529.29 660.168 528.971 660.045 528.96 660.476C528.949 660.91 529.372 661.189 529.184 661.775C529.041 662.221 528.2 662.687 528.12 663.279C528.962 663.275 528.956 663.678 529.207 664.383C529.256 664.518 529.542 664.358 529.581 664.422C529.743 664.685 529.511 664.929 529.687 665.178C529.729 665.237 530.016 665.226 530.067 665.274C530.161 665.358 530.207 665.457 530.222 665.56C530.275 665.956 529.882 666.426 529.8 666.526C529.402 667.011 529.79 667.199 529.649 667.562C529.509 667.922 529.258 667.416 529.189 667.837C529.049 668.711 529.218 669.812 529.365 670.685C529.426 671.035 529.759 670.725 529.776 670.774C529.999 671.447 529.802 672.276 530.651 672.419C528.934 673.505 530.948 672.773 530.961 673.817C530.962 673.899 530.155 674.386 529.898 674.138C529.64 673.886 529.731 673.319 529.388 672.953C529.307 672.877 528.285 672.506 528.212 672.425C527.632 671.835 528.986 671.437 529.052 671.391C529.776 670.846 528.73 670.307 528.637 670.112C528.211 669.268 528.334 668.491 528.063 667.779C527.888 667.314 526.973 667.33 526.976 666.946C526.98 666.44 527.186 666.06 527.355 665.707C527.611 665.192 527.784 664.743 527.094 664.071C526.849 663.827 525.858 664.116 526.613 663.184C526.661 663.127 527.359 662.438 526.895 662.066C526.836 662.019 526.545 662.027 526.519 661.964C526.351 661.54 526.577 661.246 526.458 660.783C526.338 660.317 526.165 659.758 526.26 659.223C526.316 658.899 526.857 658.486 526.99 658.332C527.371 657.9 526.745 657.434 527.209 657.167C527.676 656.9 528.38 657.428 528.686 656.727C527.929 656.696 527.153 656.629 526.393 656.581C526.433 655.018 526.712 653.485 526.749 651.909C526.753 651.714 526.337 651.896 526.332 651.683C526.31 650.79 526.645 650.031 526.603 649.091C526.57 648.362 526.218 647.519 526.211 646.713C527.029 646.379 527.012 645.407 527.22 644.542C527.247 644.428 527.276 644.32 527.31 644.218C527.419 643.899 527.642 643.967 527.78 643.759C528.33 642.947 527.481 643.112 527.462 642.804C527.453 642.112 527.925 641.864 528.463 641.68C529.034 641.495 529.521 641.368 530.392 640.738C530.437 640.711 530.641 640.291 531.073 639.913C531.492 639.526 532.105 639.27 532.246 639.252C533.163 639.13 533.19 639.298 533.151 639.411C533.103 639.543 533.006 639.697 533.413 639.868C534.813 640.586 535.048 641.285 535.957 642.03C536.109 642.162 536.501 642.347 536.756 642.664C536.89 642.804 536.97 642.985 536.896 643.227C536.872 643.306 536.587 643.42 536.593 643.47C536.726 644.364 537.586 643.944 538.101 644.234C538.617 644.528 538.367 645.508 538.263 645.73C538 646.31 537.937 645.547 537.884 645.549C537.253 645.577 537.59 646.027 537.73 646.423C536.915 646.894 537.221 647.392 537.88 646.836C537.952 646.774 537.73 646.518 537.73 646.423C538.721 646.348 539.117 646.889 538.642 647.902C538.42 648.378 537.862 648.293 538.443 649.134C538.705 649.518 539.22 649.087 539.549 649.383C540.303 650.067 540.237 651.42 540.695 652.262C540.862 652.568 541.057 652.119 541.182 652.324C541.517 652.871 541.483 653.488 541.846 654.023C541.88 654.072 542.171 653.802 542.249 653.984C542.849 655.361 543.093 656.662 543.625 658.124C543.883 658.83 544.528 660.025 544.745 660.771C545.126 662.065 545.144 663.796 545.63 664.833C545.946 665.511 546.246 665.239 546.586 665.46C547.088 665.785 546.925 666.618 546.781 667.078C546.733 667.214 546.689 667.317 546.669 667.358C546.667 667.361 546.607 667.246 546.536 667.159C546.451 667.051 546.352 666.981 546.313 667.185C546.287 667.211 546.268 667.233 546.255 667.253C546.1 667.47 546.665 667.353 546.669 667.358C546.609 667.47 546.937 668.635 547.093 668.835C547.176 668.944 547.478 668.751 547.515 668.81C548.383 670.205 549.118 671.682 549.652 673.328C549.658 673.359 549.279 673.474 549.297 673.544C549.533 674.529 550.232 674.93 550.823 675.593C551.415 676.257 551.586 676.927 551.148 677.647C551.468 678.212 551.524 679.191 551.536 679.755C551.549 680.32 552.293 680.136 552.324 680.177C553.272 681.435 553.126 682.421 553.453 683.97C553.612 684.708 554.029 686.166 554.231 686.985C554.398 687.632 554.269 688.05 554.444 688.647C554.467 688.728 554.798 688.611 554.813 688.635C555.283 689.293 554.421 689.031 554.286 689.184C553.784 689.734 553.521 690.044 553.795 690.893C553.858 691.085 555.061 691.667 555.12 692.059C555.122 692.069 555.123 692.079 555.125 692.088C555.182 692.493 554.775 692.335 554.866 692.781C554.873 692.819 555.139 692.818 555.12 693.096C555.035 694.392 554.836 695.802 554.805 697.159C554.799 697.346 555.23 697.124 555.229 697.395C555.224 698.653 555.132 700.055 554.844 701.285C554.772 701.587 554.492 701.373 554.4 701.433C553.843 701.791 554.56 702.44 554.566 702.536C554.729 704.865 553.836 706.549 553.709 708.995C553.707 709.12 554.302 710.314 553.501 710.617C553.447 710.642 552.642 710.903 553.017 711.423C553.04 711.456 553.475 711.269 553.308 711.75C553.144 712.222 553.148 713.097 552.53 713.643C552.335 713.817 551.49 714.062 551.782 714.888C551.814 714.931 552.598 716.435 551.61 716.417C551.447 716.413 550.627 715.95 550.705 716.888C550.719 717.069 551.038 716.911 550.966 717.341C550.849 718.009 550.21 718.619 550.121 719.522C550.11 719.676 550.294 720.559 549.603 720.668C549.496 720.683 549.327 720.38 549.146 720.562C548.291 721.419 547.599 722.507 546.561 723.18C546.301 723.349 546.131 723.131 545.906 723.06C545.822 723.025 545.732 723.01 545.631 723.049C545.281 723.182 544.668 723.576 544.559 724.008C544.454 724.435 545.313 724.739 544.96 725.173C543.424 727.066 541.336 728.571 539.355 730.352C539.059 730.617 539.5 730.604 539.074 731.009C537.559 732.503 534.545 735.273 532.268 735.729C530.521 736.078 532.245 734.765 531.014 735.164C530.44 735.342 530.17 736.476 530.024 736.564C528.662 737.409 527.426 737.283 525.985 737.565C525.682 737.62 526.019 737.976 525.753 738.017C524.832 738.159 523.857 737.964 522.988 737.893C522.593 737.859 522.629 738.16 522.27 738.081C521.633 737.937 521.092 737.732 520.561 737.424C520.376 737.315 520.194 737.193 520.013 737.056C519.954 737.009 520.531 736.818 519.965 736.612C519.038 736.265 518.062 735.532 516.886 735.051C516.54 734.903 516.098 735.443 515.728 734.508C515.652 734.295 516.383 733.932 515.165 733.653C515.013 733.648 513.477 732.923 513.177 731.614C513.132 731.416 513.126 731.223 513.165 731.048C513.226 730.719 513.713 729.942 513.564 729.439C513.541 729.365 513.209 729.707 513.133 729.246C512.894 727.598 513.336 726.016 513.864 724.668C514.01 724.304 513.409 724.665 513.651 724.118C513.976 723.402 514.454 722.689 514.998 722.076C515.507 721.505 516.057 721.008 516.545 720.616C516.89 720.341 516.887 720.776 516.934 720.777C517.672 720.826 517.382 720.096 517.478 719.951C518.07 719.076 518.874 718.874 519.494 718.268C519.666 718.102 519.316 717.929 519.334 717.875C519.532 717.33 519.634 718.054 519.919 717.92C520.716 717.552 521.424 716.982 522.007 716.464C522.22 716.275 521.717 716.152 521.908 715.986C523.038 715.003 524.032 714.149 524.794 713.49C524.939 713.365 525.125 713.644 525.207 713.654C525.599 713.695 525.569 713.358 525.482 713.13C525.464 712.987 525.435 712.867 525.439 712.819C525.488 712.137 525.846 712.066 526.063 711.563C527.121 709.114 528.636 706.228 529.572 703.934C530.782 700.962 531.7 698.593 531.956 695.657C531.971 695.473 531.536 695.615 531.543 695.456C531.645 693.431 531.761 691.473 531.262 689.701C531.221 689.558 530.879 689.847 530.801 689.627C530.639 689.175 530.499 688.614 530.458 688.138C530.437 687.904 530.863 688.074 530.833 687.836C530.791 687.524 530.703 687.213 530.575 686.922C530.403 686.547 530.217 686.143 530.044 685.789C529.878 685.446 529.714 686.134 529.525 685.668C528.284 682.489 527.641 679.598 527.618 676.537C527.617 676.322 528.399 676.011 528.172 675.612C527.941 675.618 527.675 675.664 527.432 675.69C526.597 671.453 526.432 667.25 526.121 663.035C526.108 662.857 525.698 663.201 525.671 662.856C525.514 660.863 525.258 658.932 525.573 656.87C525.604 656.666 526.377 656.727 526.228 656.137C526.201 656.031 526.051 655.149 525.873 654.923C525.846 654.892 525.496 655.075 525.471 654.785C525.332 653.111 525.343 651.346 525.51 649.66C525.538 649.392 525.929 649.665 525.952 649.474C526.114 648.098 525.791 646.616 526.124 645.306C526.348 644.422 527.012 644.751 527.659 644.282C527.75 644.213 527.762 643.671 528.141 643.645C529.091 643.573 530.134 643.826 531.147 643.718C531.365 643.692 531.13 643.006 531.657 643.412C531.693 643.439 531.869 643.944 532.049 644.072C532.173 644.16 532.557 643.999 532.716 644.178C532.876 644.364 532.554 644.549 532.743 644.842C532.935 645.135 533.37 645.004 533.43 645.592ZM551.543 682.296C551.336 682.874 552.647 682.561 552.18 682.134C552.155 682.113 551.553 682.267 551.543 682.296ZM527.738 653.523C528.35 652.916 527.496 652.454 527.021 652.882C526.547 653.315 527.552 653.709 527.738 653.523ZM528.121 660.017C528.581 659.283 526.671 659.184 527.066 659.967C527.088 660.013 528.094 660.06 528.121 660.017ZM527.869 646.416C527.887 646.408 527.898 646.021 527.88 646.013C527.449 645.813 527.427 646.588 527.869 646.416ZM528.809 666.42C529.052 666.172 528.721 665.541 528.415 665.84C528.168 666.081 528.506 666.725 528.809 666.42ZM550.466 707.378C550.445 707.383 550.38 707.648 550.492 707.664C550.856 707.708 550.82 707.312 550.466 707.378ZM531.86 676.931C531.036 675.488 532.006 673.922 532.676 675.457C532.806 675.739 531.905 675.142 531.983 675.553C532.134 676.317 533.229 676.189 533.194 677.1C533.188 677.268 531.903 677.017 531.857 676.93C531.858 676.93 531.859 676.931 531.86 676.931ZM550.079 683.037C550.065 683.051 550.157 683.421 550.176 683.425C550.646 683.505 550.458 682.751 550.079 683.037ZM542.687 720.86C542.646 720.845 541.972 721.438 541.978 721.483C542.129 722.304 543.473 721.124 542.687 720.86ZM540.137 659.364C539.591 659.123 539.372 658.683 539.761 658.183C539.879 658.579 540.019 658.966 540.137 659.364Z" fill="#ED9F52"/>
</svg>
