<svg width="749" height="1216" viewBox="0 0 749 1216" fill="none" xmlns="http://www.w3.org/2000/svg">
<path d="M106.343 987.278C113.001 991.444 137.27 1000.88 170.098 1014.32C170.584 1018.87 202.368 1024.31 234.628 1029.15C245.525 1031.42 255.66 1032.22 266.309 1031.09C283.37 1029.48 304.069 1022.05 334.424 1013.23C372.589 1001.11 407.87 973.658 457.768 943.567C463.787 939.842 470.387 935.339 477.201 930.365C489.099 921.701 501.011 910.669 511.201 898.95C518.52 890.571 522.994 884.352 526.889 876.704C531.179 869.315 533.891 855.137 546.621 824.787C557.205 803.318 568.356 774.168 572.618 759.251C573.396 756.775 574.46 750.921 575.353 745.668C581.775 705.914 586.697 660.44 587.314 623.854C588.244 629.002 589.63 630.082 589.566 628.904C589.578 627.73 588.479 624.587 586.61 620.71C582.846 612.812 576.297 602.151 569.043 589.698C567.342 586.025 567.931 585.37 564.176 581.243C560.503 577.263 552.389 570.792 543.971 563.811C543.12 562.783 542.327 561.893 541.334 560.991C535.867 554.584 510.167 548.561 483.627 546.07C486.189 544.335 477.653 544.497 467.73 549.034C457.022 553.529 447.261 559.819 427.935 570.129C415.11 575.645 403.29 583.04 389.393 593.289C377.278 601.979 367.774 610.345 359.573 621.025C348.121 635.75 338.465 657.025 328.967 679.31C322.964 691.61 321.874 704.93 327.588 723.669C330.442 735.503 337.951 745.938 351.083 755.589C351.693 756.044 352.32 756.502 352.95 756.956C356.027 760.501 370.036 763.412 381.618 763.682C387.613 764.942 400.638 758.175 410.857 750.516C422.035 742.331 432.741 732.509 443.501 722.494L442.871 723.313C445.587 719.99 448.303 716.667 451.019 713.344C452.445 711.595 453.972 709.73 455.537 707.963C457.595 705.636 460.335 704.09 463.117 703.638C465.9 703.191 468.495 703.847 470.408 705.435C472.318 707.034 473.422 709.469 473.631 712.185C473.83 714.907 473.138 717.659 471.851 719.902C470.86 721.614 469.978 723.289 468.911 725.272C466.875 729.048 464.839 732.824 462.802 736.6C462.527 736.958 461.759 738.054 461.438 738.372C452.611 750.436 443.424 762.934 432.121 775.002C420.94 785.702 411.007 799.098 384.472 803.983C373.013 805.623 361.369 806.716 347.047 804.473C344.944 796.635 342.2 789.944 338.109 783.029C337.006 780.335 335.472 777.763 333.443 775.238C330.016 771.035 324.593 766.173 319.228 763.782C314.381 761.655 309.503 760.814 304.738 759.551C299.78 758.226 294.918 756.416 291.25 752.138C288.413 748.816 285.346 745.597 282.173 742.22C278.826 739.208 274.916 735.82 271.026 731.887C268.406 729.231 265.776 726.294 263.312 722.997C256.848 703.471 255.493 679.52 261.111 657.868C262.795 650.275 264.568 642.581 266.557 634.729C270.638 626.224 274.582 618.207 277.213 610.81C279.568 604.186 280.354 597.271 281.129 589.865C282.844 585.831 284.704 581.788 286.742 577.736C296.927 557.169 311.836 538.137 326.553 523.056C330.266 519.155 334.116 515.209 338.211 511.211C350.002 503.749 364.034 495.393 380.001 487.718C382.93 486.74 388.94 483.226 395.45 479.207C404.671 473.519 415.548 468.076 427.298 463.475C444.242 456.91 463.338 451.46 484.839 450.41C485.158 450.382 485.475 450.352 485.791 450.321C494.313 449.46 503.389 451.183 512.541 453.23C524.929 455.991 537.173 459.287 550.353 458.074C558.663 457.316 567.097 456.555 575.431 456.65C588.676 456.751 601.762 459.312 610.998 465.368C611.717 465.836 612.428 466.303 613.133 466.768C622.72 472.809 633.764 476.266 646.443 483.102C660.942 490.741 674.96 502.979 680.356 514.601C680.599 515.294 680.806 516.013 680.973 516.758C681.254 518.005 681.521 519.5 681.847 521.224C683.551 530.838 687.123 543.792 704.028 567.982C709.955 577.091 717.69 586.916 723.577 601.751C724.918 605.173 726.127 608.87 727.101 612.801C731.347 622.236 734.493 631.474 733.153 641.122C732.915 642.856 731.773 644.62 730.725 646.248C729.393 648.319 728.22 650.089 729.269 651.121C732.349 654.159 735.744 659.014 739.38 664.303C742.052 668.201 744.857 672.332 747.786 676.17C748.919 705.173 749.086 732.972 747.795 762.761C747.415 770.074 747.132 776.683 745.948 786.712C744.732 796.405 743.295 804.266 741.77 811.865C735.379 818.606 729.358 824.816 724.108 831.442C717.24 840.08 712.137 851.871 704.884 866.797C702.027 872.664 698.826 879.029 694.971 885.907C693.302 887.781 691.152 890.877 688.248 896.082C677.657 918.407 661.908 960.679 650.904 980.23C648.641 984.754 646.34 989.167 643.755 993.836C642.895 995.398 641.991 997.002 641.03 998.66C631.713 1014.45 620.021 1034.75 589.787 1064.6C576.121 1077.82 561.601 1089.15 546.708 1098.53C532.775 1107.65 519.673 1115.76 508.128 1122.63C497.81 1128.78 488.77 1133.92 481.805 1138.1C469.915 1145.26 454.325 1153.73 437.389 1161.45C414.74 1171.93 389.689 1180.38 372.433 1185.48C370.616 1186.12 368.918 1186.74 367.354 1187.36C363.444 1188.89 359.167 1190.7 354.167 1192.76C340.384 1198.22 320.568 1207.05 285.445 1212.63C256.913 1216.86 235.9 1215.5 218.043 1212.59C214.981 1211.92 211.863 1211.19 208.57 1210.41C202.615 1209 197.086 1204.78 190.931 1200.37C182.067 1194.06 172.632 1187.72 155.891 1187.47C151.927 1187.38 147.441 1187.68 142.399 1187.77C135.15 1187.89 126.624 1187.59 117.364 1184.91C116.108 1184.57 114.88 1184.14 113.689 1183.59C111.756 1182.69 110.199 1181.12 108.724 1179.59C107.019 1177.9 105.436 1176.27 103.134 1175.52C94.7235 1172.8 85.7415 1170.49 77.009 1168C65.7496 1164.84 54.8187 1161.15 48.3245 1157.48C36.8032 1151.06 22.0632 1145.48 7.93391 1138.17C-2.84451 1132.64 -13.1032 1126.3 -21.2629 1119.06C-28.7205 1112.46 -36.5632 1105.28 -44.4632 1097.79C-50.9461 1092.1 -74.2062 1076.62 -97.1603 1053.81C-110.011 1040.83 -117.943 1025.09 -124.539 1003.88C-128.29 991.58 -131.541 977.261 -133.735 960.125C-133.805 959.26 -133.878 958.388 -133.954 957.509C-134.555 950.461 -137.887 944.961 -140.93 939.774C-143.726 935.033 -146.305 930.419 -146.234 925.215C-146.177 920.574 -143.056 917.149 -140.081 913.901C-136.76 910.324 -133.624 907.001 -134.971 902.268C-135.679 899.794 -137.88 896.871 -140.451 893.265C-141.469 891.833 -142.535 890.336 -143.601 888.646C-142.861 888.663 -142.205 888.619 -141.711 888.571C-138.215 888.212 -136.896 882.92 -135.454 877.655C-134.882 875.555 -134.297 873.46 -133.576 871.715C-130.957 865.351 -130.782 853.396 -130.446 843.723C-130.323 839.657 -128.988 835.995 -127.317 831.784C-125.827 828.053 -124.074 823.876 -122.498 818.54C-121.595 815.491 -120.164 813.306 -118.964 811.534C-118.095 810.257 -117.341 809.172 -116.981 808.115C-116.671 807.201 -117.494 806.234 -118.415 805.134C-119.078 804.344 -119.793 803.48 -120.168 802.528C-120.191 802.47 -120.213 802.412 -120.235 802.353C-121.144 800.514 -121.077 798.509 -120.347 797.269C-120 796.681 -119.503 796.271 -119.009 795.867C-118.435 795.406 -117.85 794.907 -117.505 794.133C-115.929 790.603 -116.202 786.757 -116.477 782.779C-116.766 778.356 -117.04 773.707 -114.876 769.218C-114.182 767.752 -113.065 766.314 -111.986 764.953C-110.863 763.549 -109.742 762.062 -109.217 760.785C-107.055 755.487 -108.135 749.742 -109.045 744.286C-109.663 740.705 -110.214 737.288 -109.724 734.344C-108.837 729.005 -110.888 725.325 -112.413 722.636C-113.2 721.234 -113.834 720.052 -113.831 719.05C-113.494 718.227 -113.143 717.414 -112.775 716.584C-112.324 715.867 -111.859 715.135 -111.698 714.371C-111.686 714.313 -111.682 714.253 -111.67 714.196C-109.504 709.68 -107.024 705.358 -104.53 701.139C-98.9301 691.65 -93.2808 682.758 -91.1301 672.892C-90.6683 670.769 -91.114 668.31 -91.5756 665.822C-91.7983 664.666 -92.0229 663.497 -92.1561 662.345C-92.2238 660.085 -92.0349 657.867 -91.2259 655.878C-88.0847 648.149 -83.1008 641.281 -78.1266 634.818C-70.6345 625.075 -63.1862 616.258 -61.5775 605.657C-61.0449 602.156 -61.1695 598.418 -61.2812 594.667C-61.3437 592.577 -61.4029 590.476 -61.3359 588.422C-60.0536 589.531 -58.7754 590.431 -57.5829 591.268C-55.1245 592.994 -53.0226 594.472 -51.905 597.028C-49.2707 603.075 -45.0747 610.42 -40.2488 612.253C-38.9404 612.753 -37.604 613.55 -36.2621 614.36C-32.8951 616.397 -29.4532 618.45 -26.1578 615.945C-23.9347 614.246 -18.5197 609.85 -19.2715 604.862C-19.4359 603.773 -20.3281 602.691 -21.3174 601.485C-23.0934 599.317 -25.1936 596.733 -23.9792 592.973C-23.7747 592.341 -23.5331 591.665 -23.2717 590.971C-22.232 588.205 -21.0503 585.129 -22.2812 583.056C-23.6987 580.666 -26.2435 579.603 -29.2146 578.368C-33.082 576.758 -37.6888 574.863 -41.4128 569.277C-42.1485 568.172 -41.9338 566.953 -41.7738 566.035C-41.6609 565.389 -41.5815 564.891 -41.8679 564.677C-42.1981 564.432 -43.0343 564.192 -44.094 563.89C-47.8304 562.828 -54.3742 560.973 -51.4447 555.164C-50.6526 553.598 -49.3964 552.01 -48.2685 550.594C-46.6068 548.508 -45.2307 546.793 -46.0261 546.004C-46.3289 545.706 -46.6767 545.418 -47.0454 545.135C-46.1203 543.724 -45.188 542.306 -44.2648 540.908C-44.0762 540.628 -43.8874 540.348 -43.6983 540.067C-41.4427 538.718 -39.9485 535.859 -38.1114 532.247C-37.6646 531.369 -37.1944 530.45 -36.6903 529.493C-34.7434 526.499 -32.8111 523.477 -30.8912 520.442C-29.0765 518.191 -26.8813 515.925 -24.1549 513.73C-18.693 509.331 -12.0057 506.418 -5.47833 503.479C-2.72833 502.24 -0.00364685 500.997 2.57877 499.64C2.37787 500.558 2.25125 501.405 2.2891 502.13C2.55004 507.079 5.97739 510.733 9.1313 514.112C11.2277 516.359 13.1968 518.491 13.9954 520.805C15.4535 525.049 18.9327 526.463 21.5144 527.501C22.8524 528.04 23.946 528.487 24.3794 529.18C24.7256 529.738 24.604 530.563 24.4777 531.416C24.368 532.158 24.2557 532.927 24.444 533.552C26.7202 541.144 30.3162 541.103 35.6048 540.952C38.5184 540.872 41.9371 540.767 45.9109 541.929C50.0489 543.295 51.0818 544.056 51.2022 547.599C54.1968 546.414 57.19 545.211 60.1833 543.984C60.4869 543.068 59.6189 541.827 58.0902 539.934C55.3622 536.557 56.6536 530.665 57.6055 526.05C58.0486 523.913 58.422 522.053 58.3158 520.856C57.7433 514.487 52.9764 514.081 48.8196 513.667C46.5276 513.443 44.4093 513.226 43.2418 512.075C42.7416 511.585 42.0064 511.608 41.2583 511.628C40.6799 511.643 40.0913 511.659 39.5973 511.439C36.0125 509.83 34.7173 505.728 33.4624 501.967C32.7496 499.804 32.0414 497.763 30.9719 496.323C30.6454 495.885 30.2874 495.494 29.9367 495.121C29.4245 494.576 28.9383 494.052 28.6012 493.425C27.8378 491.988 27.8771 489.776 27.9001 487.368C27.9135 486.13 27.9202 484.845 27.8142 483.587C27.6784 481.95 26.4451 480.877 25.1646 479.74C24.2589 478.937 23.3279 478.106 22.7132 477.057C22.0721 475.973 21.9512 474.605 22.019 473.197C22.0557 472.188 22.1981 471.148 22.3344 470.132C22.4733 469.094 22.5949 468.089 22.5896 467.196C22.5872 466.833 22.3963 466.586 22.0673 466.421C22.3008 462.412 22.3815 458.531 22.4061 454.728C22.5425 436.477 21.5022 420.595 31.0442 396.517C31.2693 396.254 31.5963 395.658 31.9318 395.065C33.297 392.533 33.9886 388.246 34.1265 383.78C37.9824 369.762 41.1532 353.861 43.5794 338.305C47.2729 335.361 50.4088 331.645 52.8581 327.139C57.4493 318.66 58.4042 309.722 59.0697 299.41C59.5475 291.775 59.8859 283.403 61.0863 273.705C62.0179 266.129 62.4645 258.562 62.1372 251.254C61.3254 241.234 59.8608 230.897 57.4448 220.135C53.0019 200.051 45.7623 177.664 39.3335 162.634C35.8709 154.425 34.579 144.725 32.9368 135.678C30.6986 122.998 27.5146 111.505 19.2791 109.441C18.7173 109.302 18.1117 109.206 17.4739 109.145C15.0147 108.742 12.1217 108.767 9.31226 108.821C6.78169 108.895 4.23104 108.866 2.16173 108.623C0.23806 105.302 -1.74173 101.941 -3.74232 98.5718C-5.05021 90.9874 -8.65285 80.1275 -18.1504 74.9638C-20.2626 71.6447 -22.3839 68.3881 -24.4107 65.3161C-28.9313 58.5753 -33.3809 52.2663 -37.9661 46.6071C-39.4487 44.7687 -40.9831 42.972 -42.52 41.2829C-42.534 41.2664 -42.548 41.25 -42.562 41.2335C-45.45 38.0669 -48.3598 35.2691 -51.8038 32.5066C-51.9285 32.3732 -52.0701 32.2335 -52.2276 32.0891C-53.1434 31.2457 -54.5044 30.3066 -56.0388 29.4119C-59.9868 27.114 -65.0949 25.0264 -70.297 23.2145C-73.0584 22.2507 -75.9387 21.348 -78.874 20.4934C-83.6351 19.1072 -88.5677 17.8551 -93.5367 16.7138C-101.568 14.8729 -109.746 13.2973 -117.959 11.9946C-119.28 11.7805 -120.583 11.1694 -121.527 10.2585C-122.489 9.34584 -122.999 8.20974 -123 7.03732C-122.996 5.86488 -122.478 4.72339 -121.479 3.82482C-120.501 2.92938 -119.142 2.36027 -117.774 2.19942C-109.262 1.23619 -100.696 0.574469 -92.0445 0.2336C-86.6922 0.0262957 -81.2878 -0.0594804 -75.8808 0.0449984C-72.5451 0.110245 -69.2035 0.250755 -65.8669 0.477849C-59.5555 0.925601 -53.0541 1.66693 -46.3327 3.32804C-43.6933 3.98828 -40.9677 4.81476 -38.174 5.97099C-37.7109 6.16347 -37.2506 6.36302 -36.7934 6.57048C-31.5582 8.82746 -26.2125 11.6804 -21.2656 14.8427C-21.2338 14.8631 -21.2019 14.8835 -21.17 14.904C-18.5514 16.5726 -15.9986 18.3382 -13.5724 20.1048C-6.06911 25.6061 0.723206 31.4224 7.42673 37.5281C10.8872 40.6512 14.3783 43.9516 17.8227 47.2766C19.7453 49.1338 21.6089 50.9438 23.4912 52.8039C24.4951 53.7965 25.4899 54.7864 26.5214 55.827C35.4533 64.751 44.0815 73.7582 52.6465 82.9167C67.6816 99.421 79.8385 117.275 90.7934 135.66C108.361 165.359 122.541 196.449 134.491 228.412C134.915 229.551 135.336 230.691 135.753 231.833C148.079 268.193 151.647 302.102 153.446 336.114C154.383 366.345 155.301 392.212 148.733 428.996C143.97 455.286 138.535 485.741 128.078 516.893C116.315 552.036 102.985 583.877 87.3294 616.367C71.2523 650.193 57.0138 683.06 49.5236 712.159C35.9236 757.072 29.7446 790.374 22.1371 834.928C20.3241 849.676 23.0725 869.335 29.5716 897.128C31.5028 905.304 33.6919 913.795 36.0794 922.577C37.9465 926.59 39.7056 929.042 45.2228 935.004C51.871 942.374 60.7901 948.359 85.47 971.542C89.4429 975.277 93.1837 978.473 96.4967 980.983C100.224 983.799 103.374 985.761 106.343 987.278Z" fill="#A94752"/>
</svg>
